{
.appVersion = "3151";
.formatVersion = 3;
customParameters = (
{
name = panose;
value = (
0,
0,
5,
0,
0,
0,
0,
0,
0,
0
);
},
{
name = blueScale;
value = 0.037;
},
{
name = glyphOrder;
value = (
.notdef,
space,
exclam,
quotedbl,
numbersign,
dollar,
percent,
ampersand,
quotesingle,
parenleft,
parenright,
asterisk,
plus,
comma,
hyphen,
period,
slash,
zero,
one,
two,
three,
four,
five,
six,
seven,
eight,
nine,
colon,
semicolon,
less,
equal,
greater,
question,
at,
A,
B,
C,
D,
E,
F,
G,
H,
I,
J,
K,
L,
M,
N,
O,
P,
Q,
R,
S,
T,
U,
V,
W,
X,
Y,
Z,
bracketleft,
backslash,
bracketright,
asciicircum,
underscore,
grave,
a,
b,
c,
d,
e,
f,
g,
h,
i,
j,
k,
l,
m,
n,
o,
p,
q,
r,
s,
t,
u,
v,
w,
x,
y,
z,
braceleft,
bar,
braceright,
asciitilde,
uni007F,
uni00A0,
exclamdown,
cent,
sterling,
currency,
yen,
brokenbar,
section,
dieresis,
copyright,
ordfeminine,
guillemotleft,
logicalnot,
uni00AD,
registered,
macron,
degree,
plusminus,
uni00B2,
uni00B3,
acute,
uni00B5,
paragraph,
periodcentered,
cedilla,
uni00B9,
ordmasculine,
guillemotright,
onequarter,
onehalf,
threequarters,
questiondown,
Agrave,
Aacute,
Acircumflex,
Atilde,
Adieresis,
Aring,
AE,
Ccedilla,
Egrave,
Eacute,
Ecircumflex,
Edieresis,
Igrave,
Iacute,
Icircumflex,
Idieresis,
Eth,
Ntilde,
Ograve,
Oacute,
Ocircumflex,
Otilde,
Odieresis,
multiply,
Oslash,
Ugrave,
Uacute,
Ucircumflex,
Udieresis,
Yacute,
Thorn,
germandbls,
agrave,
aacute,
acircumflex,
atilde,
adieresis,
aring,
ae,
ccedilla,
egrave,
eacute,
ecircumflex,
edieresis,
igrave,
iacute,
icircumflex,
idieresis,
eth,
ntilde,
ograve,
oacute,
ocircumflex,
otilde,
odieresis,
divide,
oslash,
ugrave,
uacute,
ucircumflex,
udieresis,
yacute,
thorn,
ydieresis,
OE,
oe
);
}
);
date = "2013-01-17 12:03:43 +0000";
familyName = Beon;
featurePrefixes = (
{
code = "lookup SUB_3 {
	sub A by ordfeminine;
	sub O by ordmasculine;
	sub a by ordfeminine;
	sub o by ordmasculine;
} SUB_3;
";
name = Prefix;
}
);
features = (
{
automatic = 1;
code = "";
tag = aalt;
},
{
code = "script DFLT;

glyphs = (
{
glyphname = exclam;
layers = (
{
hints = (
{
horizontal = 1;
place = (-30, 134);
place = (-30, 134);
type = Stem;
},
{
place = (35, 60);
place = (35, 60);
type = Stem;
}
);
layerId = m01;
shapes = (
{
closed = 1;
nodes = (
(35,154,ls),
(35,137,o),
(48,124,o),
(65,124,cs),
(82,124,o),
(95,137,o),
(95,154,cs),
(95,644,ls),
(95,661,o),
(82,674,o),
(65,674,cs),
(48,674,o),
(35,661,o),
(35,644,cs)
);
},
{
closed = 1;
nodes = (
(28,104,o),
(-2,74,o),
(-2,37,cs),
(-2,0,o),
(28,-30,o),
(65,-30,cs),
(102,-30,o),
(132,0,o),
(132,37,cs),
(132,74,o),
(102,104,o),
(65,104,cs)
);
}
);
width = 130;
}
);
note = exclam;
unicode = 33;
},
{
glyphname = quotedbl;
layers = (
{
hints = (
{
horizontal = 1;
place = (462, 217);
place = (462, 217);
type = Stem;
},
{
place = (1, 60);
place = (1, 60);
type = Stem;
},
{
place = (76, 60);
place = (76, 60);
type = Stem;
}
);
layerId = m01;
shapes = (
{
closed = 1;
nodes = (
(1,492,ls),
(1,475,o),
(14,462,o),
(31,462,cs),
(48,462,o),
(61,475,o),
(61,492,cs),
(61,649,ls),
(61,666,o),
(48,679,o),
(31,679,cs),
(14,679,o),
(1,666,o),
(1,649,cs)
);
},
{
closed = 1;
nodes = (
(76,492,ls),
(76,475,o),
(89,462,o),
(106,462,cs),
(123,462,o),
(136,475,o),
(136,492,cs),
(136,649,ls),
(136,666,o),
(123,679,o),
(106,679,cs),
(89,679,o),
(76,666,o),
(76,649,cs)
);
}
);
width = 137;
}
);
note = quotedbl;
unicode = 34;
},
{
glyphname = numbersign;
layers = (
{
hints = (
{
horizontal = 1;
place = (-31, 21);
target = up;
type = BottomGhost;
},
{
horizontal = 1;
place = (138, 60);
place = (138, 60);
type = Stem;
},
{
horizontal = 1;
place = (251, 58);
place = (251, 58);
type = Stem;
},
{
place = (8, 374);
place = (8, 374);
type = Stem;
},
{
horizontal = 1;
place = (-33, 21);
target = up;
type = BottomGhost;
},
{
horizontal = 1;
place = (134, 60);
place = (134, 60);
type = Stem;
},
{
horizontal = 1;
place = (247, 60);
place = (247, 60);
type = Stem;
}
);
layerId = m01;
shapes = (
{
closed = 1;
nodes = (
(276,309,l),
(157,309,l),
(190,434,ls),
(195,452,o),
(181,471,o),
(161,471,cs),
(147,471,o),
(135,462,o),
(132,448,cs),
(95,307,l),
(38,307,ls),
(21,307,o),
(8,294,o),
(8,277,cs),
(8,260,o),
(21,247,o),
(38,247,cs),
(79,247,l),
(65,194,l),
(38,194,ls),
(21,194,o),
(8,181,o),
(8,164,cs),
(8,147,o),
(21,134,o),
(38,134,cs),
(49,134,l),
(14,4,ls),
(9,-14,o),
(23,-33,o),
(43,-33,cs),
(57,-33,o),
(69,-24,o),
(72,-10,cs),
(111,136,l),
(230,136,l),
(195,6,ls),
(190,-12,o),
(204,-31,o),
(224,-31,cs),
(238,-31,o),
(250,-22,o),
(253,-8,cs),
(292,138,l),
(352,138,ls),
(369,138,o),
(382,151,o),
(382,168,cs),
(382,185,o),
(369,198,o),
(352,198,cs),
(308,198,l),
(322,251,l),
(352,251,ls),
(369,251,o),
(382,264,o),
(382,281,cs),
(382,298,o),
(369,311,o),
(352,311,cs),
(338,311,l),
(371,436,ls),
(376,454,o),
(362,473,o),
(342,473,cs),
(328,473,o),
(316,464,o),
(313,450,cs)
);
},
{
closed = 1;
nodes = (
(127,198,l),
(141,251,l),
(260,251,l),
(246,198,l)
);
}
);
width = 409;
}
);
note = numbersign;
unicode = 35;
},
{
glyphname = dollar;
layers = (
{
hints = (
{
horizontal = 1;
place = (-32, 62);
place = (-32, 62);
type = Stem;
},
{
horizontal = 1;
place = (561, 59);
place = (561, 59);
type = Stem;
},
{
place = (27, 61);
place = (27, 61);
type = Stem;
},
{
place = (190, 60);
place = (190, 60);
type = Stem;
},
{
place = (349, 60);
place = (349, 60);
type = Stem;
},
{
place = (397, 59);
place = (397, 59);
type = Stem;
},
{
horizontal = 1;
place = (-132, 89);
place = (-132, 89);
type = Stem;
}
);
layerId = m01;
shapes = (
{
closed = 1;
nodes = (
(189,646,ls),
(189,635,o),
(195,625,o),
(205,620,c),
(189,620,ls),
(161,618,o),
(133,611,o),
(108,597,cs),
(79,581,o),
(59,559,o),
(47,538,cs),
(34,515,o),
(27,489,o),
(27,463,cs),
(27,455,ls),
(28,432,o),
(35,410,o),
(46,390,cs),
(57,370,o),
(72,353,o),
(89,339,cs),
(123,311,o),
(163,296,o),
(201,285,cs),
(246,272,o),
(295,264,o),
(333,242,cs),
(351,232,o),
(367,219,o),
(378,204,cs),
(389,189,o),
(396,172,o),
(397,155,cs),
(397,148,ls),
(397,126,o),
(388,103,o),
(372,85,cs),
(355,65,o),
(329,49,o),
(300,40,cs),
(278,33,o),
(254,30,o),
(230,30,cs),
(219,30,o),
(207,31,o),
(196,32,cs),
(155,37,o),
(115,51,o),
(79,72,c),
(65,78,o),
(57,84,o),
(44,93,cs),
(39,97,o),
(33,99,o),
(26,99,cs),
(17,99,o),
(8,95,o),
(2,87,cs),
(-2,82,o),
(-4,76,o),
(-4,69,cs),
(-4,60,o),
(0,51,o),
(8,45,cs),
(21,35,o),
(35,26,o),
(49,18,cs),
(91,-6,o),
(138,-23,o),
(187,-29,cs),
(201,-31,o),
(215,-32,o),
(229,-32,cs),
(259,-32,o),
(289,-28,o),
(318,-19,cs),
(355,-7,o),
(391,13,o),
(417,44,cs),
(441,72,o),
(456,108,o),
(456,146,cs),
(456,157,ls),
(454,190,o),
(441,218,o),
(426,238,cs),
(409,261,o),
(387,279,o),
(363,293,cs),
(318,319,o),
(263,328,o),
(219,341,cs),
(200,346,o),
(159,358,o),
(129,383,cs),
(117,393,o),
(107,405,o),
(100,418,cs),
(93,430,o),
(89,444,o),
(88,458,cs),
(88,463,ls),
(88,479,o),
(92,495,o),
(100,509,cs),
(108,522,o),
(121,536,o),
(139,546,cs),
(155,555,o),
(174,560,o),
(194,561,cs),
(205,561,ls),
(221,561,o),
(238,558,o),
(254,553,cs),
(299,540,o),
(334,512,o),
(356,484,cs),
(362,477,o),
(369,473,o),
(378,473,cs),
(382,473,o),
(385,474,o),
(389,475,cs),
(402,479,o),
(409,489,o),
(409,502,cs),
(409,589,ls),
(409,606,o),
(396,619,o),
(379,619,cs),
(362,619,o),
(349,606,o),
(349,589,cs),
(349,571,l),
(325,588,o),
(298,601,o),
(269,609,cs),
(256,613,o),
(243,616,o),
(230,618,c),
(241,622,o),
(249,633,o),
(249,646,cs),
(249,678,ls),
(249,695,o),
(236,708,o),
(219,708,cs),
(202,708,o),
(189,695,o),
(189,678,cs)
);
},
{
closed = 1;
nodes = (
(190,401,ls),
(190,384,o),
(203,371,o),
(220,371,cs),
(237,371,o),
(250,384,o),
(250,401,cs),
(250,511,ls),
(250,528,o),
(237,541,o),
(220,541,cs),
(203,541,o),
(190,528,o),
(190,511,cs)
);
},
{
closed = 1;
nodes = (
(190,77,ls),
(190,60,o),
(203,47,o),
(220,47,cs),
(237,47,o),
(250,60,o),
(250,77,cs),
(250,229,ls),
(250,246,o),
(237,259,o),
(220,259,cs),
(203,259,o),
(190,246,o),
(190,229,cs)
);
},
{
closed = 1;
nodes = (
(190,-102,ls),
(190,-119,o),
(203,-132,o),
(220,-132,cs),
(237,-132,o),
(250,-119,o),
(250,-102,cs),
(250,-73,ls),
(250,-56,o),
(237,-43,o),
(220,-43,cs),
(203,-43,o),
(190,-56,o),
(190,-73,cs)
);
}
);
width = 444;
}
);
note = dollar;
unicode = 36;
},
{
glyphname = percent;
layers = (
{
hints = (
{
horizontal = 1;
place = (-30, 57);
place = (-30, 57);
type = Stem;
},
{
horizontal = 1;
place = (314, 57);
place = (314, 57);
type = Stem;
},
{
horizontal = 1;
place = (620, 62);
place = (620, 62);
type = Stem;
},
{
place = (-7, 60);
place = (-7, 60);
type = Stem;
},
{
place = (221, 61);
place = (221, 61);
type = Stem;
},
{
place = (332, 60);
place = (332, 60);
type = Stem;
},
{
place = (560, 61);
place = (560, 61);
type = Stem;
},
{
horizontal = 1;
place = (276, 62);
place = (276, 62);
type = Stem;
}
);
layerId = m01;
shapes = (
{
closed = 1;
nodes = (
(-5,503,l),
(-5,492,ls),
(-4,454,o),
(4,413,o),
(28,377,cs),
(40,359,o),
(56,343,o),
(76,331,cs),
(95,320,o),
(117,314,o),
(140,314,cs),
(144,314,ls),
(164,315,o),
(188,321,o),
(210,335,cs),
(229,347,o),
(244,364,o),
(255,382,cs),
(276,418,o),
(282,458,o),
(282,495,cs),
(282,531,o),
(277,575,o),
(252,615,cs),
(240,634,o),
(224,651,o),
(203,663,cs),
(180,677,o),
(156,682,o),
(136,682,cs),
(132,682,ls),
(112,681,o),
(88,675,o),
(65,660,cs),
(45,647,o),
(30,629,o),
(19,610,cs),
(-1,576,o),
(-7,538,o),
(-7,502,c)
);
},
{
closed = 1;
nodes = (
(40,18,ls),
(36,13,o),
(34,7,o),
(34,0,cs),
(34,-9,o),
(38,-18,o),
(46,-24,cs),
(51,-28,o),
(57,-30,o),
(64,-30,cs),
(73,-30,o),
(82,-26,o),
(88,-18,cs),
(580,626,ls),
(584,631,o),
(586,637,o),
(586,644,cs),
(586,653,o),
(582,662,o),
(574,668,cs),
(569,672,o),
(563,674,o),
(556,674,cs),
(547,674,o),
(538,670,o),
(532,662,cs)
);
},
{
closed = 1;
nodes = (
(136,620,ls),
(147,620,o),
(160,617,o),
(172,610,cs),
(183,603,o),
(193,593,o),
(200,581,cs),
(215,556,o),
(221,526,o),
(221,492,cs),
(221,462,o),
(216,433,o),
(202,410,cs),
(195,399,o),
(186,389,o),
(176,382,cs),
(164,374,o),
(151,371,o),
(140,371,cs),
(138,371,ls),
(126,371,o),
(114,374,o),
(104,380,cs),
(93,386,o),
(83,395,o),
(76,406,cs),
(61,429,o),
(54,458,o),
(53,489,cs),
(53,502,ls),
(53,531,o),
(58,558,o),
(71,580,cs),
(78,592,o),
(87,602,o),
(98,609,cs),
(110,617,o),
(123,620,o),
(134,620,cs)
);
},
{
closed = 1;
nodes = (
(334,159,l),
(334,148,ls),
(335,110,o),
(343,69,o),
(367,33,cs),
(379,15,o),
(395,-1,o),
(415,-13,cs),
(434,-24,o),
(456,-30,o),
(479,-30,cs),
(483,-30,ls),
(503,-29,o),
(527,-23,o),
(549,-9,cs),
(568,3,o),
(583,20,o),
(594,38,cs),
(615,74,o),
(621,114,o),
(621,151,cs),
(621,187,o),
(616,231,o),
(591,271,cs),
(579,290,o),
(563,307,o),
(542,319,cs),
(519,333,o),
(495,338,o),
(475,338,cs),
(471,338,ls),
(451,337,o),
(427,331,o),
(404,316,cs),
(384,303,o),
(369,285,o),
(358,266,cs),
(338,232,o),
(332,194,o),
(332,158,c)
);
},
{
closed = 1;
nodes = (
(475,276,ls),
(486,276,o),
(499,273,o),
(511,266,cs),
(522,259,o),
(532,249,o),
(539,237,cs),
(554,212,o),
(560,182,o),
(560,148,cs),
(560,118,o),
(555,89,o),
(541,66,cs),
(534,55,o),
(525,45,o),
(515,38,cs),
(503,30,o),
(490,27,o),
(479,27,cs),
(477,27,ls),
(465,27,o),
(453,30,o),
(443,36,cs),
(432,42,o),
(422,51,o),
(415,62,cs),
(400,85,o),
(393,114,o),
(392,145,cs),
(392,158,ls),
(392,187,o),
(397,214,o),
(410,236,cs),
(417,248,o),
(426,258,o),
(437,265,cs),
(449,273,o),
(462,276,o),
(473,276,cs)
);
}
);
width = 631;
}
);
note = percent;
unicode = 37;
},
{
glyphname = ampersand;
layers = (
{
hints = (
{
horizontal = 1;
place = (-29, 57);
place = (-29, 57);
type = Stem;
},
{
horizontal = 1;
place = (252, 60);
place = (252, 60);
type = Stem;
},
{
horizontal = 1;
place = (579, 62);
place = (579, 62);
type = Stem;
},
{
place = (-12, 61);
place = (-12, 61);
type = Stem;
},
{
place = (105, 64);
place = (105, 64);
type = Stem;
},
{
place = (324, 60);
place = (324, 60);
type = Stem;
},
{
place = (529, 60);
place = (529, 60);
type = Stem;
},
{
horizontal = 1;
place = (-35, 62);
place = (-35, 62);
type = Stem;
}
);
layerId = m01;
shapes = (
{
closed = 1;
nodes = (
(442,11,ls),
(458,-11,o),
(482,-25,o),
(509,-29,c),
(522,-29,ls),
(564,-29,o),
(611,-12,o),
(627,45,cs),
(632,63,o),
(619,82,o),
(598,82,cs),
(585,82,o),
(573,73,o),
(570,60,cs),
(566,46,o),
(557,38,o),
(552,35,cs),
(546,31,o),
(538,28,o),
(528,28,cs),
(522,28,ls),
(507,30,o),
(497,40,o),
(493,45,cs),
(191,423,ls),
(181,436,o),
(174,451,o),
(171,467,cs),
(170,473,o),
(169,479,o),
(169,485,cs),
(169,495,o),
(171,505,o),
(174,515,cs),
(180,534,o),
(191,549,o),
(203,559,cs),
(214,568,o),
(230,577,o),
(249,579,cs),
(256,579,ls),
(268,579,o),
(284,576,o),
(298,567,cs),
(305,562,o),
(320,548,o),
(324,526,c),
(324,516,ls),
(324,506,o),
(321,495,o),
(316,485,cs),
(310,473,o),
(300,461,o),
(285,450,cs),
(276,443,o),
(266,437,o),
(255,432,cs),
(244,427,o),
(238,416,o),
(238,405,cs),
(238,401,o),
(239,396,o),
(241,392,cs),
(246,381,o),
(257,375,o),
(268,375,cs),
(272,375,o),
(277,376,o),
(281,378,cs),
(295,385,o),
(309,393,o),
(322,403,cs),
(345,420,o),
(360,440,o),
(370,459,cs),
(379,477,o),
(384,497,o),
(384,517,cs),
(384,525,o),
(383,531,o),
(382,537,cs),
(376,571,o),
(356,599,o),
(331,617,cs),
(308,633,o),
(281,641,o),
(254,641,cs),
(240,641,l),
(211,638,o),
(183,626,o),
(161,607,cs),
(136,586,o),
(121,560,o),
(113,537,cs),
(108,521,o),
(105,504,o),
(105,487,cs),
(105,478,o),
(106,469,o),
(108,460,cs),
(113,434,o),
(124,410,o),
(140,389,cs)
);
},
{
closed = 1;
nodes = (
(98,293,ls),
(103,298,o),
(108,302,o),
(113,306,cs),
(120,312,o),
(124,321,o),
(124,329,cs),
(124,336,o),
(122,342,o),
(118,348,cs),
(112,355,o),
(103,359,o),
(95,359,cs),
(88,359,o),
(82,357,o),
(76,353,cs),
(69,348,o),
(62,342,o),
(56,336,cs),
(20,301,o),
(-5,254,o),
(-11,203,cs),
(-12,195,o),
(-12,187,o),
(-12,179,cs),
(-12,143,o),
(-3,107,o),
(15,75,cs),
(37,36,o),
(71,5,o),
(111,-14,cs),
(140,-28,o),
(172,-35,o),
(204,-35,cs),
(215,-35,o),
(226,-34,o),
(237,-32,cs),
(274,-26,o),
(316,-10,o),
(354,22,c),
(364,32,ls),
(370,38,o),
(374,46,o),
(374,54,cs),
(374,61,o),
(371,68,o),
(366,74,cs),
(360,80,o),
(352,84,o),
(344,84,cs),
(337,84,o),
(330,81,o),
(324,76,cs),
(317,69,ls),
(289,45,o),
(258,33,o),
(231,29,cs),
(223,28,o),
(215,27,o),
(207,27,cs),
(183,27,o),
(159,32,o),
(138,42,cs),
(109,55,o),
(84,78,o),
(69,105,cs),
(56,127,o),
(49,153,o),
(49,179,cs),
(49,185,o),
(49,191,o),
(50,197,cs),
(54,233,o),
(72,268,o),
(99,294,cs)
);
},
{
closed = 1;
nodes = (
(510,252,ls),
(514,252,o),
(520,251,o),
(524,247,cs),
(528,244,o),
(529,240,o),
(529,236,cs),
(529,219,o),
(542,206,o),
(559,206,cs),
(576,206,o),
(589,219,o),
(589,236,cs),
(589,257,o),
(580,276,o),
(565,290,cs),
(549,305,o),
(529,312,o),
(509,312,cs),
(505,312,l),
(496,312,l),
(473,309,o),
(459,300,o),
(440,285,cs),
(421,268,o),
(403,222,o),
(396,204,cs),
(395,201,o),
(394,197,o),
(394,194,cs),
(394,179,o),
(406,164,o),
(423,164,cs),
(435,164,o),
(446,171,o),
(451,183,cs),
(463,209,ls),
(466,216,o),
(473,231,o),
(484,241,cs),
(490,246,o),
(497,251,o),
(506,252,cs)
);
}
);
width = 705;
}
);
note = ampersand;
unicode = 38;
},
{
glyphname = quotesingle;
layers = (
{
hints = (
{
horizontal = 1;
place = (466, 212);
place = (466, 212);
type = Stem;
},
{
place = (14, 137);
place = (14, 137);
type = Stem;
}
);
layerId = m01;
shapes = (
{
closed = 1;
nodes = (
(81,678,ls),
(44,678,o),
(14,648,o),
(14,611,cs),
(14,581,o),
(33,556,o),
(60,547,c),
(54,541,o),
(42,530,o),
(31,524,cs),
(21,518,o),
(14,508,o),
(14,497,cs),
(14,492,o),
(16,488,o),
(18,483,c),
(24,473,o),
(34,466,o),
(45,466,cs),
(50,466,o),
(54,468,o),
(59,470,cs),
(81,482,o),
(100,501,o),
(108,510,cs),
(118,521,o),
(128,533,o),
(137,548,cs),
(147,566,o),
(151,584,o),
(151,600,cs),
(151,604,ls),
(149,636,o),
(128,678,o),
(82,678,cs)
);
}
);
width = 161;
}
);
note = quotesingle;
unicode = 39;
},
{
glyphname = parenleft;
layers = (
{
hints = (
{
horizontal = 1;
place = (-56, 732);
place = (-56, 732);
type = Stem;
},
{
place = (46, 60);
place = (46, 60);
type = Stem;
}
);
layerId = m01;
shapes = (
{
closed = 1;
nodes = (
(46,310,l),
(46,188,o),
(77,67,o),
(136,-40,cs),
(141,-50,o),
(152,-56,o),
(162,-56,cs),
(167,-56,o),
(172,-55,o),
(177,-52,cs),
(187,-47,o),
(193,-36,o),
(193,-26,cs),
(193,-21,o),
(192,-16,o),
(189,-11,cs),
(135,87,o),
(106,199,o),
(106,311,cs),
(106,422,o),
(134,533,o),
(187,631,c),
(189,636,o),
(191,641,o),
(191,646,cs),
(191,661,o),
(180,676,o),
(160,676,cs),
(150,676,o),
(139,670,o),
(134,660,cs),
(76,554,o),
(45,433,o),
(45,312,c)
);
}
);
width = 242;
}
);
note = parenleft;
unicode = 40;
},
{
glyphname = parenright;
layers = (
{
hints = (
{
horizontal = 1;
place = (-57, 730);
place = (-57, 730);
type = Stem;
},
{
place = (124, 60);
place = (124, 60);
type = Stem;
}
);
layerId = m01;
shapes = (
{
closed = 1;
nodes = (
(124,310,l),
(124,198,o),
(95,86,o),
(41,-12,c),
(39,-17,o),
(37,-22,o),
(37,-27,cs),
(37,-42,o),
(48,-57,o),
(68,-57,cs),
(78,-57,o),
(89,-51,o),
(94,-41,cs),
(153,66,o),
(184,187,o),
(184,309,cs),
(184,430,o),
(153,551,o),
(95,657,cs),
(90,667,o),
(79,673,o),
(69,673,cs),
(64,673,o),
(59,672,o),
(54,669,cs),
(44,664,o),
(38,653,o),
(38,643,cs),
(38,638,o),
(39,633,o),
(42,628,cs),
(95,530,o),
(123,419,o),
(123,308,c)
);
}
);
width = 242;
}
);
note = parenright;
unicode = 41;
},
{
glyphname = asterisk;
layers = (
{
hints = (
{
horizontal = 1;
place = (414, 258);
place = (414, 258);
type = Stem;
},
{
place = (104, 60);
place = (104, 60);
type = Stem;
}
);
layerId = m01;
shapes = (
{
closed = 1;
nodes = (
(104,594,l),
(62,618,l),
(58,621,o),
(53,622,o),
(48,622,cs),
(33,622,o),
(18,611,o),
(18,593,cs),
(18,582,o),
(24,572,o),
(33,567,cs),
(75,543,l),
(33,519,ls),
(24,514,o),
(18,504,o),
(18,493,cs),
(18,488,o),
(19,484,o),
(22,479,cs),
(27,470,o),
(37,464,o),
(48,464,cs),
(53,464,o),
(57,465,o),
(62,468,cs),
(104,492,l),
(104,444,ls),
(104,427,o),
(117,414,o),
(134,414,cs),
(151,414,o),
(164,427,o),
(164,444,cs),
(164,492,l),
(206,468,l),
(211,466,o),
(216,464,o),
(220,464,cs),
(235,464,o),
(250,475,o),
(250,493,cs),
(250,504,o),
(244,514,o),
(235,519,cs),
(193,543,l),
(235,567,ls),
(244,572,o),
(250,582,o),
(250,593,cs),
(250,598,o),
(249,602,o),
(246,607,cs),
(241,616,o),
(231,622,o),
(220,622,cs),
(215,622,o),
(211,621,o),
(206,618,cs),
(164,594,l),
(164,642,ls),
(164,659,o),
(151,672,o),
(134,672,cs),
(117,672,o),
(104,659,o),
(104,642,cs)
);
}
);
width = 267;
}
);
note = asterisk;
unicode = 42;
},
{
glyphname = plus;
layers = (
{
hints = (
{
horizontal = 1;
place = (251, 60);
place = (251, 60);
type = Stem;
},
{
place = (172, 60);
place = (172, 60);
type = Stem;
}
);
layerId = m01;
shapes = (
{
closed = 1;
nodes = (
(172,311,l),
(67,311,ls),
(50,311,o),
(37,298,o),
(37,281,cs),
(37,264,o),
(50,251,o),
(67,251,cs),
(172,251,l),
(172,144,ls),
(172,127,o),
(185,114,o),
(202,114,cs),
(219,114,o),
(232,127,o),
(232,144,cs),
(232,251,l),
(335,251,ls),
(352,251,o),
(365,264,o),
(365,281,cs),
(365,298,o),
(352,311,o),
(335,311,cs),
(232,311,l),
(232,412,ls),
(232,429,o),
(219,442,o),
(202,442,cs),
(185,442,o),
(172,429,o),
(172,412,cs)
);
}
);
width = 409;
}
);
note = plus;
unicode = 43;
},
{
glyphname = comma;
layers = (
{
hints = (
{
horizontal = 1;
place = (-109, 212);
place = (-109, 212);
type = Stem;
},
{
place = (32, 135);
place = (32, 135);
type = Stem;
}
);
layerId = m01;
shapes = (
{
closed = 1;
nodes = (
(97,103,ls),
(61,103,o),
(32,74,o),
(32,38,cs),
(32,8,o),
(52,-17,o),
(79,-25,c),
(69,-36,o),
(58,-47,o),
(47,-58,cs),
(41,-64,o),
(38,-71,o),
(38,-79,cs),
(38,-87,o),
(41,-94,o),
(46,-100,cs),
(52,-106,o),
(59,-109,o),
(67,-109,cs),
(75,-109,o),
(82,-106,o),
(88,-101,cs),
(100,-89,o),
(112,-77,o),
(124,-64,cs),
(134,-53,o),
(144,-41,o),
(153,-26,cs),
(163,-8,o),
(167,10,o),
(167,26,cs),
(167,30,ls),
(166,46,o),
(161,60,o),
(154,70,cs),
(143,88,o),
(116,103,o),
(104,103,cs)
);
}
);
width = 208;
}
);
note = comma;
unicode = 44;
},
{
glyphname = hyphen;
layers = (
{
hints = (
{
horizontal = 1;
place = (251, 60);
place = (251, 60);
type = Stem;
},
{
place = (-15, 230);
place = (-15, 230);
type = Stem;
}
);
layerId = m01;
shapes = (
{
closed = 1;
nodes = (
(15,311,ls),
(-2,311,o),
(-15,298,o),
(-15,281,cs),
(-15,264,o),
(-2,251,o),
(15,251,cs),
(185,251,ls),
(202,251,o),
(215,264,o),
(215,281,cs),
(215,298,o),
(202,311,o),
(185,311,cs)
);
}
);
width = 203;
}
);
note = hyphen;
unicode = 45;
},
{
glyphname = period;
layers = (
{
hints = (
{
horizontal = 1;
place = (-30, 134);
place = (-30, 134);
type = Stem;
},
{
place = (17, 134);
place = (17, 134);
type = Stem;
}
);
layerId = m01;
shapes = (
{
closed = 1;
nodes = (
(47,104,o),
(17,74,o),
(17,37,cs),
(17,0,o),
(47,-30,o),
(84,-30,cs),
(121,-30,o),
(151,0,o),
(151,37,cs),
(151,74,o),
(121,104,o),
(84,104,cs)
);
}
);
width = 170;
}
);
note = period;
unicode = 46;
},
{
glyphname = slash;
layers = (
{
hints = (
{
horizontal = 1;
place = (-39, 704);
place = (-39, 704);
type = Stem;
},
{
place = (34, 262);
place = (34, 262);
type = Stem;
}
);
layerId = m01;
shapes = (
{
closed = 1;
nodes = (
(35,0,ls),
(34,-3,o),
(34,-6,o),
(34,-9,cs),
(34,-25,o),
(46,-39,o),
(64,-39,cs),
(77,-39,o),
(89,-31,o),
(93,-18,cs),
(295,626,ls),
(296,629,o),
(296,632,o),
(296,635,cs),
(296,651,o),
(284,665,o),
(266,665,cs),
(253,665,o),
(241,657,o),
(237,644,cs)
);
}
);
width = 320;
}
);
note = slash;
unicode = 47;
},
{
glyphname = zero;
layers = (
{
hints = (
{
horizontal = 1;
place = (-34, 63);
place = (-34, 63);
type = Stem;
},
{
horizontal = 1;
place = (583, 59);
place = (583, 59);
type = Stem;
},
{
place = (46, 58);
place = (46, 58);
type = Stem;
},
{
place = (500, 61);
place = (500, 61);
type = Stem;
}
);
layerId = m01;
shapes = (
{
closed = 1;
nodes = (
(295,642,ls),
(259,641,o),
(216,631,o),
(176,604,cs),
(141,581,o),
(114,550,o),
(94,515,cs),
(62,459,o),
(46,386,o),
(46,311,cs),
(46,227,o),
(66,142,o),
(107,80,cs),
(129,47,o),
(158,18,o),
(194,-3,cs),
(228,-23,o),
(267,-34,o),
(307,-34,cs),
(313,-34,ls),
(355,-33,o),
(395,-20,o),
(429,2,cs),
(463,24,o),
(490,54,o),
(510,87,cs),
(549,152,o),
(561,226,o),
(561,297,cs),
(561,374,o),
(548,453,o),
(505,522,cs),
(484,556,o),
(455,587,o),
(419,609,cs),
(384,630,o),
(343,642,o),
(301,642,cs)
);
},
{
closed = 1;
nodes = (
(104,315,ls),
(104,362,o),
(110,428,o),
(143,486,cs),
(159,513,o),
(180,537,o),
(206,554,cs),
(236,574,o),
(268,582,o),
(295,583,cs),
(299,583,ls),
(329,583,o),
(360,574,o),
(386,559,cs),
(413,543,o),
(436,519,o),
(453,492,cs),
(488,436,o),
(500,370,o),
(500,300,cs),
(500,251,o),
(494,181,o),
(458,121,cs),
(442,95,o),
(421,72,o),
(396,56,cs),
(371,40,o),
(341,30,o),
(311,29,cs),
(307,29,ls),
(278,29,o),
(248,37,o),
(223,51,cs),
(197,66,o),
(174,88,o),
(157,114,cs),
(124,164,o),
(109,232,o),
(104,296,c)
);
}
);
width = 615;
}
);
note = zero;
unicode = 48;
},
{
glyphname = one;
layers = (
{
hints = (
{
horizontal = 1;
place = (-30, 21);
target = up;
type = BottomGhost;
},
{
horizontal = 1;
place = (642, -20);
target = down;
type = TopGhost;
},
{
place = (173, 60);
place = (173, 60);
type = Stem;
}
);
layerId = m01;
shapes = (
{
closed = 1;
nodes = (
(33,548,ls),
(24,543,o),
(18,533,o),
(18,522,cs),
(18,517,o),
(19,513,o),
(22,508,cs),
(27,499,o),
(37,493,o),
(48,493,cs),
(53,493,o),
(57,494,o),
(62,497,cs),
(217,587,ls),
(226,592,o),
(232,602,o),
(232,613,cs),
(232,618,o),
(231,622,o),
(228,627,cs),
(223,636,o),
(213,642,o),
(202,642,cs),
(197,642,o),
(193,641,o),
(188,638,cs)
);
},
{
closed = 1;
nodes = (
(173,0,ls),
(173,-17,o),
(186,-30,o),
(203,-30,cs),
(220,-30,o),
(233,-17,o),
(233,0,cs),
(233,502,ls),
(233,519,o),
(220,532,o),
(203,532,cs),
(186,532,o),
(173,519,o),
(173,502,cs)
);
}
);
width = 318;
}
);
note = one;
unicode = 49;
},
{
glyphname = two;
layers = (
{
hints = (
{
horizontal = 1;
place = (-30, 60);
place = (-30, 60);
type = Stem;
},
{
horizontal = 1;
place = (582, 57);
place = (582, 57);
type = Stem;
},
{
place = (57, 61);
place = (57, 61);
type = Stem;
},
{
place = (383, 61);
place = (383, 61);
type = Stem;
}
);
layerId = m01;
shapes = (
{
closed = 1;
nodes = (
(264,639,ls),
(229,639,o),
(186,630,o),
(148,604,cs),
(114,580,o),
(89,546,o),
(79,507,cs),
(74,489,o),
(88,470,o),
(108,470,cs),
(122,470,o),
(134,479,o),
(137,493,cs),
(143,517,o),
(159,540,o),
(182,556,cs),
(208,575,o),
(238,582,o),
(262,582,cs),
(264,582,ls),
(287,582,o),
(317,575,o),
(342,556,cs),
(363,540,o),
(377,518,o),
(381,495,cs),
(382,489,o),
(383,483,o),
(383,477,cs),
(383,465,o),
(381,453,o),
(377,441,cs),
(371,423,o),
(360,405,o),
(346,388,cs),
(315,351,o),
(269,320,o),
(223,286,cs),
(177,252,o),
(130,213,o),
(98,162,cs),
(72,120,o),
(57,72,o),
(57,23,cs),
(57,18,ls),
(57,11,o),
(57,4,o),
(58,-3,cs),
(59,-18,o),
(73,-30,o),
(88,-30,cs),
(106,-30,o),
(119,-15,o),
(118,3,cs),
(118,18,ls),
(118,55,o),
(129,93,o),
(150,126,cs),
(166,151,o),
(192,184,o),
(260,234,cs),
(304,267,o),
(354,300,o),
(393,347,cs),
(411,368,o),
(426,392,o),
(435,419,cs),
(441,437,o),
(444,456,o),
(444,475,cs),
(444,485,o),
(443,495,o),
(441,505,cs),
(433,543,o),
(411,578,o),
(379,602,cs),
(343,629,o),
(300,639,o),
(266,639,cs)
);
},
{
closed = 1;
nodes = (
(166,30,ls),
(149,30,o),
(136,17,o),
(136,0,cs),
(136,-17,o),
(149,-30,o),
(166,-30,cs),
(422,-30,ls),
(439,-30,o),
(452,-17,o),
(452,0,cs),
(452,17,o),
(439,30,o),
(422,30,cs)
);
}
);
width = 513;
}
);
note = two;
unicode = 50;
},
{
glyphname = three;
layers = (
{
hints = (
{
horizontal = 1;
place = (-35, 60);
place = (-35, 60);
type = Stem;
},
{
horizontal = 1;
place = (310, 60);
place = (310, 60);
type = Stem;
},
{
horizontal = 1;
place = (582, 59);
place = (582, 59);
type = Stem;
},
{
place = (399, 62);
place = (399, 62);
type = Stem;
},
{
place = (367, 59);
place = (367, 59);
type = Stem;
}
);
layerId = m01;
shapes = (
{
closed = 1;
nodes = (
(253,641,ls),
(240,641,o),
(227,639,o),
(214,636,cs),
(201,633,o),
(189,629,o),
(177,623,cs),
(165,617,o),
(154,610,o),
(144,602,cs),
(134,594,o),
(125,585,o),
(117,575,cs),
(109,565,o),
(102,554,o),
(97,543,c),
(90,532,o),
(85,521,o),
(85,505,cs),
(85,489,o),
(98,475,o),
(114,475,cs),
(128,475,o),
(141,485,o),
(144,499,cs),
(145,506,o),
(147,513,o),
(150,520,cs),
(153,527,o),
(157,534,o),
(162,540,cs),
(167,546,o),
(173,552,o),
(179,557,cs),
(185,562,o),
(192,566,o),
(200,570,cs),
(208,574,o),
(216,577,o),
(225,579,cs),
(234,581,o),
(243,582,o),
(252,582,cs),
(255,582,ls),
(263,582,o),
(271,581,o),
(279,579,cs),
(287,577,o),
(295,575,o),
(303,572,cs),
(310,569,o),
(317,565,o),
(323,561,cs),
(330,556,o),
(336,551,o),
(341,545,cs),
(346,539,o),
(351,533,o),
(355,526,cs),
(365,509,o),
(367,499,o),
(367,482,cs),
(367,469,o),
(361,444,o),
(349,427,cs),
(345,421,o),
(340,415,o),
(335,409,cs),
(330,404,o),
(324,399,o),
(318,395,cs),
(310,389,o),
(301,384,o),
(292,380,cs),
(283,377,o),
(273,375,o),
(263,373,cs),
(253,371,o),
(243,370,o),
(233,370,cs),
(216,370,o),
(203,357,o),
(203,340,cs),
(203,323,o),
(216,310,o),
(233,310,cs),
(246,310,o),
(259,311,o),
(272,313,cs),
(286,315,o),
(300,318,o),
(313,323,cs),
(327,328,o),
(340,335,o),
(352,344,cs),
(361,351,o),
(370,358,o),
(378,366,cs),
(386,374,o),
(393,383,o),
(399,392,cs),
(417,419,o),
(426,446,o),
(426,481,cs),
(426,512,o),
(420,532,o),
(407,555,cs),
(401,566,o),
(394,576,o),
(386,585,cs),
(378,594,o),
(369,602,o),
(359,609,cs),
(349,616,o),
(338,622,o),
(327,627,cs),
(316,632,o),
(304,636,o),
(292,638,cs),
(280,640,o),
(268,641,o),
(256,641,cs)
);
},
{
closed = 1;
nodes = (
(433,265,l),
(419,289,o),
(400,305,o),
(385,315,cs),
(380,318,o),
(374,320,o),
(369,320,cs),
(359,320,o),
(349,315,o),
(343,306,cs),
(340,301,o),
(338,295,o),
(338,290,cs),
(338,280,o),
(343,270,o),
(352,264,cs),
(359,260,o),
(373,249,o),
(381,235,cs),
(393,215,o),
(399,191,o),
(399,167,cs),
(399,146,o),
(395,122,o),
(382,98,cs),
(371,78,o),
(353,60,o),
(331,48,cs),
(307,34,o),
(276,25,o),
(239,25,cs),
(200,25,o),
(161,36,o),
(133,56,cs),
(121,64,o),
(111,74,o),
(103,85,cs),
(97,93,o),
(88,97,o),
(79,97,cs),
(72,97,o),
(66,95,o),
(61,91,cs),
(53,85,o),
(49,76,o),
(49,67,cs),
(49,60,o),
(51,54,o),
(55,49,cs),
(67,33,o),
(82,19,o),
(99,7,cs),
(144,-25,o),
(198,-35,o),
(240,-35,cs),
(289,-35,o),
(331,-23,o),
(363,-5,cs),
(394,13,o),
(419,38,o),
(436,68,cs),
(455,102,o),
(461,137,o),
(461,166,cs),
(461,200,o),
(452,234,o),
(434,264,c)
);
}
);
width = 521;
}
);
note = three;
unicode = 51;
},
{
glyphname = four;
layers = (
{
hints = (
{
horizontal = 1;
place = (-31, 21);
target = up;
type = BottomGhost;
},
{
horizontal = 1;
place = (166, 60);
place = (166, 60);
type = Stem;
},
{
horizontal = 1;
place = (642, -20);
target = down;
type = TopGhost;
},
{
place = (323, 60);
place = (323, 60);
type = Stem;
}
);
layerId = m01;
shapes = (
{
closed = 1;
nodes = (
(-5,212,ls),
(-8,207,o),
(-10,201,o),
(-10,196,cs),
(-10,191,o),
(-8,186,o),
(-6,181,c),
(0,171,o),
(7,166,o),
(18,166,cs),
(276,166,ls),
(293,166,o),
(306,179,o),
(306,196,cs),
(306,213,o),
(293,226,o),
(276,226,cs),
(77,226,l),
(320,595,ls),
(323,600,o),
(325,606,o),
(325,611,cs),
(325,621,o),
(320,631,o),
(311,637,cs),
(306,640,o),
(300,642,o),
(295,642,cs),
(285,642,o),
(275,637,o),
(269,628,cs)
);
},
{
closed = 1;
nodes = (
(323,-1,ls),
(323,-18,o),
(336,-31,o),
(353,-31,cs),
(370,-31,o),
(383,-18,o),
(383,-1,cs),
(383,434,ls),
(383,451,o),
(370,464,o),
(353,464,cs),
(336,464,o),
(323,451,o),
(323,434,cs)
);
}
);
width = 460;
}
);
note = four;
unicode = 52;
},
{
glyphname = five;
layers = (
{
hints = (
{
horizontal = 1;
place = (-32, 57);
place = (-32, 57);
type = Stem;
},
{
horizontal = 1;
place = (307, 62);
place = (307, 62);
type = Stem;
},
{
horizontal = 1;
place = (581, 60);
place = (581, 60);
type = Stem;
},
{
place = (84, 60);
place = (84, 60);
type = Stem;
},
{
place = (400, 60);
place = (400, 60);
type = Stem;
}
);
layerId = m01;
shapes = (
{
closed = 1;
nodes = (
(84,401,ls),
(84,384,o),
(97,371,o),
(114,371,cs),
(131,371,o),
(144,384,o),
(144,401,cs),
(144,611,ls),
(144,628,o),
(131,641,o),
(114,641,cs),
(97,641,o),
(84,628,o),
(84,611,cs)
);
},
{
closed = 1;
nodes = (
(200,641,ls),
(183,641,o),
(170,628,o),
(170,611,cs),
(170,594,o),
(183,581,o),
(200,581,cs),
(389,581,ls),
(406,581,o),
(419,594,o),
(419,611,cs),
(419,628,o),
(406,641,o),
(389,641,cs)
);
},
{
closed = 1;
nodes = (
(240,307,ls),
(260,307,o),
(279,305,o),
(297,300,cs),
(320,293,o),
(342,281,o),
(359,265,cs),
(366,258,o),
(372,251,o),
(377,243,cs),
(382,236,o),
(386,228,o),
(389,220,cs),
(392,212,o),
(395,203,o),
(397,194,cs),
(399,185,o),
(400,176,o),
(400,167,cs),
(400,165,ls),
(399,152,o),
(397,141,o),
(394,130,cs),
(391,119,o),
(386,109,o),
(380,99,cs),
(374,89,o),
(367,80,o),
(359,72,cs),
(344,57,o),
(304,26,o),
(249,25,cs),
(234,25,o),
(214,29,o),
(199,33,cs),
(184,37,o),
(170,42,o),
(157,49,cs),
(159,48,ls),
(146,55,o),
(134,64,o),
(123,74,cs),
(117,79,o),
(110,82,o),
(103,82,cs),
(95,82,o),
(87,78,o),
(81,72,cs),
(76,66,o),
(73,59,o),
(73,52,cs),
(73,44,o),
(77,36,o),
(83,30,cs),
(98,17,o),
(114,6,o),
(132,-3,cs),
(150,-12,o),
(169,-19,o),
(188,-24,cs),
(210,-30,o),
(232,-32,o),
(253,-32,cs),
(294,-32,o),
(332,-22,o),
(365,-1,cs),
(378,7,o),
(391,17,o),
(402,28,cs),
(413,39,o),
(423,52,o),
(431,66,cs),
(439,80,o),
(446,95,o),
(451,110,cs),
(456,125,o),
(459,141,o),
(460,157,cs),
(460,168,ls),
(460,181,o),
(459,194,o),
(456,206,cs),
(453,219,o),
(449,231,o),
(444,243,cs),
(439,255,o),
(433,266,o),
(426,277,cs),
(418,288,o),
(409,299,o),
(399,309,cs),
(375,333,o),
(345,350,o),
(313,359,cs),
(289,366,o),
(264,369,o),
(240,369,cs),
(232,369,o),
(224,369,o),
(216,368,cs),
(195,367,o),
(174,364,o),
(153,359,cs),
(136,355,o),
(119,350,o),
(103,344,cs),
(91,339,o),
(83,328,o),
(83,316,cs),
(83,298,o),
(98,285,o),
(113,285,cs),
(117,285,o),
(120,286,o),
(124,287,cs),
(138,292,o),
(153,296,o),
(168,299,cs),
(186,303,o),
(204,306,o),
(222,307,cs)
);
}
);
width = 527;
}
);
note = five;
unicode = 53;
},
{
glyphname = six;
layers = (
{
hints = (
{
horizontal = 1;
place = (-30, 59);
place = (-30, 59);
type = Stem;
},
{
horizontal = 1;
place = (313, 60);
place = (313, 60);
type = Stem;
},
{
place = (41, 58);
place = (41, 58);
type = Stem;
},
{
place = (404, 67);
place = (404, 67);
type = Stem;
}
);
layerId = m01;
shapes = (
{
closed = 1;
nodes = (
(258,313,ls),
(284,311,o),
(309,303,o),
(330,291,cs),
(354,277,o),
(373,257,o),
(386,235,cs),
(398,214,o),
(404,190,o),
(404,167,cs),
(404,162,o),
(404,157,o),
(403,152,cs),
(400,124,o),
(387,96,o),
(366,74,cs),
(343,51,o),
(308,34,o),
(272,30,cs),
(267,29,o),
(261,29,o),
(255,29,cs),
(228,29,o),
(201,36,o),
(179,48,cs),
(152,63,o),
(131,85,o),
(118,110,cs),
(110,126,o),
(99,156,o),
(99,202,cs),
(99,224,o),
(102,246,o),
(107,266,cs),
(122,329,o),
(154,381,o),
(198,439,cs),
(246,502,o),
(311,556,o),
(387,594,cs),
(398,599,o),
(404,610,o),
(404,621,cs),
(404,625,o),
(403,630,o),
(401,634,cs),
(396,645,o),
(385,651,o),
(374,651,cs),
(370,651,o),
(365,650,o),
(361,648,cs),
(278,606,o),
(206,547,o),
(152,477,cs),
(106,417,o),
(68,357,o),
(50,282,cs),
(44,257,o),
(41,230,o),
(41,203,cs),
(41,143,o),
(57,104,o),
(68,83,cs),
(87,47,o),
(117,16,o),
(155,-4,cs),
(187,-21,o),
(223,-30,o),
(260,-30,cs),
(268,-30,o),
(276,-30,o),
(284,-29,cs),
(334,-24,o),
(381,-2,o),
(415,32,cs),
(446,63,o),
(465,103,o),
(470,144,cs),
(471,151,o),
(471,158,o),
(471,165,cs),
(471,199,o),
(462,233,o),
(445,263,cs),
(427,294,o),
(401,321,o),
(368,340,cs),
(331,362,o),
(284,373,o),
(242,373,cs),
(227,373,o),
(213,372,o),
(200,369,cs),
(186,366,o),
(176,353,o),
(176,339,cs),
(176,321,o),
(193,307,o),
(211,310,cs),
(221,312,o),
(232,313,o),
(243,313,cs)
);
}
);
width = 527;
}
);
note = six;
unicode = 54;
},
{
glyphname = seven;
layers = (
{
hints = (
{
horizontal = 1;
place = (-30, 21);
target = up;
type = BottomGhost;
},
{
horizontal = 1;
place = (582, 60);
place = (582, 60);
type = Stem;
},
{
place = (57, 383);
place = (57, 383);
type = Stem;
}
);
layerId = m01;
shapes = (
{
closed = 1;
nodes = (
(87,642,ls),
(70,642,o),
(57,629,o),
(57,612,cs),
(57,595,o),
(70,582,o),
(87,582,cs),
(410,582,ls),
(427,582,o),
(440,595,o),
(440,612,cs),
(440,629,o),
(427,642,o),
(410,642,cs)
);
},
{
closed = 1;
nodes = (
(80,13,ls),
(78,9,o),
(77,4,o),
(77,0,cs),
(77,-16,o),
(88,-30,o),
(107,-30,cs),
(118,-30,o),
(129,-24,o),
(134,-13,cs),
(385,494,ls),
(387,498,o),
(388,503,o),
(388,507,cs),
(388,523,o),
(377,537,o),
(358,537,cs),
(347,537,o),
(336,531,o),
(331,520,cs)
);
}
);
width = 483;
}
);
note = seven;
unicode = 55;
},
{
glyphname = eight;
layers = (
{
hints = (
{
horizontal = 1;
place = (-32, 60);
place = (-32, 60);
type = Stem;
},
{
horizontal = 1;
place = (584, 58);
place = (584, 58);
type = Stem;
},
{
place = (55, 60);
place = (55, 60);
type = Stem;
},
{
place = (359, 48);
place = (359, 48);
type = Stem;
},
{
place = (83, 60);
place = (83, 60);
type = Stem;
},
{
place = (388, 60);
place = (388, 60);
type = Stem;
}
);
layerId = m01;
shapes = (
{
closed = 1;
nodes = (
(351,436,l),
(348,428,o),
(344,420,o),
(339,413,cs),
(335,408,o),
(333,402,o),
(333,395,cs),
(333,386,o),
(337,377,o),
(345,371,cs),
(350,367,o),
(356,365,o),
(363,365,cs),
(372,365,o),
(381,369,o),
(387,377,cs),
(395,388,o),
(402,400,o),
(407,413,cs),
(415,432,o),
(419,453,o),
(419,474,cs),
(419,495,o),
(415,516,o),
(407,536,cs),
(393,572,o),
(366,602,o),
(332,621,cs),
(307,635,o),
(279,642,o),
(251,642,cs),
(241,642,o),
(231,641,o),
(221,639,cs),
(172,630,o),
(131,599,o),
(108,562,cs),
(94,539,o),
(83,509,o),
(83,474,cs),
(83,458,o),
(85,442,o),
(90,426,cs),
(104,379,o),
(139,340,o),
(184,321,cs),
(197,316,o),
(225,309,o),
(253,306,cs),
(270,304,o),
(299,299,o),
(309,294,cs),
(342,278,o),
(368,247,o),
(380,212,cs),
(385,197,o),
(388,181,o),
(388,165,cs),
(388,145,o),
(384,125,o),
(376,107,cs),
(361,75,o),
(333,48,o),
(300,36,cs),
(286,31,o),
(270,28,o),
(254,28,cs),
(232,28,o),
(205,34,o),
(180,50,cs),
(145,73,o),
(120,113,o),
(116,155,cs),
(115,160,o),
(115,165,o),
(115,170,cs),
(115,199,o),
(124,224,o),
(135,243,cs),
(141,252,o),
(148,261,o),
(156,269,cs),
(162,275,o),
(165,283,o),
(165,291,cs),
(165,298,o),
(162,306,o),
(156,312,cs),
(150,318,o),
(142,321,o),
(135,321,cs),
(127,321,o),
(119,318,o),
(113,312,cs),
(102,301,o),
(92,288,o),
(84,274,cs),
(68,247,o),
(55,211,o),
(55,169,cs),
(55,162,o),
(55,155,o),
(56,148,cs),
(62,88,o),
(96,32,o),
(147,-1,cs),
(183,-24,o),
(222,-32,o),
(254,-32,cs),
(276,-32,o),
(299,-28,o),
(320,-20,cs),
(369,-2,o),
(409,35,o),
(430,82,cs),
(442,108,o),
(448,137,o),
(448,166,cs),
(448,188,o),
(444,210,o),
(437,231,cs),
(420,281,o),
(384,324,o),
(337,347,cs),
(317,357,o),
(281,363,o),
(261,365,cs),
(240,367,o),
(219,372,o),
(209,376,cs),
(183,387,o),
(158,412,o),
(148,443,cs),
(145,453,o),
(143,463,o),
(143,474,cs),
(143,497,o),
(150,517,o),
(159,532,cs),
(174,556,o),
(201,576,o),
(233,582,cs),
(239,583,o),
(245,584,o),
(251,584,cs),
(269,584,o),
(287,579,o),
(303,570,cs),
(324,558,o),
(342,538,o),
(351,515,cs),
(356,503,o),
(359,489,o),
(359,475,cs),
(359,462,o),
(357,449,o),
(352,437,c)
);
}
);
width = 509;
}
);
note = eight;
unicode = 56;
},
{
glyphname = nine;
layers = (
{
hints = (
{
horizontal = 1;
place = (-32, 21);
target = up;
type = BottomGhost;
},
{
horizontal = 1;
place = (251, 60);
place = (251, 60);
type = Stem;
},
{
horizontal = 1;
place = (582, 58);
place = (582, 58);
type = Stem;
},
{
place = (45, 57);
place = (45, 57);
type = Stem;
},
{
place = (387, 60);
place = (387, 60);
type = Stem;
}
);
layerId = m01;
shapes = (
{
closed = 1;
nodes = (
(102,450,ls),
(105,482,o),
(120,514,o),
(145,539,cs),
(163,557,o),
(191,574,o),
(225,580,cs),
(233,581,o),
(241,582,o),
(249,582,cs),
(272,582,o),
(295,576,o),
(314,566,cs),
(331,556,o),
(349,540,o),
(362,517,cs),
(374,497,o),
(381,474,o),
(384,450,cs),
(386,438,o),
(387,425,o),
(387,412,cs),
(387,385,o),
(383,357,o),
(376,330,cs),
(361,273,o),
(332,218,o),
(294,168,cs),
(252,113,o),
(200,64,o),
(141,23,cs),
(132,17,o),
(128,8,o),
(128,-2,cs),
(128,-8,o),
(130,-14,o),
(133,-19,cs),
(139,-28,o),
(148,-32,o),
(158,-32,cs),
(164,-32,o),
(170,-30,o),
(175,-27,cs),
(239,18,o),
(296,71,o),
(342,131,cs),
(384,186,o),
(417,248,o),
(434,315,cs),
(442,347,o),
(447,380,o),
(447,413,cs),
(447,428,o),
(446,443,o),
(444,458,cs),
(440,488,o),
(431,518,o),
(415,546,cs),
(395,579,o),
(368,602,o),
(343,616,cs),
(315,632,o),
(283,640,o),
(251,640,cs),
(240,640,o),
(229,639,o),
(218,637,cs),
(175,629,o),
(136,608,o),
(107,579,cs),
(72,545,o),
(50,500,o),
(46,453,cs),
(45,447,o),
(45,442,o),
(45,437,cs),
(45,394,o),
(60,351,o),
(89,317,cs),
(130,269,o),
(172,251,o),
(227,251,cs),
(242,251,o),
(259,253,o),
(276,255,cs),
(290,258,o),
(300,270,o),
(300,284,cs),
(300,302,o),
(284,316,o),
(266,313,cs),
(258,312,o),
(250,311,o),
(242,311,cs),
(229,311,o),
(216,313,o),
(203,316,cs),
(180,322,o),
(153,335,o),
(132,359,cs),
(112,382,o),
(102,411,o),
(102,440,cs)
);
}
);
width = 500;
}
);
note = nine;
unicode = 57;
},
{
glyphname = colon;
layers = (
{
hints = (
{
horizontal = 1;
place = (-30, 134);
place = (-30, 134);
type = Stem;
},
{
horizontal = 1;
place = (346, 134);
place = (346, 134);
type = Stem;
},
{
place = (18, 134);
place = (18, 134);
type = Stem;
}
);
layerId = m01;
shapes = (
{
closed = 1;
nodes = (
(48,480,o),
(18,450,o),
(18,413,cs),
(18,376,o),
(48,346,o),
(85,346,cs),
(122,346,o),
(152,376,o),
(152,413,cs),
(152,450,o),
(122,480,o),
(85,480,cs)
);
},
{
closed = 1;
nodes = (
(48,104,o),
(18,74,o),
(18,37,cs),
(18,0,o),
(48,-30,o),
(85,-30,cs),
(122,-30,o),
(152,0,o),
(152,37,cs),
(152,74,o),
(122,104,o),
(85,104,cs)
);
}
);
width = 196;
}
);
note = colon;
unicode = 58;
},
{
glyphname = semicolon;
layers = (
{
hints = (
{
horizontal = 1;
place = (346, 134);
place = (346, 134);
type = Stem;
},
{
place = (25, 134);
place = (25, 134);
type = Stem;
},
{
place = (25, 137);
place = (25, 137);
type = Stem;
}
);
layerId = m01;
shapes = (
{
closed = 1;
nodes = (
(55,480,o),
(25,450,o),
(25,413,cs),
(25,376,o),
(55,346,o),
(92,346,cs),
(129,346,o),
(159,376,o),
(159,413,cs),
(159,450,o),
(129,480,o),
(92,480,cs)
);
},
{
closed = 1;
nodes = (
(92,103,ls),
(55,103,o),
(25,73,o),
(25,36,cs),
(25,6,o),
(44,-19,o),
(71,-28,c),
(62,-38,o),
(52,-48,o),
(42,-58,cs),
(36,-64,o),
(33,-71,o),
(33,-79,cs),
(33,-87,o),
(36,-94,o),
(41,-100,cs),
(47,-106,o),
(54,-109,o),
(62,-109,cs),
(70,-109,o),
(77,-106,o),
(83,-101,cs),
(95,-89,o),
(107,-77,o),
(119,-64,cs),
(129,-53,o),
(139,-41,o),
(148,-26,cs),
(158,-8,o),
(162,10,o),
(162,26,cs),
(162,30,ls),
(160,62,o),
(139,103,o),
(93,103,cs)
);
}
);
width = 194;
}
);
note = semicolon;
unicode = 59;
},
{
glyphname = less;
layers = (
{
hints = (
{
horizontal = 1;
place = (160, 325);
place = (160, 325);
type = Stem;
},
{
place = (20, 423);
place = (20, 423);
type = Stem;
}
);
layerId = m01;
shapes = (
{
closed = 1;
nodes = (
(40,349,ls),
(28,344,o),
(20,333,o),
(20,321,cs),
(20,303,o),
(35,290,o),
(50,290,cs),
(54,290,o),
(57,291,o),
(61,292,cs),
(423,426,ls),
(435,431,o),
(443,442,o),
(443,454,cs),
(443,472,o),
(428,485,o),
(413,485,cs),
(409,485,o),
(406,484,o),
(402,483,cs)
);
},
{
closed = 1;
nodes = (
(225,288,ls),
(222,289,o),
(218,290,o),
(214,290,cs),
(199,290,o),
(184,278,o),
(184,259,cs),
(184,247,o),
(192,236,o),
(204,231,cs),
(401,162,ls),
(404,161,o),
(408,160,o),
(412,160,cs),
(427,160,o),
(442,172,o),
(442,191,cs),
(442,203,o),
(434,214,o),
(422,219,cs)
);
}
);
width = 463;
}
);
note = less;
unicode = 60;
},
{
glyphname = equal;
layers = (
{
hints = (
{
horizontal = 1;
place = (195, 60);
place = (195, 60);
type = Stem;
},
{
horizontal = 1;
place = (368, 60);
place = (368, 60);
type = Stem;
},
{
place = (12, 374);
place = (12, 374);
type = Stem;
}
);
layerId = m01;
shapes = (
{
closed = 1;
nodes = (
(42,428,ls),
(25,428,o),
(12,415,o),
(12,398,cs),
(12,381,o),
(25,368,o),
(42,368,cs),
(356,368,ls),
(373,368,o),
(386,381,o),
(386,398,cs),
(386,415,o),
(373,428,o),
(356,428,cs)
);
},
{
closed = 1;
nodes = (
(42,255,ls),
(25,255,o),
(12,242,o),
(12,225,cs),
(12,208,o),
(25,195,o),
(42,195,cs),
(356,195,ls),
(373,195,o),
(386,208,o),
(386,225,cs),
(386,242,o),
(373,255,o),
(356,255,cs)
);
}
);
width = 409;
}
);
note = equal;
unicode = 61;
},
{
glyphname = greater;
layers = (
{
hints = (
{
horizontal = 1;
place = (160, 325);
place = (160, 325);
type = Stem;
},
{
place = (20, 423);
place = (20, 423);
type = Stem;
}
);
layerId = m01;
shapes = (
{
closed = 1;
nodes = (
(423,349,ls),
(435,344,o),
(443,333,o),
(443,321,cs),
(443,303,o),
(428,290,o),
(413,290,cs),
(409,290,o),
(406,291,o),
(402,292,cs),
(40,426,ls),
(28,431,o),
(20,442,o),
(20,454,cs),
(20,472,o),
(35,485,o),
(50,485,cs),
(54,485,o),
(57,484,o),
(61,483,cs)
);
},
{
closed = 1;
nodes = (
(238,288,ls),
(241,289,o),
(245,290,o),
(249,290,cs),
(264,290,o),
(279,278,o),
(279,259,cs),
(279,247,o),
(271,236,o),
(259,231,cs),
(62,162,ls),
(59,161,o),
(55,160,o),
(51,160,cs),
(36,160,o),
(21,172,o),
(21,191,cs),
(21,203,o),
(29,214,o),
(41,219,cs)
);
}
);
width = 483;
}
);
note = greater;
unicode = 62;
},
{
glyphname = question;
layers = (
{
hints = (
{
horizontal = 1;
place = (-31, 134);
place = (-31, 134);
type = Stem;
},
{
horizontal = 1;
place = (615, 59);
place = (615, 59);
type = Stem;
},
{
place = (68, 60);
place = (68, 60);
type = Stem;
},
{
place = (220, 58);
place = (220, 58);
type = Stem;
},
{
place = (34, 134);
place = (34, 134);
type = Stem;
}
);
layerId = m01;
shapes = (
{
closed = 1;
nodes = (
(128,206,ls),
(129,235,o),
(137,263,o),
(151,289,cs),
(170,325,o),
(210,369,o),
(231,399,cs),
(246,419,o),
(260,442,o),
(269,468,cs),
(275,486,o),
(278,505,o),
(278,524,cs),
(278,534,o),
(277,544,o),
(275,554,cs),
(268,591,o),
(246,624,o),
(215,646,cs),
(188,665,o),
(156,674,o),
(124,674,cs),
(110,674,ls),
(82,672,o),
(55,663,o),
(32,648,cs),
(23,642,o),
(18,632,o),
(18,622,cs),
(18,617,o),
(20,611,o),
(23,606,cs),
(29,597,o),
(39,592,o),
(49,592,cs),
(54,592,o),
(60,594,o),
(65,597,cs),
(80,607,o),
(98,613,o),
(116,615,cs),
(126,615,ls),
(143,615,o),
(164,611,o),
(182,598,cs),
(192,591,o),
(212,573,o),
(218,543,cs),
(219,537,o),
(220,531,o),
(220,525,cs),
(220,513,o),
(218,500,o),
(214,488,cs),
(208,470,o),
(198,452,o),
(185,434,cs),
(159,398,o),
(124,361,o),
(100,316,cs),
(79,276,o),
(69,250,o),
(68,154,cs),
(68,137,o),
(81,124,o),
(98,124,cs),
(115,124,o),
(128,137,o),
(128,154,cs)
);
},
{
closed = 1;
nodes = (
(64,103,o),
(34,73,o),
(34,36,cs),
(34,-1,o),
(64,-31,o),
(101,-31,cs),
(138,-31,o),
(168,-1,o),
(168,36,cs),
(168,73,o),
(138,103,o),
(101,103,cs)
);
}
);
width = 332;
}
);
note = question;
unicode = 63;
},
{
glyphname = at;
layers = (
{
hints = (
{
horizontal = 1;
place = (-71, 61);
place = (-71, 61);
type = Stem;
},
{
horizontal = 1;
place = (41, 59);
place = (41, 59);
type = Stem;
},
{
horizontal = 1;
place = (348, 60);
place = (348, 60);
type = Stem;
},
{
place = (-18, 61);
place = (-18, 61);
type = Stem;
},
{
place = (88, 58);
place = (88, 58);
type = Stem;
},
{
place = (285, 60);
place = (285, 60);
type = Stem;
},
{
place = (412, 56);
place = (412, 56);
type = Stem;
},
{
horizontal = 1;
place = (419, 56);
place = (419, 56);
type = Stem;
}
);
layerId = m01;
shapes = (
{
closed = 1;
nodes = (
(388,125,ls),
(381,110,o),
(374,104,o),
(372,102,cs),
(365,96,o),
(361,87,o),
(361,79,cs),
(361,72,o),
(363,66,o),
(367,60,cs),
(373,53,o),
(382,49,o),
(390,49,cs),
(397,49,o),
(403,51,o),
(409,55,cs),
(421,65,o),
(432,79,o),
(441,98,cs),
(460,136,o),
(466,177,o),
(468,216,cs),
(468,233,ls),
(468,285,o),
(455,339,o),
(422,383,cs),
(402,410,o),
(376,432,o),
(346,447,cs),
(316,462,o),
(284,471,o),
(252,474,cs),
(245,475,o),
(238,475,o),
(231,475,cs),
(197,475,o),
(163,469,o),
(131,456,cs),
(92,440,o),
(58,414,o),
(33,380,cs),
(11,350,o),
(-3,316,o),
(-11,281,cs),
(-16,259,o),
(-18,237,o),
(-18,215,cs),
(-18,202,o),
(-17,189,o),
(-15,176,cs),
(-11,141,o),
(-2,107,o),
(13,75,cs),
(28,43,o),
(50,13,o),
(78,-11,cs),
(109,-37,o),
(146,-55,o),
(185,-64,cs),
(206,-69,o),
(227,-71,o),
(248,-71,cs),
(266,-71,o),
(284,-70,o),
(301,-67,cs),
(363,-57,o),
(422,-32,o),
(473,3,cs),
(482,9,o),
(486,18,o),
(486,28,cs),
(486,34,o),
(484,40,o),
(481,45,cs),
(475,54,o),
(466,58,o),
(456,58,cs),
(450,58,o),
(444,56,o),
(439,53,cs),
(395,22,o),
(344,1,o),
(292,-7,cs),
(278,-9,o),
(263,-10,o),
(249,-10,cs),
(232,-10,o),
(215,-8,o),
(199,-4,cs),
(169,3,o),
(141,17,o),
(118,36,cs),
(97,54,o),
(80,77,o),
(68,102,cs),
(56,128,o),
(48,156,o),
(45,185,cs),
(44,196,o),
(43,207,o),
(43,218,cs),
(43,236,o),
(45,254,o),
(49,271,cs),
(55,299,o),
(66,325,o),
(82,347,cs),
(101,372,o),
(127,392,o),
(156,404,cs),
(180,414,o),
(206,419,o),
(233,419,cs),
(251,419,ls),
(276,417,o),
(301,410,o),
(323,399,cs),
(345,388,o),
(364,372,o),
(378,353,cs),
(405,317,o),
(412,273,o),
(412,238,cs),
(412,224,ls),
(410,190,o),
(404,157,o),
(391,130,cs)
);
},
{
closed = 1;
nodes = (
(285,95,ls),
(285,78,o),
(298,65,o),
(315,65,cs),
(332,65,o),
(345,78,o),
(345,95,cs),
(345,299,ls),
(345,313,o),
(343,327,o),
(338,340,cs),
(332,356,o),
(321,374,o),
(303,387,cs),
(291,396,o),
(278,401,o),
(265,404,cs),
(254,407,o),
(243,408,o),
(233,408,cs),
(229,408,ls),
(206,407,o),
(183,403,o),
(161,393,cs),
(146,386,o),
(132,376,o),
(121,364,cs),
(116,359,o),
(112,354,o),
(108,348,cs),
(105,343,o),
(103,337,o),
(103,332,cs),
(103,322,o),
(108,312,o),
(117,306,cs),
(122,303,o),
(128,301,o),
(133,301,cs),
(143,301,o),
(153,306,o),
(159,315,cs),
(165,324,l),
(171,330,o),
(178,335,o),
(186,339,cs),
(199,345,o),
(214,348,o),
(230,348,cs),
(234,348,ls),
(241,348,o),
(247,347,o),
(253,346,cs),
(259,345,o),
(264,343,o),
(268,340,cs),
(274,336,o),
(279,329,o),
(282,320,cs),
(284,314,o),
(285,307,o),
(285,300,cs)
);
},
{
closed = 1;
nodes = (
(173,256,ls),
(124,240,o),
(88,200,o),
(88,139,cs),
(88,131,l),
(91,108,o),
(95,92,o),
(110,74,cs),
(117,66,o),
(131,51,o),
(156,44,cs),
(164,42,o),
(172,41,o),
(181,41,cs),
(192,41,o),
(204,43,o),
(215,46,cs),
(251,58,ls),
(264,62,o),
(271,74,o),
(271,86,cs),
(271,106,o),
(257,116,o),
(242,116,cs),
(238,116,o),
(235,116,o),
(232,115,cs),
(197,103,ls),
(190,101,o),
(185,100,o),
(180,100,cs),
(176,100,o),
(173,100,o),
(170,101,cs),
(165,102,o),
(159,105,o),
(155,110,cs),
(149,117,o),
(147,124,o),
(146,133,cs),
(146,136,ls),
(146,160,o),
(155,185,o),
(189,196,c),
(191,198,l),
(252,218,ls),
(265,222,o),
(273,234,o),
(273,247,cs),
(273,265,o),
(259,277,o),
(243,277,cs),
(240,277,o),
(237,277,o),
(234,276,cs)
);
}
);
width = 475;
}
);
note = at;
unicode = 64;
},
{
glyphname = A;
layers = (
{
hints = (
{
horizontal = 1;
place = (-31, 21);
target = up;
type = BottomGhost;
},
{
horizontal = 1;
place = (196, 60);
place = (196, 60);
type = Stem;
},
{
horizontal = 1;
place = (670, -20);
target = down;
type = TopGhost;
},
{
place = (17, 610);
place = (17, 610);
type = Stem;
}
);
layerId = m01;
shapes = (
{
closed = 1;
nodes = (
(569,-13,ls),
(574,-24,o),
(585,-31,o),
(597,-31,cs),
(601,-31,o),
(605,-30,o),
(609,-28,cs),
(620,-23,o),
(627,-12,o),
(627,0,cs),
(627,4,o),
(626,8,o),
(624,12,cs),
(350,652,ls),
(345,663,o),
(334,670,o),
(322,670,cs),
(318,670,o),
(314,669,o),
(310,667,cs),
(299,662,o),
(292,651,o),
(292,639,cs),
(292,635,o),
(293,631,o),
(295,627,cs)
);
},
{
closed = 1;
nodes = (
(20,12,ls),
(18,8,o),
(17,4,o),
(17,-1,cs),
(17,-16,o),
(29,-31,o),
(47,-31,cs),
(59,-31,o),
(70,-24,o),
(75,-13,cs),
(297,505,ls),
(299,509,o),
(300,513,o),
(300,518,cs),
(300,533,o),
(288,548,o),
(270,548,cs),
(258,548,o),
(247,541,o),
(242,530,cs)
);
},
{
closed = 1;
nodes = (
(241,256,ls),
(224,256,o),
(211,243,o),
(211,226,cs),
(211,209,o),
(224,196,o),
(241,196,cs),
(401,196,ls),
(418,196,o),
(431,209,o),
(431,226,cs),
(431,243,o),
(418,256,o),
(401,256,cs)
);
}
);
width = 654;
}
);
note = A;
unicode = 65;
},
{
glyphname = B;
layers = (
{
hints = (
{
horizontal = 1;
place = (-30, 60);
place = (-30, 60);
type = Stem;
},
{
horizontal = 1;
place = (330, 60);
place = (330, 60);
type = Stem;
},
{
horizontal = 1;
place = (609, 60);
place = (609, 60);
type = Stem;
},
{
place = (85, 60);
place = (85, 60);
type = Stem;
},
{
place = (496, 60);
place = (496, 60);
type = Stem;
},
{
place = (554, 60);
place = (554, 60);
type = Stem;
}
);
layerId = m01;
shapes = (
{
closed = 1;
nodes = (
(85,-1,ls),
(85,-18,o),
(98,-31,o),
(115,-31,cs),
(132,-31,o),
(145,-18,o),
(145,-1,cs),
(145,639,ls),
(145,656,o),
(132,669,o),
(115,669,cs),
(98,669,o),
(85,656,o),
(85,639,cs)
);
},
{
closed = 1;
nodes = (
(208,669,ls),
(191,669,o),
(178,656,o),
(178,639,cs),
(178,622,o),
(191,609,o),
(208,609,cs),
(361,609,ls),
(464,609,o),
(496,560,o),
(496,493,cs),
(496,433,o),
(452,390,o),
(361,390,cs),
(217,390,ls),
(200,390,o),
(187,377,o),
(187,360,cs),
(187,343,o),
(200,330,o),
(217,330,cs),
(361,330,ls),
(487,330,o),
(556,399,o),
(556,493,cs),
(556,580,o),
(510,669,o),
(361,669,cs)
);
},
{
closed = 1;
nodes = (
(554,185,ls),
(554,61,o),
(461,30,o),
(376,30,cs),
(215,30,ls),
(198,30,o),
(185,17,o),
(185,0,cs),
(185,-17,o),
(198,-30,o),
(215,-30,cs),
(376,-30,ls),
(522,-30,o),
(614,49,o),
(614,185,c),
(615,186,l),
(615,253,o),
(592,309,o),
(552,344,cs),
(546,349,o),
(539,352,o),
(532,352,cs),
(523,352,o),
(515,348,o),
(509,341,cs),
(504,335,o),
(501,328,o),
(501,321,cs),
(501,312,o),
(505,304,o),
(512,298,cs),
(536,277,o),
(554,240,o),
(554,186,cs)
);
}
);
width = 677;
}
);
note = B;
unicode = 66;
},
{
glyphname = C;
layers = (
{
hints = (
{
horizontal = 1;
place = (-28, 58);
place = (-28, 58);
type = Stem;
},
{
horizontal = 1;
place = (609, 61);
place = (609, 61);
type = Stem;
},
{
place = (36, 60);
place = (36, 60);
type = Stem;
}
);
layerId = m01;
shapes = (
{
closed = 1;
nodes = (
(36,304,ls),
(38,250,o),
(51,196,o),
(76,147,cs),
(102,96,o),
(142,52,o),
(191,21,cs),
(239,-10,o),
(296,-27,o),
(353,-28,cs),
(357,-28,ls),
(433,-30,o),
(516,-4,o),
(582,62,cs),
(588,68,o),
(591,76,o),
(591,84,cs),
(591,91,o),
(588,99,o),
(582,105,cs),
(576,111,o),
(568,114,o),
(561,114,cs),
(553,114,o),
(545,111,o),
(539,105,cs),
(488,54,o),
(420,30,o),
(359,30,cs),
(355,30,ls),
(309,31,o),
(263,45,o),
(224,70,cs),
(185,95,o),
(152,132,o),
(130,174,cs),
(109,214,o),
(98,260,o),
(96,306,cs),
(96,316,ls),
(96,358,o),
(104,400,o),
(120,439,cs),
(138,484,o),
(171,536,o),
(224,571,cs),
(257,592,o),
(302,609,o),
(354,609,cs),
(406,609,o),
(451,592,o),
(484,571,cs),
(489,568,o),
(495,566,o),
(500,566,cs),
(510,566,o),
(520,571,o),
(526,580,cs),
(529,585,o),
(531,591,o),
(531,596,cs),
(531,606,o),
(526,616,o),
(517,622,cs),
(469,653,o),
(412,670,o),
(354,670,cs),
(296,670,o),
(239,653,o),
(191,622,cs),
(132,584,o),
(89,527,o),
(64,464,cs),
(45,417,o),
(36,367,o),
(36,317,cs)
);
}
);
width = 644;
}
);
note = C;
unicode = 67;
},
{
glyphname = D;
layers = (
{
hints = (
{
horizontal = 1;
place = (-30, 60);
place = (-30, 60);
type = Stem;
},
{
horizontal = 1;
place = (610, 60);
place = (610, 60);
type = Stem;
},
{
place = (84, 60);
place = (84, 60);
type = Stem;
},
{
place = (495, 58);
place = (495, 58);
type = Stem;
}
);
layerId = m01;
shapes = (
{
closed = 1;
nodes = (
(84,2,ls),
(84,-15,o),
(97,-28,o),
(114,-28,cs),
(131,-28,o),
(144,-15,o),
(144,2,cs),
(144,642,ls),
(144,659,o),
(131,672,o),
(114,672,cs),
(97,672,o),
(84,659,o),
(84,642,cs)
);
},
{
closed = 1;
nodes = (
(240,610,ls),
(253,609,o),
(265,608,o),
(278,606,cs),
(310,601,o),
(340,592,o),
(367,578,cs),
(394,564,o),
(418,544,o),
(437,520,cs),
(458,493,o),
(473,461,o),
(482,427,cs),
(491,392,o),
(495,355,o),
(495,318,cs),
(495,316,ls),
(495,278,o),
(491,241,o),
(481,206,cs),
(471,170,o),
(455,136,o),
(432,109,cs),
(402,73,o),
(364,52,o),
(331,41,cs),
(312,35,o),
(292,31,o),
(272,30,cs),
(259,30,l),
(199,30,ls),
(182,30,o),
(169,17,o),
(169,0,cs),
(169,-17,o),
(182,-30,o),
(199,-30,cs),
(244,-30,l),
(259,-30,l),
(275,-30,ls),
(300,-29,o),
(325,-24,o),
(349,-16,cs),
(392,-2,o),
(440,25,o),
(478,71,cs),
(507,106,o),
(526,148,o),
(538,191,cs),
(549,233,o),
(553,276,o),
(553,318,cs),
(553,320,ls),
(553,361,o),
(549,403,o),
(538,444,cs),
(527,485,o),
(509,525,o),
(482,559,cs),
(458,590,o),
(427,615,o),
(393,633,cs),
(359,651,o),
(322,662,o),
(285,668,cs),
(271,669,o),
(266,670,o),
(242,670,cs),
(206,670,ls),
(189,670,o),
(176,657,o),
(176,640,cs),
(176,623,o),
(189,610,o),
(206,610,cs)
);
}
);
width = 613;
}
);
note = D;
unicode = 68;
},
{
glyphname = E;
layers = (
{
hints = (
{
horizontal = 1;
place = (-30, 60);
place = (-30, 60);
type = Stem;
},
{
horizontal = 1;
place = (314, 60);
place = (314, 60);
type = Stem;
},
{
horizontal = 1;
place = (610, 60);
place = (610, 60);
type = Stem;
},
{
place = (85, 60);
place = (85, 60);
type = Stem;
}
);
layerId = m01;
shapes = (
{
closed = 1;
nodes = (
(85,0,ls),
(85,-17,o),
(98,-30,o),
(115,-30,cs),
(132,-30,o),
(145,-17,o),
(145,0,cs),
(145,640,ls),
(145,657,o),
(132,670,o),
(115,670,cs),
(98,670,o),
(85,657,o),
(85,640,cs)
);
},
{
closed = 1;
nodes = (
(201,670,ls),
(184,670,o),
(171,657,o),
(171,640,cs),
(171,623,o),
(184,610,o),
(201,610,cs),
(518,610,ls),
(535,610,o),
(548,623,o),
(548,640,cs),
(548,657,o),
(535,670,o),
(518,670,cs)
);
},
{
closed = 1;
nodes = (
(201,374,ls),
(184,374,o),
(171,361,o),
(171,344,cs),
(171,327,o),
(184,314,o),
(201,314,cs),
(459,314,ls),
(476,314,o),
(489,327,o),
(489,344,cs),
(489,361,o),
(476,374,o),
(459,374,cs)
);
},
{
closed = 1;
nodes = (
(199,30,ls),
(182,30,o),
(169,17,o),
(169,0,cs),
(169,-17,o),
(182,-30,o),
(199,-30,cs),
(519,-30,ls),
(536,-30,o),
(549,-17,o),
(549,0,cs),
(549,17,o),
(536,30,o),
(519,30,cs)
);
}
);
width = 611;
}
);
note = E;
unicode = 69;
},
{
glyphname = F;
layers = (
{
hints = (
{
horizontal = 1;
place = (-30, 21);
target = up;
type = BottomGhost;
},
{
horizontal = 1;
place = (314, 60);
place = (314, 60);
type = Stem;
},
{
horizontal = 1;
place = (610, 60);
place = (610, 60);
type = Stem;
},
{
place = (85, 60);
place = (85, 60);
type = Stem;
}
);
layerId = m01;
shapes = (
{
closed = 1;
nodes = (
(85,0,ls),
(85,-17,o),
(98,-30,o),
(115,-30,cs),
(132,-30,o),
(145,-17,o),
(145,0,cs),
(145,640,ls),
(145,657,o),
(132,670,o),
(115,670,cs),
(98,670,o),
(85,657,o),
(85,640,cs)
);
},
{
closed = 1;
nodes = (
(201,670,ls),
(184,670,o),
(171,657,o),
(171,640,cs),
(171,623,o),
(184,610,o),
(201,610,cs),
(502,610,ls),
(519,610,o),
(532,623,o),
(532,640,cs),
(532,657,o),
(519,670,o),
(502,670,cs)
);
},
{
closed = 1;
nodes = (
(201,374,ls),
(184,374,o),
(171,361,o),
(171,344,cs),
(171,327,o),
(184,314,o),
(201,314,cs),
(443,314,ls),
(460,314,o),
(473,327,o),
(473,344,cs),
(473,361,o),
(460,374,o),
(443,374,cs)
);
}
);
width = 571;
}
);
note = F;
unicode = 70;
},
{
glyphname = G;
layers = (
{
hints = (
{
horizontal = 1;
place = (-28, 61);
place = (-28, 61);
type = Stem;
},
{
horizontal = 1;
place = (281, 61);
place = (281, 61);
type = Stem;
},
{
horizontal = 1;
place = (613, 57);
place = (613, 57);
type = Stem;
},
{
place = (40, 59);
place = (40, 59);
type = Stem;
},
{
place = (554, 60);
place = (554, 60);
type = Stem;
}
);
layerId = m01;
shapes = (
{
closed = 1;
nodes = (
(614,311,ls),
(614,328,o),
(601,341,o),
(584,341,cs),
(567,341,o),
(554,328,o),
(554,311,cs),
(554,209,ls),
(554,193,o),
(552,177,o),
(550,169,cs),
(541,126,o),
(511,87,o),
(472,64,cs),
(455,54,o),
(437,46,o),
(418,41,cs),
(399,36,o),
(379,33,o),
(359,33,cs),
(344,33,o),
(329,35,o),
(314,38,cs),
(299,41,o),
(284,45,o),
(270,51,cs),
(256,57,o),
(242,64,o),
(229,72,cs),
(216,80,o),
(204,90,o),
(193,101,cs),
(181,112,o),
(170,124,o),
(160,137,cs),
(150,150,o),
(142,163,o),
(135,177,cs),
(128,190,o),
(122,204,o),
(117,218,cs),
(112,232,o),
(108,247,o),
(105,262,cs),
(102,277,o),
(100,292,o),
(99,307,cs),
(99,313,l),
(99,319,ls),
(99,333,o),
(100,347,o),
(102,361,cs),
(104,375,o),
(107,389,o),
(111,403,cs),
(115,417,o),
(119,430,o),
(124,443,cs),
(131,461,o),
(140,478,o),
(150,494,cs),
(183,547,o),
(255,613,o),
(358,613,cs),
(400,613,o),
(442,598,o),
(486,571,cs),
(491,568,o),
(497,566,o),
(502,566,cs),
(512,566,o),
(522,571,o),
(528,580,cs),
(531,585,o),
(533,591,o),
(533,596,cs),
(533,606,o),
(528,616,o),
(519,622,cs),
(503,632,o),
(486,641,o),
(468,648,cs),
(450,655,o),
(432,660,o),
(413,664,cs),
(394,668,o),
(375,670,o),
(356,670,cs),
(228,670,o),
(144,596,o),
(98,523,cs),
(86,504,o),
(76,484,o),
(67,463,cs),
(61,447,o),
(56,431,o),
(52,415,cs),
(48,399,o),
(45,383,o),
(43,366,cs),
(41,349,o),
(40,332,o),
(40,315,cs),
(40,309,l),
(40,303,ls),
(41,285,o),
(43,267,o),
(46,249,cs),
(49,231,o),
(54,213,o),
(60,196,cs),
(66,179,o),
(73,162,o),
(81,146,cs),
(90,129,o),
(100,113,o),
(112,98,cs),
(124,83,o),
(137,69,o),
(151,56,cs),
(165,43,o),
(180,31,o),
(196,21,cs),
(212,11,o),
(229,2,o),
(247,-5,cs),
(265,-12,o),
(283,-18,o),
(302,-22,cs),
(321,-26,o),
(340,-28,o),
(359,-28,cs),
(384,-28,o),
(409,-25,o),
(433,-18,cs),
(457,-11,o),
(481,-1,o),
(503,12,cs),
(553,42,o),
(596,93,o),
(610,157,cs),
(614,178,o),
(614,205,o),
(614,210,cs)
);
},
{
closed = 1;
nodes = (
(301,342,ls),
(284,342,o),
(270,329,o),
(270,312,cs),
(270,295,o),
(283,281,o),
(300,281,cs),
(489,281,ls),
(506,280,o),
(520,293,o),
(520,310,cs),
(520,327,o),
(507,341,o),
(490,342,cs)
);
}
);
width = 672;
}
);
note = G;
unicode = 71;
},
{
glyphname = H;
layers = (
{
hints = (
{
horizontal = 1;
place = (-30, 21);
target = up;
type = BottomGhost;
},
{
horizontal = 1;
place = (314, 60);
place = (314, 60);
type = Stem;
},
{
horizontal = 1;
place = (670, -20);
target = down;
type = TopGhost;
},
{
place = (84, 60);
place = (84, 60);
type = Stem;
},
{
place = (520, 60);
place = (520, 60);
type = Stem;
}
);
layerId = m01;
shapes = (
{
closed = 1;
nodes = (
(84,0,ls),
(84,-17,o),
(97,-30,o),
(114,-30,cs),
(131,-30,o),
(144,-17,o),
(144,0,cs),
(144,640,ls),
(144,657,o),
(131,670,o),
(114,670,cs),
(97,670,o),
(84,657,o),
(84,640,cs)
);
},
{
closed = 1;
nodes = (
(520,0,ls),
(520,-17,o),
(533,-30,o),
(550,-30,cs),
(567,-30,o),
(580,-17,o),
(580,0,cs),
(580,640,ls),
(580,657,o),
(567,670,o),
(550,670,cs),
(533,670,o),
(520,657,o),
(520,640,cs)
);
},
{
closed = 1;
nodes = (
(200,374,ls),
(183,374,o),
(170,361,o),
(170,344,cs),
(170,327,o),
(183,314,o),
(200,314,cs),
(466,314,ls),
(483,314,o),
(496,327,o),
(496,344,cs),
(496,361,o),
(483,374,o),
(466,374,cs)
);
}
);
width = 665;
}
);
note = H;
unicode = 72;
},
{
glyphname = I;
layers = (
{
hints = (
{
horizontal = 1;
place = (-30, 21);
target = up;
type = BottomGhost;
},
{
horizontal = 1;
place = (670, -20);
target = down;
type = TopGhost;
},
{
place = (85, 60);
place = (85, 60);
type = Stem;
}
);
layerId = m01;
shapes = (
{
closed = 1;
nodes = (
(85,0,ls),
(85,-17,o),
(98,-30,o),
(115,-30,cs),
(132,-30,o),
(145,-17,o),
(145,0,cs),
(145,640,ls),
(145,657,o),
(132,670,o),
(115,670,cs),
(98,670,o),
(85,657,o),
(85,640,cs)
);
}
);
width = 230;
}
);
note = I;
unicode = 73;
},
{
glyphname = J;
layers = (
{
hints = (
{
horizontal = 1;
place = (-29, 57);
place = (-29, 57);
type = Stem;
},
{
horizontal = 1;
place = (670, -20);
target = down;
type = TopGhost;
},
{
place = (40, 59);
place = (40, 59);
type = Stem;
},
{
place = (426, 60);
place = (426, 60);
type = Stem;
}
);
layerId = m01;
shapes = (
{
closed = 1;
nodes = (
(426,203,ls),
(426,186,o),
(439,173,o),
(456,173,cs),
(473,173,o),
(486,186,o),
(486,203,cs),
(486,640,ls),
(486,657,o),
(473,670,o),
(456,670,cs),
(439,670,o),
(426,657,o),
(426,640,cs)
);
},
{
closed = 1;
nodes = (
(263,-29,ls),
(324,-29,o),
(383,-3,o),
(425,41,c),
(425,40,l),
(436,52,o),
(446,65,o),
(454,79,cs),
(457,84,o),
(458,89,o),
(458,93,cs),
(458,108,o),
(447,123,o),
(429,123,cs),
(418,123,o),
(408,117,o),
(403,108,cs),
(397,98,o),
(390,88,o),
(382,79,cs),
(352,47,o),
(308,28,o),
(264,28,cs),
(263,28,ls),
(227,28,o),
(185,41,o),
(152,71,cs),
(119,101,o),
(102,142,o),
(99,178,cs),
(98,193,o),
(84,205,o),
(69,205,cs),
(52,205,o),
(39,190,o),
(40,173,cs),
(45,118,o),
(71,66,o),
(112,29,cs),
(153,-8,o),
(207,-29,o),
(262,-29,cs)
);
}
);
width = 565;
}
);
note = J;
unicode = 74;
},
{
glyphname = K;
layers = (
{
hints = (
{
horizontal = 1;
place = (-30, 21);
target = up;
type = BottomGhost;
},
{
horizontal = 1;
place = (670, -20);
target = down;
type = TopGhost;
},
{
place = (85, 60);
place = (85, 60);
type = Stem;
}
);
layerId = m01;
shapes = (
{
closed = 1;
nodes = (
(169,372,ls),
(163,366,o),
(160,358,o),
(160,351,cs),
(160,343,o),
(163,335,o),
(169,329,cs),
(175,323,o),
(183,320,o),
(191,320,cs),
(198,320,o),
(206,323,o),
(212,329,cs),
(503,620,ls),
(509,626,o),
(512,634,o),
(512,642,cs),
(512,649,o),
(509,657,o),
(503,663,cs),
(497,669,o),
(489,672,o),
(482,672,cs),
(474,672,o),
(466,669,o),
(460,663,cs)
);
},
{
closed = 1;
nodes = (
(85,0,ls),
(85,-17,o),
(98,-30,o),
(115,-30,cs),
(132,-30,o),
(145,-17,o),
(145,0,cs),
(145,640,ls),
(145,657,o),
(132,670,o),
(115,670,cs),
(98,670,o),
(85,657,o),
(85,640,cs)
);
},
{
closed = 1;
nodes = (
(520,-21,ls),
(526,-27,o),
(534,-30,o),
(542,-30,cs),
(549,-30,o),
(557,-27,o),
(563,-21,cs),
(569,-15,o),
(572,-7,o),
(572,1,cs),
(572,8,o),
(569,16,o),
(563,22,cs),
(277,308,ls),
(271,314,o),
(263,317,o),
(256,317,cs),
(248,317,o),
(240,314,o),
(234,308,cs),
(228,302,o),
(225,294,o),
(225,287,cs),
(225,279,o),
(228,271,o),
(234,265,cs)
);
}
);
width = 613;
}
);
note = K;
unicode = 75;
},
{
glyphname = L;
layers = (
{
hints = (
{
horizontal = 1;
place = (-30, 60);
place = (-30, 60);
type = Stem;
},
{
horizontal = 1;
place = (670, -20);
target = down;
type = TopGhost;
},
{
place = (85, 60);
place = (85, 60);
type = Stem;
}
);
layerId = m01;
shapes = (
{
closed = 1;
nodes = (
(85,0,ls),
(85,-17,o),
(98,-30,o),
(115,-30,cs),
(132,-30,o),
(145,-17,o),
(145,0,cs),
(145,640,ls),
(145,657,o),
(132,670,o),
(115,670,cs),
(98,670,o),
(85,657,o),
(85,640,cs)
);
},
{
closed = 1;
nodes = (
(215,30,ls),
(198,30,o),
(185,17,o),
(185,0,cs),
(185,-17,o),
(198,-30,o),
(215,-30,cs),
(516,-30,ls),
(533,-30,o),
(546,-17,o),
(546,0,cs),
(546,17,o),
(533,30,o),
(516,30,cs)
);
}
);
width = 558;
}
);
note = L;
unicode = 76;
},
{
glyphname = M;
layers = (
{
hints = (
{
horizontal = 1;
place = (-30, 21);
target = up;
type = BottomGhost;
},
{
horizontal = 1;
place = (671, -20);
target = down;
type = TopGhost;
},
{
place = (85, 60);
place = (85, 60);
type = Stem;
},
{
place = (750, 60);
place = (750, 60);
type = Stem;
},
{
horizontal = 1;
place = (-31, 21);
target = up;
type = BottomGhost;
},
{
horizontal = 1;
place = (670, -20);
target = down;
type = TopGhost;
}
);
layerId = m01;
shapes = (
{
closed = 1;
nodes = (
(486,140,ls),
(484,135,o),
(482,131,o),
(482,126,cs),
(482,110,o),
(494,95,o),
(513,95,cs),
(524,95,o),
(534,102,o),
(540,112,cs),
(807,626,ls),
(809,631,o),
(811,635,o),
(811,640,cs),
(811,656,o),
(799,671,o),
(780,671,cs),
(769,671,o),
(759,664,o),
(753,654,cs)
);
},
{
closed = 1;
nodes = (
(85,0,ls),
(85,-17,o),
(98,-30,o),
(115,-30,cs),
(132,-30,o),
(145,-17,o),
(145,0,cs),
(145,640,ls),
(145,657,o),
(132,670,o),
(115,670,cs),
(98,670,o),
(85,657,o),
(85,640,cs)
);
},
{
closed = 1;
nodes = (
(414,-14,ls),
(419,-25,o),
(430,-31,o),
(441,-31,cs),
(445,-31,o),
(450,-30,o),
(454,-28,cs),
(465,-23,o),
(471,-12,o),
(471,-1,cs),
(471,3,o),
(470,8,o),
(468,12,cs),
(228,487,ls),
(223,498,o),
(212,504,o),
(201,504,cs),
(197,504,o),
(192,503,o),
(188,501,cs),
(177,496,o),
(171,485,o),
(171,474,cs),
(171,470,o),
(172,465,o),
(174,461,cs)
);
},
{
closed = 1;
nodes = (
(750,0,ls),
(750,-17,o),
(763,-30,o),
(780,-30,cs),
(797,-30,o),
(810,-17,o),
(810,0,cs),
(810,446,ls),
(810,463,o),
(797,476,o),
(780,476,cs),
(763,476,o),
(750,463,o),
(750,446,cs)
);
}
);
width = 894;
}
);
note = M;
unicode = 77;
},
{
glyphname = N;
layers = (
{
hints = (
{
horizontal = 1;
place = (-31, 21);
target = up;
type = BottomGhost;
},
{
horizontal = 1;
place = (670, -20);
target = down;
type = TopGhost;
},
{
place = (86, 60);
place = (86, 60);
type = Stem;
},
{
place = (519, 60);
place = (519, 60);
type = Stem;
},
{
horizontal = 1;
place = (-30, 21);
target = up;
type = BottomGhost;
}
);
layerId = m01;
shapes = (
{
closed = 1;
nodes = (
(524,-17,ls),
(530,-26,o),
(540,-31,o),
(550,-31,cs),
(555,-31,o),
(561,-29,o),
(566,-26,cs),
(575,-20,o),
(580,-10,o),
(580,0,cs),
(580,5,o),
(578,11,o),
(575,16,cs),
(142,656,ls),
(136,665,o),
(126,670,o),
(116,670,cs),
(111,670,o),
(105,668,o),
(100,665,cs),
(91,659,o),
(86,649,o),
(86,639,cs),
(86,634,o),
(88,628,o),
(91,623,cs)
);
},
{
closed = 1;
nodes = (
(519,200,ls),
(519,183,o),
(532,170,o),
(549,170,cs),
(566,170,o),
(579,183,o),
(579,200,cs),
(579,640,ls),
(579,657,o),
(566,670,o),
(549,670,cs),
(532,670,o),
(519,657,o),
(519,640,cs)
);
},
{
closed = 1;
nodes = (
(86,0,ls),
(86,-17,o),
(99,-30,o),
(116,-30,cs),
(133,-30,o),
(146,-17,o),
(146,0,cs),
(146,440,ls),
(146,457,o),
(133,470,o),
(116,470,cs),
(99,470,o),
(86,457,o),
(86,440,cs)
);
}
);
width = 663;
}
);
note = N;
unicode = 78;
},
{
glyphname = O;
layers = (
{
hints = (
{
horizontal = 1;
place = (-30, 60);
place = (-30, 60);
type = Stem;
},
{
horizontal = 1;
place = (610, 60);
place = (610, 60);
type = Stem;
},
{
place = (37, 59);
place = (37, 59);
type = Stem;
},
{
place = (624, 61);
place = (624, 61);
type = Stem;
}
);
layerId = m01;
shapes = (
{
closed = 1;
nodes = (
(180,670,o),
(37,511,o),
(37,320,cs),
(37,129,o),
(180,-30,o),
(361,-30,cs),
(542,-30,o),
(685,129,o),
(685,320,cs),
(685,511,o),
(542,670,o),
(361,670,cs)
);
},
{
closed = 1;
nodes = (
(504,610,o),
(624,482,o),
(624,320,cs),
(624,158,o),
(504,30,o),
(360,30,cs),
(216,30,o),
(96,158,o),
(96,320,cs),
(96,482,o),
(216,610,o),
(360,610,cs)
);
}
);
width = 737;
}
);
note = O;
unicode = 79;
},
{
glyphname = P;
layers = (
{
hints = (
{
horizontal = 1;
place = (-30, 21);
target = up;
type = BottomGhost;
},
{
horizontal = 1;
place = (269, 60);
place = (269, 60);
type = Stem;
},
{
horizontal = 1;
place = (610, 60);
place = (610, 60);
type = Stem;
},
{
place = (86, 60);
place = (86, 60);
type = Stem;
},
{
place = (500, 60);
place = (500, 60);
type = Stem;
}
);
layerId = m01;
shapes = (
{
closed = 1;
nodes = (
(86,0,ls),
(86,-17,o),
(99,-30,o),
(116,-30,cs),
(133,-30,o),
(146,-17,o),
(146,0,cs),
(146,640,ls),
(146,657,o),
(133,670,o),
(116,670,cs),
(99,670,o),
(86,657,o),
(86,640,cs)
);
},
{
closed = 1;
nodes = (
(217,670,ls),
(200,670,o),
(187,657,o),
(187,640,cs),
(187,623,o),
(200,610,o),
(217,610,cs),
(362,610,ls),
(472,610,o),
(500,529,o),
(500,464,cs),
(500,378,o),
(450,329,o),
(374,329,cs),
(220,329,ls),
(203,329,o),
(190,316,o),
(190,299,cs),
(190,282,o),
(203,269,o),
(220,269,cs),
(374,269,ls),
(478,269,o),
(560,339,o),
(560,464,cs),
(560,572,o),
(499,670,o),
(362,670,cs)
);
}
);
width = 606;
}
);
note = P;
unicode = 80;
},
{
glyphname = Q;
layers = (
{
hints = (
{
horizontal = 1;
place = (-32, 61);
place = (-32, 61);
type = Stem;
},
{
horizontal = 1;
place = (609, 59);
place = (609, 59);
type = Stem;
},
{
place = (37, 59);
place = (37, 59);
type = Stem;
},
{
place = (624, 61);
place = (624, 61);
type = Stem;
}
);
layerId = m01;
shapes = (
{
closed = 1;
nodes = (
(361,-30,l),
(405,-30,o),
(447,-21,o),
(485,-4,cs),
(496,1,o),
(503,12,o),
(503,24,cs),
(503,28,o),
(502,32,o),
(500,36,cs),
(495,47,o),
(484,54,o),
(472,54,cs),
(468,54,o),
(464,53,o),
(460,51,cs),
(429,37,o),
(395,29,o),
(360,29,cs),
(216,29,o),
(96,157,o),
(96,319,cs),
(96,481,o),
(216,609,o),
(360,609,cs),
(504,609,o),
(624,481,o),
(624,319,cs),
(624,266,o),
(611,216,o),
(588,173,cs),
(586,168,o),
(584,164,o),
(584,159,cs),
(584,143,o),
(596,128,o),
(615,128,cs),
(626,128,o),
(636,135,o),
(642,145,cs),
(669,196,o),
(685,255,o),
(685,318,cs),
(685,509,o),
(542,668,o),
(361,668,cs),
(180,668,o),
(37,509,o),
(37,318,cs),
(37,127,o),
(180,-32,o),
(361,-32,c)
);
},
{
closed = 1;
nodes = (
(608,-22,ls),
(614,-28,o),
(622,-31,o),
(630,-31,cs),
(637,-31,o),
(645,-28,o),
(651,-22,cs),
(657,-16,o),
(660,-8,o),
(660,-1,cs),
(660,7,o),
(657,15,o),
(651,21,cs),
(400,272,ls),
(394,278,o),
(386,281,o),
(379,281,cs),
(371,281,o),
(363,278,o),
(357,272,cs),
(351,266,o),
(348,258,o),
(348,251,cs),
(348,243,o),
(351,235,o),
(357,229,cs)
);
}
);
width = 748;
}
);
note = Q;
unicode = 81;
},
{
glyphname = R;
layers = (
{
hints = (
{
horizontal = 1;
place = (-30, 21);
target = up;
type = BottomGhost;
},
{
horizontal = 1;
place = (309, 60);
place = (309, 60);
type = Stem;
},
{
horizontal = 1;
place = (610, 60);
place = (610, 60);
type = Stem;
},
{
place = (86, 60);
place = (86, 60);
type = Stem;
},
{
place = (501, 60);
place = (501, 60);
type = Stem;
}
);
layerId = m01;
shapes = (
{
closed = 1;
nodes = (
(86,0,ls),
(86,-17,o),
(99,-30,o),
(116,-30,cs),
(133,-30,o),
(146,-17,o),
(146,0,cs),
(146,640,ls),
(146,657,o),
(133,670,o),
(116,670,cs),
(99,670,o),
(86,657,o),
(86,640,cs)
);
},
{
closed = 1;
nodes = (
(374,670,l),
(216,670,ls),
(199,670,o),
(186,657,o),
(186,640,cs),
(186,623,o),
(199,610,o),
(216,610,cs),
(374,610,ls),
(470,610,o),
(501,558,o),
(501,488,cs),
(501,426,o),
(476,369,o),
(376,369,cs),
(222,369,ls),
(205,369,o),
(192,356,o),
(192,339,cs),
(192,322,o),
(205,309,o),
(222,309,cs),
(376,309,ls),
(485,309,o),
(561,367,o),
(561,487,cs),
(561,608,o),
(486,669,o),
(374,669,c)
);
},
{
closed = 1;
nodes = (
(544,-22,ls),
(550,-27,o),
(557,-30,o),
(565,-30,cs),
(573,-30,o),
(580,-27,o),
(586,-21,cs),
(591,-15,o),
(594,-8,o),
(594,0,cs),
(594,8,o),
(591,15,o),
(585,21,cs),
(311,281,ls),
(305,286,o),
(298,289,o),
(290,289,cs),
(282,289,o),
(275,286,o),
(269,280,cs),
(264,274,o),
(261,267,o),
(261,259,cs),
(261,251,o),
(264,244,o),
(270,238,cs)
);
}
);
width = 650;
}
);
note = R;
unicode = 82;
},
{
glyphname = S;
layers = (
{
hints = (
{
horizontal = 1;
place = (-29, 58);
place = (-29, 58);
type = Stem;
},
{
horizontal = 1;
place = (609, 60);
place = (609, 60);
type = Stem;
},
{
place = (49, 62);
place = (49, 62);
type = Stem;
},
{
place = (460, 61);
place = (460, 61);
type = Stem;
}
);
layerId = m01;
shapes = (
{
closed = 1;
nodes = (
(290,669,ls),
(266,669,o),
(241,666,o),
(217,658,cs),
(192,649,o),
(168,635,o),
(149,615,cs),
(113,578,o),
(106,533,o),
(106,514,cs),
(106,497,o),
(120,484,o),
(137,484,cs),
(153,484,o),
(166,497,o),
(167,513,cs),
(168,525,o),
(172,551,o),
(194,573,cs),
(206,585,o),
(222,594,o),
(239,600,cs),
(256,606,o),
(274,609,o),
(293,609,cs),
(295,609,ls),
(365,609,o),
(434,563,o),
(438,490,cs),
(439,474,o),
(452,461,o),
(468,461,cs),
(486,461,o),
(500,475,o),
(499,493,cs),
(496,548,o),
(466,597,o),
(426,627,cs),
(387,656,o),
(339,669,o),
(292,669,cs)
);
},
{
closed = 1;
nodes = (
(155,461,o),
(149,459,o),
(144,456,cs),
(135,450,o),
(130,441,o),
(130,431,cs),
(130,426,o),
(132,420,o),
(135,415,cs),
(143,402,o),
(152,390,o),
(162,379,cs),
(196,344,o),
(239,322,o),
(281,307,cs),
(328,290,o),
(375,280,o),
(410,255,cs),
(417,250,o),
(424,244,o),
(430,238,cs),
(436,232,o),
(444,228,o),
(452,228,cs),
(459,228,o),
(466,231,o),
(472,236,cs),
(478,242,o),
(482,250,o),
(482,258,cs),
(482,265,o),
(479,272,o),
(474,278,cs),
(465,287,o),
(455,295,o),
(445,302,cs),
(401,334,o),
(345,347,o),
(302,363,cs),
(248,382,o),
(216,404,o),
(185,447,cs),
(179,456,o),
(170,461,o),
(160,461,cs)
);
},
{
closed = 1;
nodes = (
(294,-29,ls),
(323,-29,o),
(353,-25,o),
(382,-16,cs),
(411,-7,o),
(439,8,o),
(462,30,cs),
(492,58,o),
(518,105,o),
(521,157,cs),
(521,160,ls),
(521,177,o),
(507,190,o),
(490,190,cs),
(473,190,o),
(460,176,o),
(460,159,cs),
(460,157,ls),
(460,126,o),
(446,94,o),
(423,72,cs),
(407,57,o),
(387,46,o),
(365,39,cs),
(343,32,o),
(320,29,o),
(296,29,cs),
(295,29,ls),
(267,29,o),
(240,33,o),
(215,42,cs),
(190,51,o),
(167,65,o),
(149,83,cs),
(125,107,o),
(111,141,o),
(111,174,cs),
(111,178,ls),
(111,196,o),
(97,210,o),
(79,210,cs),
(63,210,o),
(50,197,o),
(49,181,cs),
(49,175,ls),
(49,125,o),
(69,77,o),
(104,42,cs),
(129,16,o),
(160,-2,o),
(193,-13,cs),
(225,-24,o),
(259,-29,o),
(293,-29,cs)
);
}
);
width = 583;
}
);
note = S;
unicode = 83;
},
{
glyphname = T;
layers = (
{
hints = (
{
horizontal = 1;
place = (-30, 21);
target = up;
type = BottomGhost;
},
{
horizontal = 1;
place = (610, 60);
place = (610, 60);
type = Stem;
},
{
place = (255, 60);
place = (255, 60);
type = Stem;
}
);
layerId = m01;
shapes = (
{
closed = 1;
nodes = (
(51,670,ls),
(34,670,o),
(21,657,o),
(21,640,cs),
(21,623,o),
(34,610,o),
(51,610,cs),
(520,610,ls),
(537,610,o),
(550,623,o),
(550,640,cs),
(550,657,o),
(537,670,o),
(520,670,cs)
);
},
{
closed = 1;
nodes = (
(255,0,ls),
(255,-17,o),
(268,-30,o),
(285,-30,cs),
(302,-30,o),
(315,-17,o),
(315,0,cs),
(315,550,ls),
(315,567,o),
(302,580,o),
(285,580,cs),
(268,580,o),
(255,567,o),
(255,550,cs)
);
}
);
width = 573;
}
);
note = T;
unicode = 84;
},
{
glyphname = U;
layers = (
{
hints = (
{
horizontal = 1;
place = (-18, 59);
place = (-18, 59);
type = Stem;
},
{
horizontal = 1;
place = (670, -20);
target = down;
type = TopGhost;
},
{
place = (104, 60);
place = (104, 60);
type = Stem;
},
{
place = (551, 60);
place = (551, 60);
type = Stem;
},
{
horizontal = 1;
place = (669, -20);
target = down;
type = TopGhost;
},
{
place = (554, 60);
place = (554, 60);
type = Stem;
}
);
layerId = m01;
shapes = (
{
closed = 1;
nodes = (
(104,410,ls),
(104,393,o),
(117,380,o),
(134,380,cs),
(151,380,o),
(164,393,o),
(164,410,cs),
(164,640,ls),
(164,657,o),
(151,670,o),
(134,670,cs),
(117,670,o),
(104,657,o),
(104,640,cs)
);
},
{
closed = 1;
nodes = (
(551,409,ls),
(551,392,o),
(564,379,o),
(581,379,cs),
(598,379,o),
(611,392,o),
(611,409,cs),
(611,639,ls),
(611,656,o),
(598,669,o),
(581,669,cs),
(564,669,o),
(551,656,o),
(551,639,cs)
);
},
{
closed = 1;
nodes = (
(554,209,ls),
(554,193,o),
(552,177,o),
(550,169,cs),
(541,126,o),
(511,87,o),
(472,64,cs),
(455,54,o),
(437,46,o),
(418,41,cs),
(399,36,o),
(379,33,o),
(359,33,cs),
(339,33,o),
(319,36,o),
(300,41,cs),
(281,46,o),
(263,54,o),
(246,64,cs),
(207,87,o),
(177,126,o),
(168,169,cs),
(166,177,o),
(164,193,o),
(164,209,cs),
(164,311,ls),
(164,328,o),
(151,341,o),
(134,341,cs),
(117,341,o),
(104,328,o),
(104,311,cs),
(104,210,ls),
(104,205,o),
(104,178,o),
(108,157,cs),
(122,93,o),
(165,42,o),
(215,12,cs),
(237,-1,o),
(261,-11,o),
(285,-18,cs),
(309,-25,o),
(334,-28,o),
(359,-28,cs),
(384,-28,o),
(409,-25,o),
(433,-18,cs),
(457,-11,o),
(481,-1,o),
(503,12,cs),
(553,42,o),
(596,93,o),
(610,157,cs),
(614,178,o),
(614,205,o),
(614,210,cs),
(614,311,ls),
(614,328,o),
(601,341,o),
(584,341,cs),
(567,341,o),
(554,328,o),
(554,311,cs)
);
}
);
width = 690;
}
);
note = U;
unicode = 85;
},
{
glyphname = V;
layers = (
{
hints = (
{
horizontal = 1;
place = (-31, 21);
target = up;
type = BottomGhost;
},
{
horizontal = 1;
place = (670, -20);
target = down;
type = TopGhost;
},
{
place = (38, 537);
place = (38, 537);
type = Stem;
}
);
layerId = m01;
shapes = (
{
closed = 1;
nodes = (
(277,-11,ls),
(282,-23,o),
(293,-31,o),
(305,-31,cs),
(323,-31,o),
(336,-16,o),
(336,-1,cs),
(336,3,o),
(335,6,o),
(334,10,cs),
(97,650,ls),
(92,662,o),
(81,670,o),
(69,670,cs),
(51,670,o),
(38,655,o),
(38,640,cs),
(38,636,o),
(39,633,o),
(40,629,cs)
);
},
{
closed = 1;
nodes = (
(348,200,ls),
(347,197,o),
(346,193,o),
(346,189,cs),
(346,174,o),
(358,159,o),
(377,159,cs),
(389,159,o),
(400,167,o),
(405,179,cs),
(573,629,ls),
(574,632,o),
(575,636,o),
(575,640,cs),
(575,655,o),
(563,670,o),
(544,670,cs),
(532,670,o),
(521,662,o),
(516,650,cs)
);
}
);
width = 620;
}
);
note = V;
unicode = 86;
},
{
glyphname = W;
layers = (
{
hints = (
{
horizontal = 1;
place = (-30, 21);
target = up;
type = BottomGhost;
},
{
horizontal = 1;
place = (671, -20);
target = down;
type = TopGhost;
},
{
place = (38, 827);
place = (38, 827);
type = Stem;
},
{
horizontal = 1;
place = (-29, 21);
target = up;
type = BottomGhost;
}
);
layerId = m01;
shapes = (
{
closed = 1;
nodes = (
(277,-10,ls),
(282,-22,o),
(293,-30,o),
(305,-30,cs),
(323,-30,o),
(336,-15,o),
(336,0,cs),
(336,4,o),
(335,7,o),
(334,11,cs),
(97,651,ls),
(92,663,o),
(81,671,o),
(69,671,cs),
(51,671,o),
(38,656,o),
(38,641,cs),
(38,637,o),
(39,634,o),
(40,630,cs)
);
},
{
closed = 1;
nodes = (
(337,173,ls),
(336,170,o),
(335,166,o),
(335,162,cs),
(335,147,o),
(347,132,o),
(366,132,cs),
(378,132,o),
(389,140,o),
(394,152,cs),
(572,630,ls),
(573,633,o),
(574,637,o),
(574,641,cs),
(574,656,o),
(562,671,o),
(543,671,cs),
(531,671,o),
(520,663,o),
(515,651,cs)
);
},
{
closed = 1;
nodes = (
(637,197,ls),
(636,194,o),
(635,190,o),
(635,186,cs),
(635,171,o),
(647,156,o),
(666,156,cs),
(678,156,o),
(689,164,o),
(694,176,cs),
(863,630,ls),
(864,633,o),
(865,637,o),
(865,641,cs),
(865,656,o),
(853,671,o),
(834,671,cs),
(822,671,o),
(811,663,o),
(806,651,cs)
);
},
{
closed = 1;
nodes = (
(569,-10,ls),
(574,-22,o),
(585,-29,o),
(597,-29,cs),
(615,-29,o),
(626,-14,o),
(626,1,cs),
(626,4,o),
(625,8,o),
(624,11,cs),
(525,265,ls),
(520,277,o),
(509,284,o),
(497,284,cs),
(479,284,o),
(468,269,o),
(468,254,cs),
(468,251,o),
(469,247,o),
(470,244,cs)
);
}
);
width = 911;
}
);
note = W;
unicode = 87;
},
{
glyphname = X;
layers = (
{
hints = (
{
horizontal = 1;
place = (-30, 21);
target = up;
type = BottomGhost;
},
{
horizontal = 1;
place = (670, -20);
target = down;
type = TopGhost;
},
{
place = (48, 686);
place = (48, 686);
type = Stem;
},
{
horizontal = 1;
place = (-31, 21);
target = up;
type = BottomGhost;
},
{
horizontal = 1;
place = (669, -20);
target = down;
type = TopGhost;
}
);
layerId = m01;
shapes = (
{
closed = 1;
nodes = (
(682,-20,ls),
(688,-26,o),
(696,-30,o),
(704,-30,cs),
(711,-30,o),
(718,-27,o),
(724,-22,cs),
(730,-16,o),
(734,-8,o),
(734,0,cs),
(734,7,o),
(731,14,o),
(726,20,cs),
(141,660,ls),
(135,666,o),
(127,670,o),
(119,670,cs),
(112,670,o),
(105,667,o),
(99,662,cs),
(93,656,o),
(89,648,o),
(89,640,cs),
(89,633,o),
(92,626,o),
(97,620,cs)
);
},
{
closed = 1;
nodes = (
(455,453,ls),
(450,447,o),
(447,440,o),
(447,433,cs),
(447,425,o),
(451,417,o),
(457,411,cs),
(463,406,o),
(470,403,o),
(477,403,cs),
(485,403,o),
(493,407,o),
(499,413,cs),
(689,619,ls),
(694,625,o),
(697,632,o),
(697,639,cs),
(697,647,o),
(693,655,o),
(687,661,cs),
(681,666,o),
(674,669,o),
(667,669,cs),
(659,669,o),
(651,665,o),
(645,659,cs)
);
},
{
closed = 1;
nodes = (
(56,19,ls),
(51,13,o),
(48,6,o),
(48,-1,cs),
(48,-9,o),
(52,-17,o),
(58,-23,cs),
(64,-28,o),
(71,-31,o),
(78,-31,cs),
(86,-31,o),
(94,-27,o),
(100,-21,cs),
(339,237,ls),
(344,243,o),
(347,250,o),
(347,257,cs),
(347,265,o),
(343,273,o),
(337,279,cs),
(331,284,o),
(324,287,o),
(317,287,cs),
(309,287,o),
(301,283,o),
(295,277,cs)
);
}
);
width = 780;
}
);
note = X;
unicode = 88;
},
{
glyphname = Y;
layers = (
{
hints = (
{
horizontal = 1;
place = (-30, 21);
target = up;
type = BottomGhost;
},
{
horizontal = 1;
place = (670, -20);
target = down;
type = TopGhost;
},
{
place = (297, 60);
place = (297, 60);
type = Stem;
}
);
layerId = m01;
shapes = (
{
closed = 1;
nodes = (
(305,322,ls),
(311,316,o),
(319,312,o),
(327,312,cs),
(334,312,o),
(341,315,o),
(347,320,cs),
(353,326,o),
(357,334,o),
(357,342,cs),
(357,349,o),
(354,356,o),
(349,362,cs),
(76,660,ls),
(70,666,o),
(62,670,o),
(54,670,cs),
(47,670,o),
(40,667,o),
(34,662,cs),
(28,656,o),
(24,648,o),
(24,640,cs),
(24,633,o),
(27,626,o),
(32,620,cs)
);
},
{
closed = 1;
nodes = (
(380,436,ls),
(375,430,o),
(372,423,o),
(372,416,cs),
(372,408,o),
(376,400,o),
(382,394,cs),
(388,389,o),
(395,386,o),
(402,386,cs),
(410,386,o),
(418,390,o),
(424,396,cs),
(623,620,ls),
(628,626,o),
(631,633,o),
(631,640,cs),
(631,648,o),
(627,656,o),
(621,662,cs),
(615,667,o),
(608,670,o),
(601,670,cs),
(593,670,o),
(585,666,o),
(579,660,cs)
);
},
{
closed = 1;
nodes = (
(297,0,ls),
(297,-17,o),
(310,-30,o),
(327,-30,cs),
(344,-30,o),
(357,-17,o),
(357,0,cs),
(357,240,ls),
(357,257,o),
(344,270,o),
(327,270,cs),
(310,270,o),
(297,257,o),
(297,240,cs)
);
}
);
width = 659;
}
);
note = Y;
unicode = 89;
},
{
glyphname = Z;
layers = (
{
hints = (
{
horizontal = 1;
place = (-30, 60);
place = (-30, 60);
type = Stem;
},
{
horizontal = 1;
place = (611, 60);
place = (611, 60);
type = Stem;
},
{
place = (56, 607);
place = (56, 607);
type = Stem;
}
);
layerId = m01;
shapes = (
{
closed = 1;
nodes = (
(103,671,ls),
(86,671,o),
(73,658,o),
(73,641,cs),
(73,624,o),
(86,611,o),
(103,611,cs),
(597,611,ls),
(614,611,o),
(627,624,o),
(627,641,cs),
(627,658,o),
(614,671,o),
(597,671,cs)
);
},
{
closed = 1;
nodes = (
(62,18,ls),
(58,12,o),
(56,6,o),
(56,-1,cs),
(56,-9,o),
(60,-18,o),
(67,-24,cs),
(73,-28,o),
(79,-30,o),
(86,-30,cs),
(94,-30,o),
(103,-26,o),
(109,-19,cs),
(551,527,ls),
(555,533,o),
(557,539,o),
(557,546,cs),
(557,554,o),
(553,563,o),
(546,569,cs),
(540,573,o),
(534,575,o),
(527,575,cs),
(519,575,o),
(510,571,o),
(504,564,cs)
);
},
{
closed = 1;
nodes = (
(234,30,ls),
(217,30,o),
(204,17,o),
(204,0,cs),
(204,-17,o),
(217,-30,o),
(234,-30,cs),
(633,-30,ls),
(650,-30,o),
(663,-17,o),
(663,0,cs),
(663,17,o),
(650,30,o),
(633,30,cs)
);
}
);
width = 703;
}
);
note = Z;
unicode = 90;
},
{
glyphname = bracketleft;
layers = (
{
hints = (
{
horizontal = 1;
place = (-110, 60);
place = (-110, 60);
type = Stem;
},
{
horizontal = 1;
place = (614, 60);
place = (614, 60);
type = Stem;
},
{
place = (34, 61);
place = (34, 61);
type = Stem;
}
);
layerId = m01;
shapes = (
{
closed = 1;
nodes = (
(64,674,ls),
(47,674,o),
(34,661,o),
(34,644,cs),
(34,-80,ls),
(35,-97,o),
(48,-110,o),
(65,-110,cs),
(133,-110,ls),
(150,-110,o),
(163,-97,o),
(163,-80,cs),
(163,-63,o),
(150,-50,o),
(133,-50,cs),
(95,-50,l),
(95,614,l),
(133,614,ls),
(150,614,o),
(163,627,o),
(163,644,cs),
(163,661,o),
(150,674,o),
(133,674,cs)
);
}
);
width = 170;
}
);
note = bracketleft;
unicode = 91;
},
{
glyphname = backslash;
layers = (
{
hints = (
{
horizontal = 1;
place = (-30, 21);
target = up;
type = BottomGhost;
},
{
place = (-10, 262);
place = (-10, 262);
type = Stem;
}
);
layerId = m01;
shapes = (
{
closed = 1;
nodes = (
(193,-9,ls),
(197,-22,o),
(209,-30,o),
(222,-30,cs),
(240,-30,o),
(252,-16,o),
(252,0,cs),
(252,3,o),
(252,6,o),
(251,9,cs),
(49,653,ls),
(45,666,o),
(33,674,o),
(20,674,cs),
(2,674,o),
(-10,660,o),
(-10,644,cs),
(-10,641,o),
(-10,638,o),
(-9,635,cs)
);
}
);
width = 242;
}
);
note = backslash;
unicode = 92;
},
{
glyphname = bracketright;
layers = (
{
hints = (
{
horizontal = 1;
place = (-110, 60);
place = (-110, 60);
type = Stem;
},
{
horizontal = 1;
place = (614, 60);
place = (614, 60);
type = Stem;
},
{
place = (64, 61);
place = (64, 61);
type = Stem;
}
);
layerId = m01;
shapes = (
{
closed = 1;
nodes = (
(26,674,ls),
(9,674,o),
(-4,661,o),
(-4,644,cs),
(-4,627,o),
(9,614,o),
(26,614,cs),
(64,614,l),
(64,-50,l),
(26,-50,ls),
(9,-50,o),
(-4,-63,o),
(-4,-80,cs),
(-4,-97,o),
(9,-110,o),
(26,-110,cs),
(95,-110,ls),
(112,-110,o),
(125,-97,o),
(125,-80,cs),
(125,644,ls),
(124,661,o),
(111,674,o),
(94,674,cs)
);
}
);
width = 170;
}
);
note = bracketright;
unicode = 93;
},
{
glyphname = asciicircum;
layers = (
{
hints = (
{
horizontal = 1;
place = (476, 155);
place = (476, 155);
type = Stem;
},
{
place = (-22, 204);
place = (-22, 204);
type = Stem;
}
);
layerId = m01;
shapes = (
{
closed = 1;
nodes = (
(57,620,l),
(-16,525,ls),
(-20,519,o),
(-22,513,o),
(-22,506,cs),
(-22,498,o),
(-18,489,o),
(-11,483,cs),
(-5,479,o),
(1,477,o),
(8,477,cs),
(16,477,o),
(25,481,o),
(31,488,cs),
(80,552,l),
(128,488,ls),
(134,480,o),
(143,476,o),
(152,476,cs),
(159,476,o),
(165,478,o),
(170,482,cs),
(178,488,o),
(182,497,o),
(182,506,cs),
(182,513,o),
(180,519,o),
(176,524,cs),
(104,619,ls),
(98,627,o),
(90,631,o),
(80,631,cs),
(70,631,o),
(62,627,o),
(56,619,cs)
);
}
);
width = 163;
}
);
note = asciicircum;
unicode = 94;
},
{
glyphname = underscore;
layers = (
{
hints = (
{
horizontal = 1;
place = (-38, 60);
place = (-38, 60);
type = Stem;
},
{
place = (-30, 443);
place = (-30, 443);
type = Stem;
}
);
layerId = m01;
shapes = (
{
closed = 1;
nodes = (
(0,22,ls),
(-17,22,o),
(-30,9,o),
(-30,-8,cs),
(-30,-25,o),
(-17,-38,o),
(0,-38,cs),
(383,-38,ls),
(400,-38,o),
(413,-25,o),
(413,-8,cs),
(413,9,o),
(400,22,o),
(383,22,cs)
);
}
);
width = 383;
}
);
note = underscore;
unicode = 95;
},
{
glyphname = grave;
layers = (
{
hints = (
{
horizontal = 1;
place = (477, 155);
place = (477, 155);
type = Stem;
},
{
place = (-19, 136);
place = (-19, 136);
type = Stem;
}
);
layerId = m01;
shapes = (
{
closed = 1;
nodes = (
(107,530,ls),
(82,551,o),
(56,580,o),
(38,615,cs),
(33,626,o),
(22,632,o),
(11,632,cs),
(7,632,o),
(2,631,o),
(-2,629,cs),
(-13,624,o),
(-19,613,o),
(-19,602,cs),
(-19,598,o),
(-18,593,o),
(-16,589,cs),
(6,544,o),
(38,509,o),
(67,484,cs),
(73,479,o),
(80,477,o),
(86,477,cs),
(95,477,o),
(104,481,o),
(110,488,cs),
(115,494,o),
(117,501,o),
(117,507,cs),
(117,516,o),
(113,525,o),
(106,531,cs)
);
}
);
width = 102;
}
);
note = grave;
unicode = 96;
},
{
glyphname = a;
layers = (
{
hints = (
{
horizontal = 1;
place = (-31, 21);
target = up;
type = BottomGhost;
},
{
horizontal = 1;
place = (196, 60);
place = (196, 60);
type = Stem;
},
{
horizontal = 1;
place = (670, -20);
target = down;
type = TopGhost;
},
{
place = (17, 610);
place = (17, 610);
type = Stem;
}
);
layerId = m01;
shapes = (
{
closed = 1;
nodes = (
(569,-13,ls),
(574,-24,o),
(585,-31,o),
(597,-31,cs),
(601,-31,o),
(605,-30,o),
(609,-28,cs),
(620,-23,o),
(627,-12,o),
(627,0,cs),
(627,4,o),
(626,8,o),
(624,12,cs),
(350,652,ls),
(345,663,o),
(334,670,o),
(322,670,cs),
(318,670,o),
(314,669,o),
(310,667,cs),
(299,662,o),
(292,651,o),
(292,639,cs),
(292,635,o),
(293,631,o),
(295,627,cs)
);
},
{
closed = 1;
nodes = (
(20,12,ls),
(18,8,o),
(17,4,o),
(17,-1,cs),
(17,-16,o),
(29,-31,o),
(47,-31,cs),
(59,-31,o),
(70,-24,o),
(75,-13,cs),
(297,505,ls),
(299,509,o),
(300,513,o),
(300,518,cs),
(300,533,o),
(288,548,o),
(270,548,cs),
(258,548,o),
(247,541,o),
(242,530,cs)
);
},
{
closed = 1;
nodes = (
(241,256,ls),
(224,256,o),
(211,243,o),
(211,226,cs),
(211,209,o),
(224,196,o),
(241,196,cs),
(401,196,ls),
(418,196,o),
(431,209,o),
(431,226,cs),
(431,243,o),
(418,256,o),
(401,256,cs)
);
}
);
width = 654;
}
);
note = a;
unicode = 97;
},
{
glyphname = b;
layers = (
{
hints = (
{
horizontal = 1;
place = (-30, 60);
place = (-30, 60);
type = Stem;
},
{
horizontal = 1;
place = (330, 60);
place = (330, 60);
type = Stem;
},
{
horizontal = 1;
place = (609, 60);
place = (609, 60);
type = Stem;
},
{
place = (85, 60);
place = (85, 60);
type = Stem;
},
{
place = (496, 60);
place = (496, 60);
type = Stem;
},
{
place = (554, 60);
place = (554, 60);
type = Stem;
}
);
layerId = m01;
shapes = (
{
closed = 1;
nodes = (
(85,-1,ls),
(85,-18,o),
(98,-31,o),
(115,-31,cs),
(132,-31,o),
(145,-18,o),
(145,-1,cs),
(145,639,ls),
(145,656,o),
(132,669,o),
(115,669,cs),
(98,669,o),
(85,656,o),
(85,639,cs)
);
},
{
closed = 1;
nodes = (
(208,669,ls),
(191,669,o),
(178,656,o),
(178,639,cs),
(178,622,o),
(191,609,o),
(208,609,cs),
(361,609,ls),
(464,609,o),
(496,560,o),
(496,493,cs),
(496,433,o),
(452,390,o),
(361,390,cs),
(217,390,ls),
(200,390,o),
(187,377,o),
(187,360,cs),
(187,343,o),
(200,330,o),
(217,330,cs),
(361,330,ls),
(487,330,o),
(556,399,o),
(556,493,cs),
(556,580,o),
(510,669,o),
(361,669,cs)
);
},
{
closed = 1;
nodes = (
(554,185,ls),
(554,61,o),
(461,30,o),
(376,30,cs),
(215,30,ls),
(198,30,o),
(185,17,o),
(185,0,cs),
(185,-17,o),
(198,-30,o),
(215,-30,cs),
(376,-30,ls),
(522,-30,o),
(614,49,o),
(614,185,c),
(615,186,l),
(615,253,o),
(592,309,o),
(552,344,cs),
(546,349,o),
(539,352,o),
(532,352,cs),
(523,352,o),
(515,348,o),
(509,341,cs),
(504,335,o),
(501,328,o),
(501,321,cs),
(501,312,o),
(505,304,o),
(512,298,cs),
(536,277,o),
(554,240,o),
(554,186,cs)
);
}
);
width = 677;
}
);
note = b;
unicode = 98;
},
{
glyphname = c;
layers = (
{
hints = (
{
horizontal = 1;
place = (-28, 58);
place = (-28, 58);
type = Stem;
},
{
horizontal = 1;
place = (609, 61);
place = (609, 61);
type = Stem;
},
{
place = (36, 60);
place = (36, 60);
type = Stem;
}
);
layerId = m01;
shapes = (
{
closed = 1;
nodes = (
(36,304,ls),
(38,250,o),
(51,196,o),
(76,147,cs),
(102,96,o),
(142,52,o),
(191,21,cs),
(239,-10,o),
(296,-27,o),
(353,-28,cs),
(357,-28,ls),
(433,-30,o),
(516,-4,o),
(582,62,cs),
(588,68,o),
(591,76,o),
(591,84,cs),
(591,91,o),
(588,99,o),
(582,105,cs),
(576,111,o),
(568,114,o),
(561,114,cs),
(553,114,o),
(545,111,o),
(539,105,cs),
(488,54,o),
(420,30,o),
(359,30,cs),
(355,30,ls),
(309,31,o),
(263,45,o),
(224,70,cs),
(185,95,o),
(152,132,o),
(130,174,cs),
(109,214,o),
(98,260,o),
(96,306,cs),
(96,316,ls),
(96,358,o),
(104,400,o),
(120,439,cs),
(138,484,o),
(171,536,o),
(224,571,cs),
(257,592,o),
(302,609,o),
(354,609,cs),
(406,609,o),
(451,592,o),
(484,571,cs),
(489,568,o),
(495,566,o),
(500,566,cs),
(510,566,o),
(520,571,o),
(526,580,cs),
(529,585,o),
(531,591,o),
(531,596,cs),
(531,606,o),
(526,616,o),
(517,622,cs),
(469,653,o),
(412,670,o),
(354,670,cs),
(296,670,o),
(239,653,o),
(191,622,cs),
(132,584,o),
(89,527,o),
(64,464,cs),
(45,417,o),
(36,367,o),
(36,317,cs)
);
}
);
width = 644;
}
);
note = c;
unicode = 99;
},
{
glyphname = d;
layers = (
{
hints = (
{
horizontal = 1;
place = (-30, 60);
place = (-30, 60);
type = Stem;
},
{
horizontal = 1;
place = (610, 60);
place = (610, 60);
type = Stem;
},
{
place = (84, 60);
place = (84, 60);
type = Stem;
},
{
place = (495, 58);
place = (495, 58);
type = Stem;
}
);
layerId = m01;
shapes = (
{
closed = 1;
nodes = (
(84,2,ls),
(84,-15,o),
(97,-28,o),
(114,-28,cs),
(131,-28,o),
(144,-15,o),
(144,2,cs),
(144,642,ls),
(144,659,o),
(131,672,o),
(114,672,cs),
(97,672,o),
(84,659,o),
(84,642,cs)
);
},
{
closed = 1;
nodes = (
(240,610,ls),
(253,609,o),
(265,608,o),
(278,606,cs),
(310,601,o),
(340,592,o),
(367,578,cs),
(394,564,o),
(418,544,o),
(437,520,cs),
(458,493,o),
(473,461,o),
(482,427,cs),
(491,392,o),
(495,355,o),
(495,318,cs),
(495,316,ls),
(495,278,o),
(491,241,o),
(481,206,cs),
(471,170,o),
(455,136,o),
(432,109,cs),
(402,73,o),
(364,52,o),
(331,41,cs),
(312,35,o),
(292,31,o),
(272,30,cs),
(259,30,l),
(199,30,ls),
(182,30,o),
(169,17,o),
(169,0,cs),
(169,-17,o),
(182,-30,o),
(199,-30,cs),
(244,-30,l),
(259,-30,l),
(275,-30,ls),
(300,-29,o),
(325,-24,o),
(349,-16,cs),
(392,-2,o),
(440,25,o),
(478,71,cs),
(507,106,o),
(526,148,o),
(538,191,cs),
(549,233,o),
(553,276,o),
(553,318,cs),
(553,320,ls),
(553,361,o),
(549,403,o),
(538,444,cs),
(527,485,o),
(509,525,o),
(482,559,cs),
(458,590,o),
(427,615,o),
(393,633,cs),
(359,651,o),
(322,662,o),
(285,668,cs),
(271,669,o),
(266,670,o),
(242,670,cs),
(206,670,ls),
(189,670,o),
(176,657,o),
(176,640,cs),
(176,623,o),
(189,610,o),
(206,610,cs)
);
}
);
width = 613;
}
);
note = d;
unicode = 100;
},
{
glyphname = e;
layers = (
{
hints = (
{
horizontal = 1;
place = (-30, 60);
place = (-30, 60);
type = Stem;
},
{
horizontal = 1;
place = (314, 60);
place = (314, 60);
type = Stem;
},
{
horizontal = 1;
place = (610, 60);
place = (610, 60);
type = Stem;
},
{
place = (85, 60);
place = (85, 60);
type = Stem;
}
);
layerId = m01;
shapes = (
{
closed = 1;
nodes = (
(85,0,ls),
(85,-17,o),
(98,-30,o),
(115,-30,cs),
(132,-30,o),
(145,-17,o),
(145,0,cs),
(145,640,ls),
(145,657,o),
(132,670,o),
(115,670,cs),
(98,670,o),
(85,657,o),
(85,640,cs)
);
},
{
closed = 1;
nodes = (
(201,670,ls),
(184,670,o),
(171,657,o),
(171,640,cs),
(171,623,o),
(184,610,o),
(201,610,cs),
(518,610,ls),
(535,610,o),
(548,623,o),
(548,640,cs),
(548,657,o),
(535,670,o),
(518,670,cs)
);
},
{
closed = 1;
nodes = (
(201,374,ls),
(184,374,o),
(171,361,o),
(171,344,cs),
(171,327,o),
(184,314,o),
(201,314,cs),
(459,314,ls),
(476,314,o),
(489,327,o),
(489,344,cs),
(489,361,o),
(476,374,o),
(459,374,cs)
);
},
{
closed = 1;
nodes = (
(199,30,ls),
(182,30,o),
(169,17,o),
(169,0,cs),
(169,-17,o),
(182,-30,o),
(199,-30,cs),
(519,-30,ls),
(536,-30,o),
(549,-17,o),
(549,0,cs),
(549,17,o),
(536,30,o),
(519,30,cs)
);
}
);
width = 611;
}
);
note = e;
unicode = 101;
},
{
glyphname = f;
layers = (
{
hints = (
{
horizontal = 1;
place = (-30, 21);
target = up;
type = BottomGhost;
},
{
horizontal = 1;
place = (314, 60);
place = (314, 60);
type = Stem;
},
{
horizontal = 1;
place = (610, 60);
place = (610, 60);
type = Stem;
},
{
place = (85, 60);
place = (85, 60);
type = Stem;
}
);
layerId = m01;
shapes = (
{
closed = 1;
nodes = (
(85,0,ls),
(85,-17,o),
(98,-30,o),
(115,-30,cs),
(132,-30,o),
(145,-17,o),
(145,0,cs),
(145,640,ls),
(145,657,o),
(132,670,o),
(115,670,cs),
(98,670,o),
(85,657,o),
(85,640,cs)
);
},
{
closed = 1;
nodes = (
(201,670,ls),
(184,670,o),
(171,657,o),
(171,640,cs),
(171,623,o),
(184,610,o),
(201,610,cs),
(502,610,ls),
(519,610,o),
(532,623,o),
(532,640,cs),
(532,657,o),
(519,670,o),
(502,670,cs)
);
},
{
closed = 1;
nodes = (
(201,374,ls),
(184,374,o),
(171,361,o),
(171,344,cs),
(171,327,o),
(184,314,o),
(201,314,cs),
(443,314,ls),
(460,314,o),
(473,327,o),
(473,344,cs),
(473,361,o),
(460,374,o),
(443,374,cs)
);
}
);
width = 571;
}
);
note = f;
unicode = 102;
},
{
glyphname = g;
layers = (
{
hints = (
{
horizontal = 1;
place = (-28, 61);
place = (-28, 61);
type = Stem;
},
{
horizontal = 1;
place = (281, 61);
place = (281, 61);
type = Stem;
},
{
horizontal = 1;
place = (613, 57);
place = (613, 57);
type = Stem;
},
{
place = (40, 59);
place = (40, 59);
type = Stem;
},
{
place = (554, 60);
place = (554, 60);
type = Stem;
}
);
layerId = m01;
shapes = (
{
closed = 1;
nodes = (
(614,311,ls),
(614,328,o),
(601,341,o),
(584,341,cs),
(567,341,o),
(554,328,o),
(554,311,cs),
(554,209,ls),
(554,193,o),
(552,177,o),
(550,169,cs),
(541,126,o),
(511,87,o),
(472,64,cs),
(455,54,o),
(437,46,o),
(418,41,cs),
(399,36,o),
(379,33,o),
(359,33,cs),
(344,33,o),
(329,35,o),
(314,38,cs),
(299,41,o),
(284,45,o),
(270,51,cs),
(256,57,o),
(242,64,o),
(229,72,cs),
(216,80,o),
(204,90,o),
(193,101,cs),
(181,112,o),
(170,124,o),
(160,137,cs),
(150,150,o),
(142,163,o),
(135,177,cs),
(128,190,o),
(122,204,o),
(117,218,cs),
(112,232,o),
(108,247,o),
(105,262,cs),
(102,277,o),
(100,292,o),
(99,307,cs),
(99,313,l),
(99,319,ls),
(99,333,o),
(100,347,o),
(102,361,cs),
(104,375,o),
(107,389,o),
(111,403,cs),
(115,417,o),
(119,430,o),
(124,443,cs),
(131,461,o),
(140,478,o),
(150,494,cs),
(183,547,o),
(255,613,o),
(358,613,cs),
(400,613,o),
(442,598,o),
(486,571,cs),
(491,568,o),
(497,566,o),
(502,566,cs),
(512,566,o),
(522,571,o),
(528,580,cs),
(531,585,o),
(533,591,o),
(533,596,cs),
(533,606,o),
(528,616,o),
(519,622,cs),
(503,632,o),
(486,641,o),
(468,648,cs),
(450,655,o),
(432,660,o),
(413,664,cs),
(394,668,o),
(375,670,o),
(356,670,cs),
(228,670,o),
(144,596,o),
(98,523,cs),
(86,504,o),
(76,484,o),
(67,463,cs),
(61,447,o),
(56,431,o),
(52,415,cs),
(48,399,o),
(45,383,o),
(43,366,cs),
(41,349,o),
(40,332,o),
(40,315,cs),
(40,309,l),
(40,303,ls),
(41,285,o),
(43,267,o),
(46,249,cs),
(49,231,o),
(54,213,o),
(60,196,cs),
(66,179,o),
(73,162,o),
(81,146,cs),
(90,129,o),
(100,113,o),
(112,98,cs),
(124,83,o),
(137,69,o),
(151,56,cs),
(165,43,o),
(180,31,o),
(196,21,cs),
(212,11,o),
(229,2,o),
(247,-5,cs),
(265,-12,o),
(283,-18,o),
(302,-22,cs),
(321,-26,o),
(340,-28,o),
(359,-28,cs),
(384,-28,o),
(409,-25,o),
(433,-18,cs),
(457,-11,o),
(481,-1,o),
(503,12,cs),
(553,42,o),
(596,93,o),
(610,157,cs),
(614,178,o),
(614,205,o),
(614,210,cs)
);
},
{
closed = 1;
nodes = (
(301,342,ls),
(284,342,o),
(270,329,o),
(270,312,cs),
(270,295,o),
(283,281,o),
(300,281,cs),
(489,281,ls),
(506,280,o),
(520,293,o),
(520,310,cs),
(520,327,o),
(507,341,o),
(490,342,cs)
);
}
);
width = 672;
}
);
note = g;
unicode = 103;
},
{
glyphname = h;
layers = (
{
hints = (
{
horizontal = 1;
place = (-30, 21);
target = up;
type = BottomGhost;
},
{
horizontal = 1;
place = (314, 60);
place = (314, 60);
type = Stem;
},
{
horizontal = 1;
place = (670, -20);
target = down;
type = TopGhost;
},
{
place = (84, 60);
place = (84, 60);
type = Stem;
},
{
place = (520, 60);
place = (520, 60);
type = Stem;
}
);
layerId = m01;
shapes = (
{
closed = 1;
nodes = (
(84,0,ls),
(84,-17,o),
(97,-30,o),
(114,-30,cs),
(131,-30,o),
(144,-17,o),
(144,0,cs),
(144,640,ls),
(144,657,o),
(131,670,o),
(114,670,cs),
(97,670,o),
(84,657,o),
(84,640,cs)
);
},
{
closed = 1;
nodes = (
(520,0,ls),
(520,-17,o),
(533,-30,o),
(550,-30,cs),
(567,-30,o),
(580,-17,o),
(580,0,cs),
(580,640,ls),
(580,657,o),
(567,670,o),
(550,670,cs),
(533,670,o),
(520,657,o),
(520,640,cs)
);
},
{
closed = 1;
nodes = (
(200,374,ls),
(183,374,o),
(170,361,o),
(170,344,cs),
(170,327,o),
(183,314,o),
(200,314,cs),
(466,314,ls),
(483,314,o),
(496,327,o),
(496,344,cs),
(496,361,o),
(483,374,o),
(466,374,cs)
);
}
);
width = 665;
}
);
note = h;
unicode = 104;
},
{
glyphname = i;
layers = (
{
hints = (
{
horizontal = 1;
place = (-30, 21);
target = up;
type = BottomGhost;
},
{
horizontal = 1;
place = (670, -20);
target = down;
type = TopGhost;
},
{
place = (85, 60);
place = (85, 60);
type = Stem;
}
);
layerId = m01;
shapes = (
{
closed = 1;
nodes = (
(85,0,ls),
(85,-17,o),
(98,-30,o),
(115,-30,cs),
(132,-30,o),
(145,-17,o),
(145,0,cs),
(145,640,ls),
(145,657,o),
(132,670,o),
(115,670,cs),
(98,670,o),
(85,657,o),
(85,640,cs)
);
}
);
width = 230;
}
);
note = i;
unicode = 105;
},
{
glyphname = j;
layers = (
{
hints = (
{
horizontal = 1;
place = (-29, 57);
place = (-29, 57);
type = Stem;
},
{
horizontal = 1;
place = (670, -20);
target = down;
type = TopGhost;
},
{
place = (45, 59);
place = (45, 59);
type = Stem;
},
{
place = (431, 60);
place = (431, 60);
type = Stem;
}
);
layerId = m01;
shapes = (
{
closed = 1;
nodes = (
(431,203,ls),
(431,186,o),
(444,173,o),
(461,173,cs),
(478,173,o),
(491,186,o),
(491,203,cs),
(491,640,ls),
(491,657,o),
(478,670,o),
(461,670,cs),
(444,670,o),
(431,657,o),
(431,640,cs)
);
},
{
closed = 1;
nodes = (
(268,-29,ls),
(329,-29,o),
(388,-3,o),
(430,41,c),
(430,40,l),
(441,52,o),
(451,65,o),
(459,79,cs),
(462,84,o),
(463,89,o),
(463,93,cs),
(463,108,o),
(452,123,o),
(434,123,cs),
(423,123,o),
(413,117,o),
(408,108,cs),
(402,98,o),
(395,88,o),
(387,79,cs),
(357,47,o),
(313,28,o),
(269,28,cs),
(268,28,ls),
(232,28,o),
(190,41,o),
(157,71,cs),
(124,101,o),
(107,142,o),
(104,178,cs),
(103,193,o),
(89,205,o),
(74,205,cs),
(57,205,o),
(44,190,o),
(45,173,cs),
(50,118,o),
(76,66,o),
(117,29,cs),
(158,-8,o),
(212,-29,o),
(267,-29,cs)
);
}
);
width = 570;
}
);
note = j;
unicode = 106;
},
{
glyphname = k;
layers = (
{
hints = (
{
horizontal = 1;
place = (-30, 21);
target = up;
type = BottomGhost;
},
{
horizontal = 1;
place = (670, -20);
target = down;
type = TopGhost;
},
{
place = (85, 60);
place = (85, 60);
type = Stem;
}
);
layerId = m01;
shapes = (
{
closed = 1;
nodes = (
(169,372,ls),
(163,366,o),
(160,358,o),
(160,351,cs),
(160,343,o),
(163,335,o),
(169,329,cs),
(175,323,o),
(183,320,o),
(191,320,cs),
(198,320,o),
(206,323,o),
(212,329,cs),
(503,620,ls),
(509,626,o),
(512,634,o),
(512,642,cs),
(512,649,o),
(509,657,o),
(503,663,cs),
(497,669,o),
(489,672,o),
(482,672,cs),
(474,672,o),
(466,669,o),
(460,663,cs)
);
},
{
closed = 1;
nodes = (
(85,0,ls),
(85,-17,o),
(98,-30,o),
(115,-30,cs),
(132,-30,o),
(145,-17,o),
(145,0,cs),
(145,640,ls),
(145,657,o),
(132,670,o),
(115,670,cs),
(98,670,o),
(85,657,o),
(85,640,cs)
);
},
{
closed = 1;
nodes = (
(520,-21,ls),
(526,-27,o),
(534,-30,o),
(542,-30,cs),
(549,-30,o),
(557,-27,o),
(563,-21,cs),
(569,-15,o),
(572,-7,o),
(572,1,cs),
(572,8,o),
(569,16,o),
(563,22,cs),
(277,308,ls),
(271,314,o),
(263,317,o),
(256,317,cs),
(248,317,o),
(240,314,o),
(234,308,cs),
(228,302,o),
(225,294,o),
(225,287,cs),
(225,279,o),
(228,271,o),
(234,265,cs)
);
}
);
width = 613;
}
);
note = k;
unicode = 107;
},
{
glyphname = l;
layers = (
{
hints = (
{
horizontal = 1;
place = (-30, 60);
place = (-30, 60);
type = Stem;
},
{
horizontal = 1;
place = (670, -20);
target = down;
type = TopGhost;
},
{
place = (85, 60);
place = (85, 60);
type = Stem;
}
);
layerId = m01;
shapes = (
{
closed = 1;
nodes = (
(85,0,ls),
(85,-17,o),
(98,-30,o),
(115,-30,cs),
(132,-30,o),
(145,-17,o),
(145,0,cs),
(145,640,ls),
(145,657,o),
(132,670,o),
(115,670,cs),
(98,670,o),
(85,657,o),
(85,640,cs)
);
},
{
closed = 1;
nodes = (
(215,30,ls),
(198,30,o),
(185,17,o),
(185,0,cs),
(185,-17,o),
(198,-30,o),
(215,-30,cs),
(516,-30,ls),
(533,-30,o),
(546,-17,o),
(546,0,cs),
(546,17,o),
(533,30,o),
(516,30,cs)
);
}
);
width = 558;
}
);
note = l;
unicode = 108;
},
{
glyphname = m;
layers = (
{
hints = (
{
horizontal = 1;
place = (-30, 21);
target = up;
type = BottomGhost;
},
{
horizontal = 1;
place = (671, -20);
target = down;
type = TopGhost;
},
{
place = (85, 60);
place = (85, 60);
type = Stem;
},
{
place = (750, 60);
place = (750, 60);
type = Stem;
},
{
horizontal = 1;
place = (-31, 21);
target = up;
type = BottomGhost;
},
{
horizontal = 1;
place = (670, -20);
target = down;
type = TopGhost;
}
);
layerId = m01;
shapes = (
{
closed = 1;
nodes = (
(486,140,ls),
(484,135,o),
(482,131,o),
(482,126,cs),
(482,110,o),
(494,95,o),
(513,95,cs),
(524,95,o),
(534,102,o),
(540,112,cs),
(807,626,ls),
(809,631,o),
(811,635,o),
(811,640,cs),
(811,656,o),
(799,671,o),
(780,671,cs),
(769,671,o),
(759,664,o),
(753,654,cs)
);
},
{
closed = 1;
nodes = (
(85,0,ls),
(85,-17,o),
(98,-30,o),
(115,-30,cs),
(132,-30,o),
(145,-17,o),
(145,0,cs),
(145,640,ls),
(145,657,o),
(132,670,o),
(115,670,cs),
(98,670,o),
(85,657,o),
(85,640,cs)
);
},
{
closed = 1;
nodes = (
(414,-14,ls),
(420,-25,o),
(430,-31,o),
(441,-31,cs),
(445,-31,o),
(450,-30,o),
(454,-28,cs),
(465,-23,o),
(471,-12,o),
(471,-1,cs),
(471,3,o),
(470,8,o),
(468,12,cs),
(233,477,ls),
(228,488,o),
(217,494,o),
(206,494,cs),
(202,494,o),
(197,493,o),
(193,491,cs),
(182,486,o),
(176,475,o),
(176,464,cs),
(176,460,o),
(177,455,o),
(179,451,cs)
);
},
{
closed = 1;
nodes = (
(750,0,ls),
(750,-17,o),
(763,-30,o),
(780,-30,cs),
(797,-30,o),
(810,-17,o),
(810,0,cs),
(810,446,ls),
(810,463,o),
(797,476,o),
(780,476,cs),
(763,476,o),
(750,463,o),
(750,446,cs)
);
}
);
width = 894;
}
);
note = m;
unicode = 109;
},
{
glyphname = n;
layers = (
{
hints = (
{
horizontal = 1;
place = (-31, 21);
target = up;
type = BottomGhost;
},
{
horizontal = 1;
place = (670, -20);
target = down;
type = TopGhost;
},
{
place = (86, 60);
place = (86, 60);
type = Stem;
},
{
place = (519, 60);
place = (519, 60);
type = Stem;
},
{
horizontal = 1;
place = (-30, 21);
target = up;
type = BottomGhost;
}
);
layerId = m01;
shapes = (
{
closed = 1;
nodes = (
(524,-17,ls),
(530,-26,o),
(540,-31,o),
(550,-31,cs),
(555,-31,o),
(561,-29,o),
(566,-26,cs),
(575,-20,o),
(580,-10,o),
(580,0,cs),
(580,5,o),
(578,11,o),
(575,16,cs),
(142,656,ls),
(136,665,o),
(126,670,o),
(116,670,cs),
(111,670,o),
(105,668,o),
(100,665,cs),
(91,659,o),
(86,649,o),
(86,639,cs),
(86,634,o),
(88,628,o),
(91,623,cs)
);
},
{
closed = 1;
nodes = (
(519,200,ls),
(519,183,o),
(532,170,o),
(549,170,cs),
(566,170,o),
(579,183,o),
(579,200,cs),
(579,640,ls),
(579,657,o),
(566,670,o),
(549,670,cs),
(532,670,o),
(519,657,o),
(519,640,cs)
);
},
{
closed = 1;
nodes = (
(86,0,ls),
(86,-17,o),
(99,-30,o),
(116,-30,cs),
(133,-30,o),
(146,-17,o),
(146,0,cs),
(146,440,ls),
(146,457,o),
(133,470,o),
(116,470,cs),
(99,470,o),
(86,457,o),
(86,440,cs)
);
}
);
width = 663;
}
);
note = n;
unicode = 110;
},
{
glyphname = o;
layers = (
{
hints = (
{
horizontal = 1;
place = (-30, 60);
place = (-30, 60);
type = Stem;
},
{
horizontal = 1;
place = (610, 60);
place = (610, 60);
type = Stem;
},
{
place = (37, 59);
place = (37, 59);
type = Stem;
},
{
place = (624, 61);
place = (624, 61);
type = Stem;
}
);
layerId = m01;
shapes = (
{
closed = 1;
nodes = (
(180,670,o),
(37,511,o),
(37,320,cs),
(37,129,o),
(180,-30,o),
(361,-30,cs),
(542,-30,o),
(685,129,o),
(685,320,cs),
(685,511,o),
(542,670,o),
(361,670,cs)
);
},
{
closed = 1;
nodes = (
(504,610,o),
(624,482,o),
(624,320,cs),
(624,158,o),
(504,30,o),
(360,30,cs),
(216,30,o),
(96,158,o),
(96,320,cs),
(96,482,o),
(216,610,o),
(360,610,cs)
);
}
);
width = 737;
}
);
note = o;
unicode = 111;
},
{
glyphname = p;
layers = (
{
hints = (
{
horizontal = 1;
place = (-30, 21);
target = up;
type = BottomGhost;
},
{
horizontal = 1;
place = (269, 60);
place = (269, 60);
type = Stem;
},
{
horizontal = 1;
place = (610, 60);
place = (610, 60);
type = Stem;
},
{
place = (86, 60);
place = (86, 60);
type = Stem;
},
{
place = (500, 60);
place = (500, 60);
type = Stem;
}
);
layerId = m01;
shapes = (
{
closed = 1;
nodes = (
(86,0,ls),
(86,-17,o),
(99,-30,o),
(116,-30,cs),
(133,-30,o),
(146,-17,o),
(146,0,cs),
(146,640,ls),
(146,657,o),
(133,670,o),
(116,670,cs),
(99,670,o),
(86,657,o),
(86,640,cs)
);
},
{
closed = 1;
nodes = (
(217,670,ls),
(200,670,o),
(187,657,o),
(187,640,cs),
(187,623,o),
(200,610,o),
(217,610,cs),
(362,610,ls),
(472,610,o),
(500,529,o),
(500,464,cs),
(500,378,o),
(450,329,o),
(374,329,cs),
(220,329,ls),
(203,329,o),
(190,316,o),
(190,299,cs),
(190,282,o),
(203,269,o),
(220,269,cs),
(374,269,ls),
(478,269,o),
(560,339,o),
(560,464,cs),
(560,572,o),
(499,670,o),
(362,670,cs)
);
}
);
width = 606;
}
);
note = p;
unicode = 112;
},
{
glyphname = q;
layers = (
{
hints = (
{
horizontal = 1;
place = (-32, 61);
place = (-32, 61);
type = Stem;
},
{
horizontal = 1;
place = (609, 59);
place = (609, 59);
type = Stem;
},
{
place = (37, 59);
place = (37, 59);
type = Stem;
},
{
place = (624, 61);
place = (624, 61);
type = Stem;
}
);
layerId = m01;
shapes = (
{
closed = 1;
nodes = (
(180,668,o),
(37,509,o),
(37,318,cs),
(37,127,o),
(180,-32,o),
(361,-32,c),
(403,-30,o),
(449,-20,o),
(485,-4,cs),
(496,1,o),
(503,12,o),
(503,24,cs),
(503,28,o),
(502,32,o),
(500,36,cs),
(495,47,o),
(484,54,o),
(472,54,cs),
(468,54,o),
(464,53,o),
(460,51,cs),
(429,37,o),
(395,29,o),
(360,29,cs),
(216,29,o),
(96,157,o),
(96,319,cs),
(96,481,o),
(216,609,o),
(360,609,cs),
(504,609,o),
(624,481,o),
(624,319,cs),
(624,266,o),
(611,216,o),
(588,173,cs),
(586,168,o),
(584,164,o),
(584,159,cs),
(584,143,o),
(596,128,o),
(615,128,cs),
(626,128,o),
(636,135,o),
(642,145,cs),
(669,196,o),
(685,255,o),
(685,318,cs),
(685,509,o),
(542,668,o),
(361,668,cs)
);
},
{
closed = 1;
nodes = (
(608,-22,ls),
(614,-28,o),
(622,-31,o),
(630,-31,cs),
(637,-31,o),
(645,-28,o),
(651,-22,cs),
(657,-16,o),
(660,-8,o),
(660,-1,cs),
(660,7,o),
(657,15,o),
(651,21,cs),
(400,272,ls),
(394,278,o),
(386,281,o),
(379,281,cs),
(371,281,o),
(363,278,o),
(357,272,cs),
(351,266,o),
(348,258,o),
(348,251,cs),
(348,243,o),
(351,235,o),
(357,229,cs)
);
}
);
width = 748;
}
);
note = q;
unicode = 113;
},
{
glyphname = r;
layers = (
{
hints = (
{
horizontal = 1;
place = (-30, 21);
target = up;
type = BottomGhost;
},
{
horizontal = 1;
place = (309, 60);
place = (309, 60);
type = Stem;
},
{
horizontal = 1;
place = (610, 60);
place = (610, 60);
type = Stem;
},
{
place = (86, 60);
place = (86, 60);
type = Stem;
},
{
place = (501, 60);
place = (501, 60);
type = Stem;
}
);
layerId = m01;
shapes = (
{
closed = 1;
nodes = (
(86,0,ls),
(86,-17,o),
(99,-30,o),
(116,-30,cs),
(133,-30,o),
(146,-17,o),
(146,0,cs),
(146,640,ls),
(146,657,o),
(133,670,o),
(116,670,cs),
(99,670,o),
(86,657,o),
(86,640,cs)
);
},
{
closed = 1;
nodes = (
(374,670,l),
(216,670,ls),
(199,670,o),
(186,657,o),
(186,640,cs),
(186,623,o),
(199,610,o),
(216,610,cs),
(374,610,ls),
(470,610,o),
(501,558,o),
(501,488,cs),
(501,426,o),
(476,369,o),
(376,369,cs),
(222,369,ls),
(205,369,o),
(192,356,o),
(192,339,cs),
(192,322,o),
(205,309,o),
(222,309,cs),
(376,309,ls),
(485,309,o),
(561,367,o),
(561,487,cs),
(561,608,o),
(486,669,o),
(374,669,c)
);
},
{
closed = 1;
nodes = (
(544,-22,ls),
(550,-27,o),
(557,-30,o),
(565,-30,cs),
(573,-30,o),
(580,-27,o),
(586,-21,cs),
(591,-15,o),
(594,-8,o),
(594,0,cs),
(594,8,o),
(591,15,o),
(585,21,cs),
(311,281,ls),
(305,286,o),
(298,289,o),
(290,289,cs),
(282,289,o),
(275,286,o),
(269,280,cs),
(264,274,o),
(261,267,o),
(261,259,cs),
(261,251,o),
(264,244,o),
(270,238,cs)
);
}
);
width = 650;
}
);
note = r;
unicode = 114;
},
{
glyphname = s;
layers = (
{
hints = (
{
horizontal = 1;
place = (-29, 58);
place = (-29, 58);
type = Stem;
},
{
horizontal = 1;
place = (609, 60);
place = (609, 60);
type = Stem;
},
{
place = (49, 62);
place = (49, 62);
type = Stem;
},
{
place = (460, 61);
place = (460, 61);
type = Stem;
}
);
layerId = m01;
shapes = (
{
closed = 1;
nodes = (
(290,669,ls),
(266,669,o),
(241,666,o),
(217,658,cs),
(192,649,o),
(168,635,o),
(149,615,cs),
(113,578,o),
(106,533,o),
(106,514,cs),
(106,497,o),
(120,484,o),
(137,484,cs),
(153,484,o),
(166,497,o),
(167,513,cs),
(168,525,o),
(172,551,o),
(194,573,cs),
(206,585,o),
(222,594,o),
(239,600,cs),
(256,606,o),
(274,609,o),
(293,609,cs),
(295,609,ls),
(365,609,o),
(434,563,o),
(438,490,cs),
(439,474,o),
(452,461,o),
(468,461,cs),
(486,461,o),
(500,475,o),
(499,493,cs),
(496,548,o),
(466,597,o),
(426,627,cs),
(387,656,o),
(339,669,o),
(292,669,cs)
);
},
{
closed = 1;
nodes = (
(155,461,o),
(149,459,o),
(144,456,cs),
(135,450,o),
(130,441,o),
(130,431,cs),
(130,426,o),
(132,420,o),
(135,415,cs),
(143,402,o),
(152,390,o),
(162,379,cs),
(196,344,o),
(239,322,o),
(281,307,cs),
(328,290,o),
(375,280,o),
(410,255,cs),
(417,250,o),
(424,244,o),
(430,238,cs),
(436,232,o),
(444,228,o),
(452,228,cs),
(459,228,o),
(466,231,o),
(472,236,cs),
(478,242,o),
(482,250,o),
(482,258,cs),
(482,265,o),
(479,272,o),
(474,278,cs),
(465,287,o),
(455,295,o),
(445,302,cs),
(401,334,o),
(345,347,o),
(302,363,cs),
(248,382,o),
(216,404,o),
(185,447,cs),
(179,456,o),
(170,461,o),
(160,461,cs)
);
},
{
closed = 1;
nodes = (
(294,-29,ls),
(323,-29,o),
(353,-25,o),
(382,-16,cs),
(411,-7,o),
(439,8,o),
(462,30,cs),
(492,58,o),
(518,105,o),
(521,157,cs),
(521,160,ls),
(521,177,o),
(507,190,o),
(490,190,cs),
(473,190,o),
(460,176,o),
(460,159,cs),
(460,157,ls),
(460,126,o),
(446,94,o),
(423,72,cs),
(407,57,o),
(387,46,o),
(365,39,cs),
(343,32,o),
(320,29,o),
(296,29,cs),
(295,29,ls),
(267,29,o),
(240,33,o),
(215,42,cs),
(190,51,o),
(167,65,o),
(149,83,cs),
(125,107,o),
(111,141,o),
(111,174,cs),
(111,178,ls),
(111,196,o),
(97,210,o),
(79,210,cs),
(63,210,o),
(50,197,o),
(49,181,cs),
(49,175,ls),
(49,125,o),
(69,77,o),
(104,42,cs),
(129,16,o),
(160,-2,o),
(193,-13,cs),
(225,-24,o),
(259,-29,o),
(293,-29,cs)
);
}
);
width = 583;
}
);
note = s;
unicode = 115;
},
{
glyphname = t;
layers = (
{
hints = (
{
horizontal = 1;
place = (-30, 21);
target = up;
type = BottomGhost;
},
{
horizontal = 1;
place = (610, 60);
place = (610, 60);
type = Stem;
},
{
place = (255, 60);
place = (255, 60);
type = Stem;
}
);
layerId = m01;
shapes = (
{
closed = 1;
nodes = (
(51,670,ls),
(34,670,o),
(21,657,o),
(21,640,cs),
(21,623,o),
(34,610,o),
(51,610,cs),
(520,610,ls),
(537,610,o),
(550,623,o),
(550,640,cs),
(550,657,o),
(537,670,o),
(520,670,cs)
);
},
{
closed = 1;
nodes = (
(255,0,ls),
(255,-17,o),
(268,-30,o),
(285,-30,cs),
(302,-30,o),
(315,-17,o),
(315,0,cs),
(315,550,ls),
(315,567,o),
(302,580,o),
(285,580,cs),
(268,580,o),
(255,567,o),
(255,550,cs)
);
}
);
width = 573;
}
);
note = t;
unicode = 116;
},
{
glyphname = u;
layers = (
{
hints = (
{
horizontal = 1;
place = (-18, 59);
place = (-18, 59);
type = Stem;
},
{
horizontal = 1;
place = (670, -20);
target = down;
type = TopGhost;
},
{
place = (104, 60);
place = (104, 60);
type = Stem;
},
{
place = (551, 60);
place = (551, 60);
type = Stem;
},
{
horizontal = 1;
place = (669, -20);
target = down;
type = TopGhost;
},
{
place = (554, 60);
place = (554, 60);
type = Stem;
}
);
layerId = m01;
shapes = (
{
closed = 1;
nodes = (
(104,410,ls),
(104,393,o),
(117,380,o),
(134,380,cs),
(151,380,o),
(164,393,o),
(164,410,cs),
(164,640,ls),
(164,657,o),
(151,670,o),
(134,670,cs),
(117,670,o),
(104,657,o),
(104,640,cs)
);
},
{
closed = 1;
nodes = (
(551,409,ls),
(551,392,o),
(564,379,o),
(581,379,cs),
(598,379,o),
(611,392,o),
(611,409,cs),
(611,639,ls),
(611,656,o),
(598,669,o),
(581,669,cs),
(564,669,o),
(551,656,o),
(551,639,cs)
);
},
{
closed = 1;
nodes = (
(554,209,ls),
(554,193,o),
(552,177,o),
(550,169,cs),
(541,126,o),
(511,87,o),
(472,64,cs),
(455,54,o),
(437,46,o),
(418,41,cs),
(399,36,o),
(379,33,o),
(359,33,cs),
(339,33,o),
(319,36,o),
(300,41,cs),
(281,46,o),
(263,54,o),
(246,64,cs),
(207,87,o),
(177,126,o),
(168,169,cs),
(166,177,o),
(164,193,o),
(164,209,cs),
(164,311,ls),
(164,328,o),
(151,341,o),
(134,341,cs),
(117,341,o),
(104,328,o),
(104,311,cs),
(104,210,ls),
(104,205,o),
(104,178,o),
(108,157,cs),
(122,93,o),
(165,42,o),
(215,12,cs),
(237,-1,o),
(261,-11,o),
(285,-18,cs),
(309,-25,o),
(334,-28,o),
(359,-28,cs),
(384,-28,o),
(409,-25,o),
(433,-18,cs),
(457,-11,o),
(481,-1,o),
(503,12,cs),
(553,42,o),
(596,93,o),
(610,157,cs),
(614,178,o),
(614,205,o),
(614,210,cs),
(614,311,ls),
(614,328,o),
(601,341,o),
(584,341,cs),
(567,341,o),
(554,328,o),
(554,311,cs)
);
}
);
width = 690;
}
);
note = u;
unicode = 117;
},
{
glyphname = v;
layers = (
{
hints = (
{
horizontal = 1;
place = (-31, 21);
target = up;
type = BottomGhost;
},
{
horizontal = 1;
place = (670, -20);
target = down;
type = TopGhost;
},
{
place = (38, 537);
place = (38, 537);
type = Stem;
}
);
layerId = m01;
shapes = (
{
closed = 1;
nodes = (
(277,-11,ls),
(282,-23,o),
(293,-31,o),
(305,-31,cs),
(323,-31,o),
(336,-16,o),
(336,-1,cs),
(336,3,o),
(335,6,o),
(334,10,cs),
(97,650,ls),
(92,662,o),
(81,670,o),
(69,670,cs),
(51,670,o),
(38,655,o),
(38,640,cs),
(38,636,o),
(39,633,o),
(40,629,cs)
);
},
{
closed = 1;
nodes = (
(348,200,ls),
(347,197,o),
(346,193,o),
(346,189,cs),
(346,174,o),
(358,159,o),
(377,159,cs),
(389,159,o),
(400,167,o),
(405,179,cs),
(573,629,ls),
(574,632,o),
(575,636,o),
(575,640,cs),
(575,655,o),
(563,670,o),
(544,670,cs),
(532,670,o),
(521,662,o),
(516,650,cs)
);
}
);
width = 620;
}
);
note = v;
unicode = 118;
},
{
glyphname = w;
layers = (
{
hints = (
{
horizontal = 1;
place = (-30, 21);
target = up;
type = BottomGhost;
},
{
horizontal = 1;
place = (671, -20);
target = down;
type = TopGhost;
},
{
place = (38, 827);
place = (38, 827);
type = Stem;
},
{
horizontal = 1;
place = (-29, 21);
target = up;
type = BottomGhost;
}
);
layerId = m01;
shapes = (
{
closed = 1;
nodes = (
(277,-10,ls),
(282,-22,o),
(293,-30,o),
(305,-30,cs),
(323,-30,o),
(336,-15,o),
(336,0,cs),
(336,4,o),
(335,7,o),
(334,11,cs),
(97,651,ls),
(92,663,o),
(81,671,o),
(69,671,cs),
(51,671,o),
(38,656,o),
(38,641,cs),
(38,637,o),
(39,634,o),
(40,630,cs)
);
},
{
closed = 1;
nodes = (
(337,173,ls),
(336,170,o),
(335,166,o),
(335,162,cs),
(335,147,o),
(347,132,o),
(366,132,cs),
(378,132,o),
(389,140,o),
(394,152,cs),
(572,630,ls),
(573,633,o),
(574,637,o),
(574,641,cs),
(574,656,o),
(562,671,o),
(543,671,cs),
(531,671,o),
(520,663,o),
(515,651,cs)
);
},
{
closed = 1;
nodes = (
(637,197,ls),
(636,194,o),
(635,190,o),
(635,186,cs),
(635,171,o),
(647,156,o),
(666,156,cs),
(678,156,o),
(689,164,o),
(694,176,cs),
(863,630,ls),
(864,633,o),
(865,637,o),
(865,641,cs),
(865,656,o),
(853,671,o),
(834,671,cs),
(822,671,o),
(811,663,o),
(806,651,cs)
);
},
{
closed = 1;
nodes = (
(569,-10,ls),
(574,-22,o),
(585,-29,o),
(597,-29,cs),
(615,-29,o),
(626,-14,o),
(626,1,cs),
(626,4,o),
(625,8,o),
(624,11,cs),
(525,265,ls),
(520,277,o),
(509,284,o),
(497,284,cs),
(479,284,o),
(468,269,o),
(468,254,cs),
(468,251,o),
(469,247,o),
(470,244,cs)
);
}
);
width = 911;
}
);
note = w;
unicode = 119;
},
{
glyphname = x;
layers = (
{
hints = (
{
horizontal = 1;
place = (-30, 21);
target = up;
type = BottomGhost;
},
{
horizontal = 1;
place = (670, -20);
target = down;
type = TopGhost;
},
{
place = (48, 686);
place = (48, 686);
type = Stem;
},
{
horizontal = 1;
place = (-31, 21);
target = up;
type = BottomGhost;
},
{
horizontal = 1;
place = (669, -20);
target = down;
type = TopGhost;
}
);
layerId = m01;
shapes = (
{
closed = 1;
nodes = (
(682,-20,ls),
(688,-26,o),
(696,-30,o),
(704,-30,cs),
(711,-30,o),
(718,-27,o),
(724,-22,cs),
(730,-16,o),
(734,-8,o),
(734,0,cs),
(734,7,o),
(731,14,o),
(726,20,cs),
(141,660,ls),
(135,666,o),
(127,670,o),
(119,670,cs),
(112,670,o),
(105,667,o),
(99,662,cs),
(93,656,o),
(89,648,o),
(89,640,cs),
(89,633,o),
(92,626,o),
(97,620,cs)
);
},
{
closed = 1;
nodes = (
(455,453,ls),
(450,447,o),
(447,440,o),
(447,433,cs),
(447,425,o),
(451,417,o),
(457,411,cs),
(463,406,o),
(470,403,o),
(477,403,cs),
(485,403,o),
(493,407,o),
(499,413,cs),
(689,619,ls),
(694,625,o),
(697,632,o),
(697,639,cs),
(697,647,o),
(693,655,o),
(687,661,cs),
(681,666,o),
(674,669,o),
(667,669,cs),
(659,669,o),
(651,665,o),
(645,659,cs)
);
},
{
closed = 1;
nodes = (
(56,19,ls),
(51,13,o),
(48,6,o),
(48,-1,cs),
(48,-9,o),
(52,-17,o),
(58,-23,cs),
(64,-28,o),
(71,-31,o),
(78,-31,cs),
(86,-31,o),
(94,-27,o),
(100,-21,cs),
(339,237,ls),
(344,243,o),
(347,250,o),
(347,257,cs),
(347,265,o),
(343,273,o),
(337,279,cs),
(331,284,o),
(324,287,o),
(317,287,cs),
(309,287,o),
(301,283,o),
(295,277,cs)
);
}
);
width = 780;
}
);
note = x;
unicode = 120;
},
{
glyphname = y;
layers = (
{
hints = (
{
horizontal = 1;
place = (-30, 21);
target = up;
type = BottomGhost;
},
{
horizontal = 1;
place = (670, -20);
target = down;
type = TopGhost;
},
{
place = (297, 60);
place = (297, 60);
type = Stem;
}
);
layerId = m01;
shapes = (
{
closed = 1;
nodes = (
(305,322,ls),
(311,316,o),
(319,312,o),
(327,312,cs),
(334,312,o),
(341,315,o),
(347,320,cs),
(353,326,o),
(357,334,o),
(357,342,cs),
(357,349,o),
(354,356,o),
(349,362,cs),
(76,660,ls),
(70,666,o),
(62,670,o),
(54,670,cs),
(47,670,o),
(40,667,o),
(34,662,cs),
(28,656,o),
(24,648,o),
(24,640,cs),
(24,633,o),
(27,626,o),
(32,620,cs)
);
},
{
closed = 1;
nodes = (
(380,436,ls),
(375,430,o),
(372,423,o),
(372,416,cs),
(372,408,o),
(376,400,o),
(382,394,cs),
(388,389,o),
(395,386,o),
(402,386,cs),
(410,386,o),
(418,390,o),
(424,396,cs),
(623,620,ls),
(628,626,o),
(631,633,o),
(631,640,cs),
(631,648,o),
(627,656,o),
(621,662,cs),
(615,667,o),
(608,670,o),
(601,670,cs),
(593,670,o),
(585,666,o),
(579,660,cs)
);
},
{
closed = 1;
nodes = (
(297,0,ls),
(297,-17,o),
(310,-30,o),
(327,-30,cs),
(344,-30,o),
(357,-17,o),
(357,0,cs),
(357,240,ls),
(357,257,o),
(344,270,o),
(327,270,cs),
(310,270,o),
(297,257,o),
(297,240,cs)
);
}
);
width = 659;
}
);
note = y;
unicode = 121;
},
{
glyphname = z;
layers = (
{
hints = (
{
horizontal = 1;
place = (-30, 60);
place = (-30, 60);
type = Stem;
},
{
horizontal = 1;
place = (611, 60);
place = (611, 60);
type = Stem;
},
{
place = (56, 607);
place = (56, 607);
type = Stem;
}
);
layerId = m01;
shapes = (
{
closed = 1;
nodes = (
(103,671,ls),
(86,671,o),
(73,658,o),
(73,641,cs),
(73,624,o),
(86,611,o),
(103,611,cs),
(597,611,ls),
(614,611,o),
(627,624,o),
(627,641,cs),
(627,658,o),
(614,671,o),
(597,671,cs)
);
},
{
closed = 1;
nodes = (
(62,18,ls),
(58,12,o),
(56,6,o),
(56,-1,cs),
(56,-9,o),
(60,-18,o),
(67,-24,cs),
(73,-28,o),
(79,-30,o),
(86,-30,cs),
(94,-30,o),
(103,-26,o),
(109,-19,cs),
(551,527,ls),
(555,533,o),
(557,539,o),
(557,546,cs),
(557,554,o),
(553,563,o),
(546,569,cs),
(540,573,o),
(534,575,o),
(527,575,cs),
(519,575,o),
(510,571,o),
(504,564,cs)
);
},
{
closed = 1;
nodes = (
(234,30,ls),
(217,30,o),
(204,17,o),
(204,0,cs),
(204,-17,o),
(217,-30,o),
(234,-30,cs),
(633,-30,ls),
(650,-30,o),
(663,-17,o),
(663,0,cs),
(663,17,o),
(650,30,o),
(633,30,cs)
);
}
);
width = 703;
}
);
note = z;
unicode = 122;
},
{
glyphname = braceleft;
layers = (
{
hints = (
{
horizontal = 1;
place = (-125, 67.73);
place = (-125, 67.73);
type = Stem;
},
{
horizontal = 1;
place = (249, 60);
place = (249, 60);
type = Stem;
},
{
horizontal = 1;
place = (623, 64);
place = (623, 64);
type = Stem;
},
{
place = (34, 59);
place = (34, 59);
type = Stem;
}
);
layerId = m01;
shapes = (
{
closed = 1;
nodes = (
(34,310,l),
(31,309,o),
(27,309,o),
(14,309,cs),
(-3,309,o),
(-16,296,o),
(-16,279,cs),
(-16,262,o),
(-3,249,o),
(14,249,cs),
(23,249,o),
(29,248,o),
(33,247,c),
(33,-64,ls),
(33,-112,o),
(56,-125,o),
(80,-125,cs),
(99,-125,o),
(119,-117,o),
(128,-113,cs),
(147,-105,o),
(161,-96,o),
(161,-71,cs),
(161,-58,o),
(153,-48,o),
(141,-48,cs),
(138,-48,o),
(135,-48,o),
(131,-50,cs),
(91,-68,o),
(93,-51,o),
(93,-21,cs),
(93,255,ls),
(93,258,o),
(92,267,o),
(87,277,c),
(91,283,o),
(93,290,o),
(93,299,cs),
(93,586,ls),
(94,612,o),
(96,623,o),
(105,623,cs),
(111,623,o),
(119,619,o),
(132,612,cs),
(136,610,o),
(140,609,o),
(143,609,cs),
(155,609,o),
(162,621,o),
(162,633,cs),
(162,658,o),
(148,667,o),
(129,675,cs),
(120,679,o),
(100,687,o),
(81,687,cs),
(57,687,o),
(34,674,o),
(34,626,cs)
);
}
);
width = 170;
}
);
note = braceleft;
unicode = 123;
},
{
glyphname = bar;
layers = (
{
hints = (
{
horizontal = 1;
place = (-72, 746);
place = (-72, 746);
type = Stem;
},
{
place = (30, 60);
place = (30, 60);
type = Stem;
}
);
layerId = m01;
shapes = (
{
closed = 1;
nodes = (
(30,-42,ls),
(30,-59,o),
(43,-72,o),
(60,-72,cs),
(77,-72,o),
(90,-59,o),
(90,-42,cs),
(90,644,ls),
(90,661,o),
(77,674,o),
(60,674,cs),
(43,674,o),
(30,661,o),
(30,644,cs)
);
}
);
width = 120;
}
);
note = bar;
unicode = 124;
},
{
glyphname = braceright;
layers = (
{
hints = (
{
horizontal = 1;
place = (-125, 68);
place = (-125, 68);
type = Stem;
},
{
horizontal = 1;
place = (249, 60);
place = (249, 60);
type = Stem;
},
{
horizontal = 1;
place = (623, 64);
place = (623, 64);
type = Stem;
},
{
place = (52, 60);
place = (52, 60);
type = Stem;
}
);
layerId = m01;
shapes = (
{
closed = 1;
nodes = (
(52,299,l),
(53,290,o),
(55,283,o),
(59,277,c),
(54,267,o),
(53,258,o),
(53,255,cs),
(53,-21,ls),
(53,-43,o),
(54,-57,o),
(40,-57,cs),
(34,-57,o),
(26,-55,o),
(15,-50,cs),
(11,-48,o),
(8,-48,o),
(5,-48,cs),
(-7,-48,o),
(-15,-58,o),
(-15,-71,cs),
(-15,-96,o),
(-1,-105,o),
(18,-113,cs),
(27,-117,o),
(47,-125,o),
(66,-125,cs),
(90,-125,o),
(113,-112,o),
(113,-64,cs),
(113,247,l),
(117,248,o),
(123,249,o),
(132,249,cs),
(149,249,o),
(162,262,o),
(162,279,cs),
(162,296,o),
(149,309,o),
(132,309,cs),
(119,309,o),
(115,309,o),
(112,310,c),
(112,626,ls),
(112,674,o),
(89,687,o),
(65,687,cs),
(46,687,o),
(26,679,o),
(17,675,cs),
(-2,667,o),
(-16,658,o),
(-16,633,cs),
(-16,621,o),
(-9,609,o),
(3,609,cs),
(6,609,o),
(10,610,o),
(14,612,cs),
(27,619,o),
(35,623,o),
(41,623,cs),
(50,623,o),
(52,612,o),
(52,586,cs)
);
}
);
width = 170;
}
);
note = braceright;
unicode = 125;
},
{
glyphname = asciitilde;
layers = (
{
hints = (
{
horizontal = 1;
place = (491, 63);
place = (491, 63);
type = Stem;
},
{
place = (211, 61);
place = (211, 61);
type = Stem;
},
{
horizontal = 1;
place = (554, 63);
place = (554, 63);
type = Stem;
},
{
place = (-8, 62);
place = (-8, 62);
type = Stem;
}
);
layerId = m01;
shapes = (
{
closed = 1;
nodes = (
(272,572,l),
(272,575,o),
(271,584,o),
(270,587,cs),
(267,601,o),
(254,611,o),
(240,611,cs),
(222,611,o),
(208,594,o),
(211,576,cs),
(212,573,o),
(212,576,o),
(212,573,cs),
(212,570,o),
(212,570,o),
(211,568,c),
(211,568,o),
(214,574,o),
(211,566,cs),
(210,563,o),
(208,560,o),
(204,558,cs),
(201,556,o),
(197,554,o),
(192,554,cs),
(191,554,ls),
(187,554,o),
(182,555,o),
(177,557,cs),
(163,563,o),
(160,568,o),
(136,588,cs),
(121,600,o),
(111,606,o),
(104,609,cs),
(90,615,o),
(87,616,o),
(75,617,cs),
(67,617,l),
(61,617,ls),
(26,614,o),
(8,591,o),
(5,586,cs),
(-4,573,o),
(-8,558,o),
(-8,543,cs),
(-8,536,o),
(-7,529,o),
(-4,520,cs),
(0,507,o),
(12,500,o),
(24,500,cs),
(44,500,o),
(54,514,o),
(54,529,cs),
(54,533,o),
(54,536,o),
(53,539,c),
(53,542,ls),
(53,543,o),
(53,546,o),
(55,549,cs),
(58,553,o),
(64,554,o),
(67,554,cs),
(69,554,l),
(72,554,ls),
(76,554,o),
(78,553,o),
(82,551,cs),
(88,549,o),
(94,545,o),
(101,539,cs),
(112,530,o),
(133,509,o),
(158,499,cs),
(169,494,o),
(182,491,o),
(195,491,cs),
(199,491,ls),
(216,492,o),
(230,498,o),
(241,505,cs),
(252,512,o),
(264,524,o),
(271,540,cs),
(273,544,o),
(274,546,o),
(274,548,c),
(277,557,o),
(277,557,o),
(278,571,c)
);
}
);
width = 264;
}
);
note = asciitilde;
unicode = 126;
},
{
glyphname = uni00A0;
layers = (
{
hints = (
{
horizontal = 1;
place = (286, 60);
place = (286, 60);
type = Stem;
},
{
place = (16, 144);
place = (16, 144);
type = Stem;
}
);
layerId = m01;
shapes = (
{
closed = 1;
nodes = (
(46,346,ls),
(29,346,o),
(16,333,o),
(16,316,cs),
(16,299,o),
(29,286,o),
(46,286,cs),
(130,286,ls),
(147,286,o),
(160,299,o),
(160,316,cs),
(160,333,o),
(147,346,o),
(130,346,cs)
);
}
);
width = 181;
}
);
note = uni00A0;
unicode = 160;
},
{
glyphname = exclamdown;
layers = (
{
hints = (
{
horizontal = 1;
place = (496, 134);
place = (496, 134);
type = Stem;
},
{
place = (35, 60);
place = (35, 60);
type = Stem;
}
);
layerId = m01;
shapes = (
{
closed = 1;
nodes = (
(28,630,o),
(-2,600,o),
(-2,563,cs),
(-2,526,o),
(28,496,o),
(65,496,cs),
(102,496,o),
(132,526,o),
(132,563,cs),
(132,600,o),
(102,630,o),
(65,630,cs)
);
},
{
closed = 1;
nodes = (
(35,-44,ls),
(35,-61,o),
(48,-74,o),
(65,-74,cs),
(82,-74,o),
(95,-61,o),
(95,-44,cs),
(95,446,ls),
(95,463,o),
(82,476,o),
(65,476,cs),
(48,476,o),
(35,463,o),
(35,446,cs)
);
}
);
width = 130;
}
);
note = exclamdown;
unicode = 161;
},
{
glyphname = cent;
layers = (
{
hints = (
{
horizontal = 1;
place = (-27, 55);
place = (-27, 55);
type = Stem;
},
{
horizontal = 1;
place = (561, 56);
place = (561, 56);
type = Stem;
},
{
place = (35, 56);
place = (35, 56);
type = Stem;
},
{
place = (289, 60);
place = (289, 60);
type = Stem;
}
);
layerId = m01;
shapes = (
{
closed = 1;
nodes = (
(332,-27,ls),
(401,-27,o),
(478,0,o),
(536,58,cs),
(542,64,o),
(544,71,o),
(544,78,cs),
(544,85,o),
(542,92,o),
(536,97,c),
(531,103,o),
(524,105,o),
(517,105,cs),
(510,105,o),
(503,103,o),
(497,97,cs),
(450,50,o),
(387,28,o),
(331,28,cs),
(327,28,ls),
(285,29,o),
(243,42,o),
(207,65,cs),
(171,88,o),
(141,121,o),
(121,160,cs),
(102,197,o),
(92,239,o),
(91,281,cs),
(91,291,ls),
(91,330,o),
(98,369,o),
(112,405,cs),
(128,446,o),
(158,493,o),
(207,525,cs),
(237,545,o),
(279,561,o),
(327,561,cs),
(375,561,o),
(417,545,o),
(447,525,cs),
(452,522,o),
(457,521,o),
(461,521,cs),
(471,521,o),
(480,526,o),
(485,534,cs),
(488,539,o),
(489,544,o),
(489,548,cs),
(489,558,o),
(484,567,o),
(476,572,cs),
(432,601,o),
(380,617,o),
(327,617,cs),
(274,617,o),
(222,601,o),
(178,572,cs),
(124,537,o),
(84,484,o),
(61,426,cs),
(44,383,o),
(35,337,o),
(35,291,cs),
(35,278,ls),
(37,228,o),
(49,178,o),
(72,133,cs),
(96,86,o),
(132,45,o),
(177,17,cs),
(221,-11,o),
(273,-26,o),
(325,-27,cs)
);
},
{
closed = 1;
nodes = (
(289,110,ls),
(289,93,o),
(302,80,o),
(319,80,cs),
(336,80,o),
(349,93,o),
(349,110,cs),
(349,466,ls),
(349,483,o),
(336,496,o),
(319,496,cs),
(302,496,o),
(289,483,o),
(289,466,cs)
);
}
);
width = 598;
}
);
note = cent;
unicode = 162;
},
{
glyphname = sterling;
layers = (
{
hints = (
{
horizontal = 1;
place = (-31, 21);
target = up;
type = BottomGhost;
},
{
horizontal = 1;
place = (77, 60);
place = (77, 60);
type = Stem;
},
{
horizontal = 1;
place = (249, 60);
place = (249, 60);
type = Stem;
},
{
horizontal = 1;
place = (578, 62);
place = (578, 62);
type = Stem;
},
{
place = (-16, 60);
place = (-16, 60);
type = Stem;
},
{
place = (132, 61);
place = (132, 61);
type = Stem;
},
{
place = (345, 57);
place = (345, 57);
type = Stem;
},
{
horizontal = 1;
place = (-35, 21);
target = up;
type = BottomGhost;
},
{
horizontal = 1;
place = (-22, 60);
place = (-22, 60);
type = Stem;
},
{
place = (86, 59);
place = (86, 59);
type = Stem;
},
{
horizontal = 1;
place = (-35, 60);
place = (-35, 60);
type = Stem;
}
);
layerId = m01;
shapes = (
{
closed = 1;
nodes = (
(119,310,l),
(41,310,ls),
(24,310,o),
(11,297,o),
(11,280,cs),
(11,263,o),
(24,250,o),
(41,250,cs),
(129,250,l),
(131,230,o),
(132,210,o),
(132,190,cs),
(132,187,ls),
(132,167,o),
(131,147,o),
(129,128,c),
(120,131,ls),
(108,135,o),
(95,137,o),
(82,137,cs),
(67,137,o),
(51,134,o),
(36,127,cs),
(20,119,o),
(8,108,o),
(0,97,cs),
(-8,86,o),
(-15,70,o),
(-16,51,cs),
(-16,47,ls),
(-16,34,o),
(-13,18,o),
(-3,3,cs),
(6,-11,o),
(19,-22,o),
(35,-28,cs),
(43,-31,ls),
(52,-34,o),
(52,-34,o),
(67,-35,c),
(80,-34,ls),
(95,-32,o),
(109,-27,o),
(121,-19,cs),
(144,-4,o),
(159,18,o),
(168,38,c),
(183,28,o),
(199,17,o),
(217,7,cs),
(241,-6,o),
(267,-16,o),
(296,-20,cs),
(305,-21,o),
(314,-22,o),
(323,-22,cs),
(348,-22,o),
(374,-17,o),
(398,-6,cs),
(430,9,o),
(456,34,o),
(472,65,cs),
(474,70,o),
(476,74,o),
(476,79,cs),
(476,95,o),
(464,110,o),
(445,110,cs),
(434,110,o),
(424,103,o),
(418,93,cs),
(408,74,o),
(391,58,o),
(371,49,cs),
(356,42,o),
(339,38,o),
(322,38,cs),
(316,38,o),
(310,38,o),
(304,39,cs),
(284,42,o),
(264,49,o),
(245,59,cs),
(226,69,o),
(207,83,o),
(186,97,c),
(192,127,o),
(193,157,o),
(193,185,cs),
(193,189,ls),
(193,209,o),
(192,229,o),
(190,249,c),
(321,249,ls),
(338,249,o),
(351,262,o),
(351,279,cs),
(351,296,o),
(338,309,o),
(321,309,cs),
(180,309,l),
(177,327,ls),
(169,359,o),
(159,389,o),
(152,418,cs),
(148,436,o),
(145,453,o),
(145,469,cs),
(145,479,o),
(146,489,o),
(148,498,cs),
(152,515,o),
(161,535,o),
(178,551,cs),
(192,565,o),
(211,574,o),
(231,577,cs),
(235,578,o),
(239,578,o),
(244,578,cs),
(257,578,o),
(270,575,o),
(282,570,cs),
(298,564,o),
(312,553,o),
(323,540,cs),
(334,527,o),
(341,511,o),
(344,494,cs),
(345,489,o),
(345,484,o),
(345,479,c),
(342,480,l),
(342,468,o),
(340,456,o),
(336,445,cs),
(335,442,o),
(334,438,o),
(334,434,cs),
(334,419,o),
(346,404,o),
(365,404,cs),
(377,404,o),
(388,412,o),
(393,424,cs),
(399,442,o),
(402,461,o),
(402,480,cs),
(402,488,o),
(401,496,o),
(400,504,cs),
(396,531,o),
(385,557,o),
(368,579,cs),
(351,601,o),
(329,618,o),
(304,628,cs),
(285,636,o),
(265,640,o),
(244,640,cs),
(238,640,o),
(232,640,o),
(224,639,cs),
(191,635,o),
(160,620,o),
(136,597,cs),
(110,572,o),
(96,540,o),
(90,513,cs),
(87,499,o),
(86,485,o),
(86,471,cs),
(86,449,o),
(89,427,o),
(94,406,cs),
(101,373,o),
(111,343,o),
(118,314,cs)
);
},
{
closed = 1;
nodes = (
(117,70,l),
(115,65,ls),
(108,50,o),
(99,38,o),
(89,31,cs),
(84,28,o),
(79,26,o),
(74,25,cs),
(70,25,ls),
(66,25,o),
(65,25,o),
(62,26,cs),
(61,26,o),
(59,27,o),
(59,27,c),
(54,29,o),
(50,32,o),
(48,35,cs),
(46,38,o),
(44,42,o),
(44,47,cs),
(44,48,ls),
(44,52,o),
(45,57,o),
(48,62,cs),
(51,66,o),
(55,70,o),
(61,73,cs),
(67,76,o),
(74,77,o),
(82,77,cs),
(89,77,o),
(96,76,o),
(103,74,cs),
(107,73,o),
(111,71,o),
(115,69,c)
);
}
);
width = 455;
}
);
note = sterling;
unicode = 163;
},
{
glyphname = currency;
layers = (
{
hints = (
{
horizontal = 1;
place = (159, 62);
place = (159, 62);
type = Stem;
},
{
horizontal = 1;
place = (435, 62);
place = (435, 62);
type = Stem;
},
{
place = (74, 61);
place = (74, 61);
type = Stem;
},
{
place = (350, 62);
place = (350, 62);
type = Stem;
}
);
layerId = m01;
shapes = (
{
closed = 1;
nodes = (
(339,467,l),
(310,487,o),
(276,497,o),
(243,497,cs),
(210,497,o),
(176,487,o),
(147,467,c),
(93,521,ls),
(87,527,o),
(79,530,o),
(72,530,cs),
(64,530,o),
(56,527,o),
(50,521,cs),
(44,515,o),
(41,507,o),
(41,500,cs),
(41,492,o),
(44,484,o),
(50,478,cs),
(104,424,l),
(84,395,o),
(74,361,o),
(74,328,cs),
(74,295,o),
(84,261,o),
(104,232,c),
(50,178,ls),
(44,172,o),
(41,164,o),
(41,157,cs),
(41,149,o),
(44,141,o),
(50,135,cs),
(56,129,o),
(64,126,o),
(72,126,cs),
(79,126,o),
(87,129,o),
(93,135,cs),
(147,189,l),
(176,169,o),
(210,159,o),
(243,159,cs),
(276,159,o),
(310,169,o),
(339,189,c),
(393,135,ls),
(399,129,o),
(407,126,o),
(415,126,cs),
(422,126,o),
(430,129,o),
(436,135,cs),
(442,141,o),
(445,149,o),
(445,157,cs),
(445,164,o),
(442,172,o),
(436,178,cs),
(382,232,l),
(402,261,o),
(412,295,o),
(412,328,cs),
(412,361,o),
(402,395,o),
(382,424,c),
(436,478,ls),
(442,484,o),
(445,492,o),
(445,500,cs),
(445,507,o),
(442,515,o),
(436,521,cs),
(430,527,o),
(422,530,o),
(415,530,cs),
(407,530,o),
(399,527,o),
(393,521,cs)
);
},
{
closed = 1;
nodes = (
(319,405,l),
(340,384,o),
(350,357,o),
(350,329,cs),
(350,304,o),
(341,279,o),
(323,259,c),
(321,258,o),
(319,256,o),
(317,254,cs),
(315,252,o),
(313,250,o),
(312,248,c),
(292,230,o),
(267,221,o),
(242,221,cs),
(214,221,o),
(187,231,o),
(166,252,cs),
(145,273,o),
(135,300,o),
(135,328,cs),
(135,354,o),
(144,380,o),
(163,401,cs),
(166,404,l),
(169,407,ls),
(190,426,o),
(216,435,o),
(242,435,cs),
(270,435,o),
(297,425,o),
(318,404,c)
);
}
);
width = 484;
}
);
note = currency;
unicode = 164;
},
{
glyphname = yen;
layers = (
{
hints = (
{
horizontal = 1;
place = (-31, 21);
target = up;
type = BottomGhost;
},
{
horizontal = 1;
place = (216, 54);
place = (216, 54);
type = Stem;
},
{
horizontal = 1;
place = (318, 53);
place = (318, 53);
type = Stem;
},
{
horizontal = 1;
place = (671, -20);
target = down;
type = TopGhost;
},
{
place = (313, 60);
place = (313, 60);
type = Stem;
}
);
layerId = m01;
shapes = (
{
closed = 1;
nodes = (
(277,371,l),
(192,371,ls),
(175,372,o),
(162,360,o),
(162,345,cs),
(162,330,o),
(175,318,o),
(192,318,cs),
(506,318,ls),
(523,318,o),
(536,330,o),
(536,345,cs),
(536,360,o),
(523,372,o),
(506,372,c),
(506,371,l),
(358,371,l),
(93,661,ls),
(87,667,o),
(79,671,o),
(71,671,cs),
(64,671,o),
(57,668,o),
(51,663,cs),
(45,657,o),
(41,649,o),
(41,641,cs),
(41,634,o),
(44,627,o),
(49,621,cs)
);
},
{
closed = 1;
nodes = (
(423,473,ls),
(418,467,o),
(415,460,o),
(415,453,cs),
(415,445,o),
(419,437,o),
(425,431,cs),
(431,426,o),
(438,423,o),
(445,423,cs),
(453,423,o),
(461,427,o),
(467,433,cs),
(640,621,ls),
(645,627,o),
(648,634,o),
(648,641,cs),
(648,649,o),
(644,657,o),
(638,663,cs),
(632,668,o),
(625,671,o),
(618,671,cs),
(610,671,o),
(602,667,o),
(596,661,cs)
);
},
{
closed = 1;
nodes = (
(192,270,ls),
(175,270,o),
(162,258,o),
(162,243,cs),
(162,228,o),
(175,216,o),
(192,216,cs),
(313,216,l),
(313,-1,ls),
(313,-18,o),
(326,-31,o),
(343,-31,cs),
(360,-31,o),
(373,-18,o),
(373,-1,cs),
(373,216,l),
(506,216,ls),
(523,216,o),
(536,228,o),
(536,243,cs),
(536,258,o),
(523,270,o),
(506,270,cs)
);
}
);
width = 690;
}
);
note = yen;
unicode = 165;
},
{
glyphname = brokenbar;
layers = (
{
hints = (
{
horizontal = 1;
place = (-30, 21);
target = up;
type = BottomGhost;
},
{
horizontal = 1;
place = (642, -20);
target = down;
type = TopGhost;
},
{
place = (30, 60);
place = (30, 60);
type = Stem;
}
);
layerId = m01;
shapes = (
{
closed = 1;
nodes = (
(30,377,ls),
(30,360,o),
(43,347,o),
(60,347,cs),
(77,347,o),
(90,360,o),
(90,377,cs),
(90,612,ls),
(90,629,o),
(77,642,o),
(60,642,cs),
(43,642,o),
(30,629,o),
(30,612,cs)
);
},
{
closed = 1;
nodes = (
(30,0,ls),
(30,-17,o),
(43,-30,o),
(60,-30,cs),
(77,-30,o),
(90,-17,o),
(90,0,cs),
(90,235,ls),
(90,252,o),
(77,265,o),
(60,265,cs),
(43,265,o),
(30,252,o),
(30,235,cs)
);
}
);
width = 120;
}
);
note = brokenbar;
unicode = 166;
},
{
glyphname = section;
layers = (
{
hints = (
{
horizontal = 1;
place = (-116, 61);
place = (-116, 61);
type = Stem;
},
{
horizontal = 1;
place = (619, 58);
place = (619, 58);
type = Stem;
},
{
place = (77, 59);
place = (77, 59);
type = Stem;
},
{
place = (458, 60);
place = (458, 60);
type = Stem;
},
{
place = (447, 50);
place = (447, 50);
type = Stem;
},
{
place = (505, 59);
place = (505, 59);
type = Stem;
}
);
layerId = m01;
shapes = (
{
closed = 1;
nodes = (
(458,625,l),
(434,643,o),
(408,657,o),
(380,666,cs),
(359,673,o),
(336,677,o),
(313,677,cs),
(299,677,ls),
(271,675,o),
(243,667,o),
(218,652,cs),
(193,637,o),
(172,615,o),
(158,588,cs),
(153,579,o),
(149,570,o),
(146,561,c),
(126,546,o),
(109,527,o),
(97,504,cs),
(84,480,o),
(77,452,o),
(77,424,cs),
(77,416,ls),
(78,391,o),
(85,367,o),
(96,346,cs),
(107,325,o),
(122,306,o),
(139,291,cs),
(173,260,o),
(213,244,o),
(251,232,cs),
(292,219,o),
(346,209,o),
(383,186,cs),
(401,175,o),
(417,161,o),
(428,144,cs),
(439,127,o),
(446,107,o),
(447,87,cs),
(447,80,ls),
(447,54,o),
(437,27,o),
(421,7,cs),
(403,-16,o),
(377,-33,o),
(349,-43,cs),
(327,-51,o),
(303,-55,o),
(279,-55,cs),
(268,-55,o),
(257,-54,o),
(246,-52,cs),
(189,-43,o),
(129,-12,o),
(94,17,cs),
(88,22,o),
(81,24,o),
(75,24,cs),
(66,24,o),
(57,20,o),
(51,13,cs),
(46,7,o),
(44,0,o),
(44,-6,cs),
(44,-15,o),
(48,-24,o),
(55,-30,cs),
(68,-41,o),
(82,-51,o),
(96,-60,cs),
(138,-87,o),
(185,-106,o),
(235,-113,cs),
(249,-115,o),
(263,-116,o),
(277,-116,cs),
(307,-116,o),
(337,-111,o),
(366,-101,cs),
(399,-90,o),
(437,-69,o),
(466,-33,cs),
(478,-18,o),
(487,-1,o),
(494,17,c),
(507,27,o),
(517,39,o),
(526,51,cs),
(550,82,o),
(564,121,o),
(564,161,cs),
(564,172,ls),
(562,203,o),
(551,233,o),
(534,258,cs),
(517,283,o),
(495,303,o),
(471,318,cs),
(426,346,o),
(370,357,o),
(326,371,cs),
(274,388,o),
(251,405,o),
(237,418,cs),
(225,429,o),
(215,442,o),
(208,456,cs),
(201,470,o),
(197,486,o),
(196,502,cs),
(196,508,ls),
(196,516,o),
(197,524,o),
(199,532,c),
(200,534,o),
(200,536,o),
(200,538,c),
(202,546,o),
(205,554,o),
(209,561,cs),
(218,578,o),
(232,592,o),
(248,602,cs),
(264,612,o),
(283,618,o),
(302,619,cs),
(312,619,ls),
(328,619,o),
(344,616,o),
(360,611,cs),
(406,596,o),
(441,564,o),
(463,534,cs),
(469,526,o),
(478,521,o),
(487,521,cs),
(490,521,o),
(494,522,o),
(497,523,cs),
(510,527,o),
(518,538,o),
(518,552,cs),
(518,647,ls),
(518,664,o),
(505,677,o),
(488,677,cs),
(471,677,o),
(458,664,o),
(458,647,cs)
);
},
{
closed = 1;
nodes = (
(497,122,l),
(492,140,o),
(484,157,o),
(474,173,cs),
(457,198,o),
(435,218,o),
(411,233,cs),
(366,261,o),
(310,272,o),
(266,286,cs),
(214,303,o),
(191,320,o),
(177,333,cs),
(165,344,o),
(155,357,o),
(148,371,cs),
(141,385,o),
(137,401,o),
(136,417,cs),
(136,423,ls),
(136,436,o),
(138,449,o),
(142,461,c),
(145,449,o),
(149,438,o),
(154,427,cs),
(165,406,o),
(180,387,o),
(197,372,cs),
(231,341,o),
(271,325,o),
(309,313,cs),
(350,300,o),
(404,290,o),
(441,267,cs),
(459,256,o),
(475,242,o),
(486,225,cs),
(497,208,o),
(504,188,o),
(505,168,cs),
(505,161,ls),
(505,148,o),
(503,135,o),
(499,123,c)
);
}
);
width = 614;
}
);
note = section;
unicode = 167;
},
{
glyphname = dieresis;
layers = (
{
hints = (
{
horizontal = 1;
place = (544, 76);
place = (544, 76);
type = Stem;
},
{
place = (38, 76);
place = (38, 76);
type = Stem;
},
{
place = (146, 76);
place = (146, 76);
type = Stem;
}
);
layerId = m01;
shapes = (
{
closed = 1;
nodes = (
(53,620,o),
(38,601,o),
(38,582,cs),
(38,559,o),
(57,544,o),
(76,544,cs),
(99,544,o),
(114,563,o),
(114,582,cs),
(114,605,o),
(95,620,o),
(76,620,cs)
);
},
{
closed = 1;
nodes = (
(161,620,o),
(146,601,o),
(146,582,cs),
(146,559,o),
(165,544,o),
(184,544,cs),
(207,544,o),
(222,563,o),
(222,582,cs),
(222,605,o),
(203,620,o),
(184,620,cs)
);
}
);
width = 260;
}
);
note = dieresis;
unicode = 168;
},
{
glyphname = copyright;
layers = (
{
hints = (
{
horizontal = 1;
place = (419, 20);
place = (419, 20);
type = Stem;
},
{
horizontal = 1;
place = (601, 20);
place = (601, 20);
type = Stem;
},
{
place = (2, 20);
place = (2, 20);
type = Stem;
},
{
place = (57, 17);
place = (57, 17);
type = Stem;
},
{
place = (184, 20);
place = (184, 20);
type = Stem;
},
{
horizontal = 1;
place = (468, 13);
place = (468, 13);
type = Stem;
},
{
horizontal = 1;
place = (561, 24);
place = (561, 24);
type = Stem;
},
{
place = (130, 19);
place = (130, 19);
type = Stem;
}
);
layerId = m01;
shapes = (
{
closed = 1;
nodes = (
(47,621,o),
(2,576,o),
(2,520,cs),
(2,464,o),
(47,419,o),
(103,419,cs),
(159,419,o),
(204,464,o),
(204,520,cs),
(204,576,o),
(159,621,o),
(103,621,cs)
);
},
{
closed = 1;
nodes = (
(148,601,o),
(184,565,o),
(184,520,cs),
(184,475,o),
(148,439,o),
(103,439,cs),
(58,439,o),
(22,475,o),
(22,520,cs),
(22,565,o),
(58,601,o),
(103,601,cs)
);
},
{
closed = 1;
nodes = (
(149,559,l),
(149,574,ls),
(149,580,o),
(145,584,o),
(139,584,cs),
(135,584,o),
(132,582,o),
(130,579,c),
(125,582,o),
(119,584,o),
(112,585,cs),
(108,585,ls),
(100,585,o),
(92,583,o),
(85,579,cs),
(78,575,o),
(71,569,o),
(66,560,cs),
(60,550,o),
(58,538,o),
(57,527,cs),
(57,521,ls),
(57,510,o),
(59,498,o),
(65,487,cs),
(71,478,o),
(79,472,o),
(86,468,cs),
(95,464,o),
(105,462,o),
(114,462,cs),
(125,462,o),
(135,464,o),
(144,468,cs),
(148,469,o),
(150,473,o),
(150,477,cs),
(150,478,o),
(150,480,o),
(149,481,c),
(148,485,o),
(144,487,o),
(140,487,cs),
(139,487,o),
(137,487,o),
(136,486,c),
(129,483,o),
(121,481,o),
(113,481,cs),
(106,481,o),
(99,482,o),
(93,485,cs),
(87,488,o),
(83,492,o),
(80,496,cs),
(76,502,o),
(74,510,o),
(74,519,cs),
(74,523,ls),
(75,532,o),
(77,540,o),
(81,547,cs),
(84,552,o),
(88,556,o),
(92,558,cs),
(96,560,o),
(101,561,o),
(106,561,cs),
(108,561,ls),
(121,560,o),
(127,552,o),
(128,550,cs),
(130,547,o),
(133,546,o),
(136,546,cs),
(139,546,ls),
(143,547,o),
(146,551,o),
(146,556,c)
);
}
);
width = 212;
}
);
note = copyright;
unicode = 169;
},
{
glyphname = ordfeminine;
layers = (
{
hints = (
{
horizontal = 1;
place = (481, 32);
place = (481, 32);
type = Stem;
},
{
place = (223, 83);
place = (223, 83);
type = Stem;
}
);
layerId = m01;
shapes = (
{
closed = 1;
nodes = (
(392,375,ls),
(394,369,o),
(400,365,o),
(407,365,cs),
(408,365,o),
(410,365,o),
(412,366,cs),
(418,368,o),
(422,374,o),
(422,381,cs),
(422,382,o),
(422,384,o),
(421,386,cs),
(279,720,ls),
(277,726,o),
(271,730,o),
(264,730,cs),
(263,730,o),
(261,730,o),
(259,729,cs),
(253,727,o),
(249,721,o),
(249,714,cs),
(249,713,o),
(249,711,o),
(250,709,cs)
);
},
{
closed = 1;
nodes = (
(109,386,ls),
(105,376,o),
(112,365,o),
(123,365,cs),
(130,365,o),
(136,369,o),
(138,375,cs),
(253,645,ls),
(257,655,o),
(250,666,o),
(239,666,cs),
(232,666,o),
(226,662,o),
(224,656,cs)
);
},
{
closed = 1;
nodes = (
(223,513,ls),
(214,513,o),
(207,506,o),
(207,497,cs),
(207,488,o),
(214,481,o),
(223,481,cs),
(306,481,ls),
(315,481,o),
(322,488,o),
(322,497,cs),
(322,506,o),
(315,513,o),
(306,513,cs)
);
}
);
width = 356;
}
);
note = ordfeminine;
unicode = 170;
},
{
glyphname = guillemotleft;
layers = (
{
hints = (
{
horizontal = 1;
place = (38, 182);
place = (38, 182);
type = Stem;
},
{
place = (36, 356);
place = (36, 356);
type = Stem;
}
);
layerId = m01;
shapes = (
{
closed = 1;
nodes = (
(130,128,l),
(133,131,l),
(155,142,o),
(176,154,o),
(196,165,cs),
(205,170,o),
(211,180,o),
(211,191,cs),
(211,196,o),
(210,200,o),
(207,205,cs),
(202,214,o),
(192,220,o),
(181,220,cs),
(176,220,o),
(172,219,o),
(167,216,cs),
(147,204,o),
(127,192,o),
(108,182,cs),
(89,172,o),
(71,162,o),
(54,155,cs),
(43,150,o),
(36,140,o),
(36,128,cs),
(36,116,o),
(42,106,o),
(53,101,cs),
(70,94,o),
(88,84,o),
(107,74,cs),
(166,42,ls),
(171,40,o),
(176,38,o),
(180,38,cs),
(195,38,o),
(210,49,o),
(210,67,cs),
(210,78,o),
(204,88,o),
(195,93,cs),
(175,104,o),
(154,116,o),
(132,127,cs)
);
},
{
closed = 1;
nodes = (
(316,131,l),
(337,141,o),
(357,152,o),
(377,163,cs),
(386,168,o),
(392,178,o),
(392,189,cs),
(392,194,o),
(391,198,o),
(388,203,cs),
(383,212,o),
(373,218,o),
(362,218,cs),
(357,218,o),
(353,217,o),
(348,214,cs),
(328,203,o),
(308,192,o),
(288,182,cs),
(270,173,o),
(252,165,o),
(234,157,cs),
(223,152,o),
(216,142,o),
(216,130,cs),
(216,118,o),
(222,108,o),
(233,103,cs),
(251,95,o),
(269,87,o),
(287,78,cs),
(307,68,o),
(327,58,o),
(347,47,cs),
(352,45,o),
(357,43,o),
(361,43,cs),
(376,43,o),
(391,54,o),
(391,72,cs),
(391,83,o),
(385,93,o),
(376,98,cs),
(356,109,o),
(336,120,o),
(316,130,c)
);
}
);
width = 426;
}
);
note = guillemotleft;
unicode = 171;
},
{
glyphname = logicalnot;
layers = (
{
hints = (
{
horizontal = 1;
place = (251, 60);
place = (251, 60);
type = Stem;
},
{
place = (231, 60);
place = (231, 60);
type = Stem;
}
);
layerId = m01;
shapes = (
{
closed = 1;
nodes = (
(16,311,ls),
(-1,311,o),
(-14,298,o),
(-14,281,cs),
(-14,264,o),
(-1,251,o),
(16,251,cs),
(231,251,l),
(231,209,ls),
(231,192,o),
(244,179,o),
(261,179,cs),
(278,179,o),
(291,192,o),
(291,209,cs),
(291,281,ls),
(291,298,o),
(278,311,o),
(261,311,cs)
);
}
);
width = 277;
}
);
note = logicalnot;
unicode = 172;
},
{
glyphname = uni00AD;
layers = (
{
hints = (
{
horizontal = 1;
place = (251, 60);
place = (251, 60);
type = Stem;
},
{
place = (15, 185);
place = (15, 185);
type = Stem;
}
);
layerId = m01;
shapes = (
{
closed = 1;
nodes = (
(45,311,ls),
(28,311,o),
(15,298,o),
(15,281,cs),
(15,264,o),
(28,251,o),
(45,251,cs),
(170,251,ls),
(187,251,o),
(200,264,o),
(200,281,cs),
(200,298,o),
(187,311,o),
(170,311,cs)
);
}
);
width = 228;
}
);
note = uni00AD;
unicode = 173;
},
{
glyphname = registered;
layers = (
{
hints = (
{
horizontal = 1;
place = (421, 20);
place = (421, 20);
type = Stem;
},
{
horizontal = 1;
place = (515, 20);
place = (515, 20);
type = Stem;
},
{
horizontal = 1;
place = (603, 20);
place = (603, 20);
type = Stem;
},
{
place = (7, 20);
place = (7, 20);
type = Stem;
},
{
place = (76, 18);
place = (76, 18);
type = Stem;
},
{
place = (189, 20);
place = (189, 20);
type = Stem;
},
{
horizontal = 1;
place = (461, 19);
place = (461, 19);
type = Stem;
},
{
horizontal = 1;
place = (564, 19);
place = (564, 19);
type = Stem;
},
{
place = (112, 37);
place = (112, 37);
type = Stem;
}
);
layerId = m01;
shapes = (
{
closed = 1;
nodes = (
(52,623,o),
(7,578,o),
(7,522,cs),
(7,466,o),
(52,421,o),
(108,421,cs),
(164,421,o),
(209,466,o),
(209,522,cs),
(209,578,o),
(164,623,o),
(108,623,cs)
);
},
{
closed = 1;
nodes = (
(153,603,o),
(189,567,o),
(189,522,cs),
(189,477,o),
(153,441,o),
(108,441,cs),
(63,441,o),
(27,477,o),
(27,522,cs),
(27,567,o),
(63,603,o),
(108,603,cs)
);
},
{
closed = 1;
nodes = (
(75,583,ls),
(69,583,o),
(65,579,o),
(65,573,cs),
(65,567,o),
(69,563,o),
(75,563,cs),
(76,563,l),
(76,480,l),
(75,480,ls),
(69,480,o),
(65,476,o),
(65,470,cs),
(65,464,o),
(69,460,o),
(75,460,c),
(74,461,l),
(96,461,ls),
(102,461,o),
(106,465,o),
(106,471,cs),
(106,477,o),
(102,481,o),
(96,481,cs),
(95,481,l),
(95,508,l),
(105,490,o),
(118,470,o),
(139,460,cs),
(145,458,o),
(153,461,o),
(153,469,cs),
(153,473,o),
(151,477,o),
(147,478,c),
(132,485,o),
(121,502,o),
(114,515,c),
(134,515,o),
(149,528,o),
(149,547,cs),
(149,569,o),
(135,583,o),
(114,583,cs)
);
},
{
closed = 1;
nodes = (
(94,535,l),
(94,564,l),
(112,564,ls),
(120,564,o),
(127,561,o),
(127,548,cs),
(127,540,o),
(121,535,o),
(112,535,cs)
);
}
);
width = 212;
}
);
note = registered;
unicode = 174;
},
{
glyphname = macron;
layers = (
{
hints = (
{
horizontal = 1;
place = (251, 60);
place = (251, 60);
type = Stem;
},
{
place = (8, 317);
place = (8, 317);
type = Stem;
}
);
layerId = m01;
shapes = (
{
closed = 1;
nodes = (
(38,311,ls),
(21,311,o),
(8,298,o),
(8,281,cs),
(8,264,o),
(21,251,o),
(38,251,cs),
(295,251,ls),
(312,251,o),
(325,264,o),
(325,281,cs),
(325,298,o),
(312,311,o),
(295,311,cs)
);
}
);
width = 333;
}
);
note = macron;
unicode = 175;
},
{
glyphname = degree;
layers = (
{
hints = (
{
horizontal = 1;
place = (856, 60);
place = (856, 60);
type = Stem;
},
{
place = (78, 72);
place = (78, 72);
type = Stem;
},
{
place = (6, 72);
place = (6, 72);
type = Stem;
},
{
horizontal = 1;
place = (772, 60);
place = (772, 60);
type = Stem;
}
);
layerId = m01;
shapes = (
{
closed = 1;
nodes = (
(38,916,o),
(6,884,o),
(6,844,cs),
(6,804,o),
(38,772,o),
(78,772,cs),
(118,772,o),
(150,804,o),
(150,844,cs),
(150,884,o),
(118,916,o),
(78,916,cs)
);
},
{
closed = 1;
nodes = (
(85,856,o),
(90,851,o),
(90,844,cs),
(90,837,o),
(85,832,o),
(78,832,cs),
(71,832,o),
(66,837,o),
(66,844,cs),
(66,851,o),
(71,856,o),
(78,856,cs)
);
}
);
width = 171;
}
);
note = degree;
unicode = 176;
},
{
glyphname = plusminus;
layers = (
{
hints = (
{
horizontal = 1;
place = (-134, 60);
place = (-134, 60);
type = Stem;
},
{
horizontal = 1;
place = (250, 60);
place = (250, 60);
type = Stem;
},
{
place = (172, 60);
place = (172, 60);
type = Stem;
}
);
layerId = m01;
shapes = (
{
closed = 1;
nodes = (
(172,310,l),
(67,310,ls),
(50,310,o),
(37,297,o),
(37,280,cs),
(37,263,o),
(50,250,o),
(67,250,cs),
(172,250,l),
(172,143,ls),
(172,126,o),
(185,113,o),
(202,113,cs),
(219,113,o),
(232,126,o),
(232,143,cs),
(232,250,l),
(335,250,ls),
(352,250,o),
(365,263,o),
(365,280,cs),
(365,297,o),
(352,310,o),
(335,310,cs),
(232,310,l),
(232,411,ls),
(232,428,o),
(219,441,o),
(202,441,cs),
(185,441,o),
(172,428,o),
(172,411,cs)
);
},
{
closed = 1;
nodes = (
(72,-74,ls),
(55,-74,o),
(42,-87,o),
(42,-104,cs),
(42,-121,o),
(55,-134,o),
(72,-134,cs),
(329,-134,ls),
(346,-134,o),
(359,-121,o),
(359,-104,cs),
(359,-87,o),
(346,-74,o),
(329,-74,cs)
);
}
);
width = 409;
}
);
note = plusminus;
unicode = 177;
},
{
glyphname = uni00B2;
layers = (
{
hints = (
{
horizontal = 1;
place = (249, 59);
place = (249, 59);
type = Stem;
},
{
horizontal = 1;
place = (615, 59);
place = (615, 59);
type = Stem;
},
{
place = (36, 61);
place = (36, 61);
type = Stem;
},
{
place = (270, 60);
place = (270, 60);
type = Stem;
}
);
layerId = m01;
shapes = (
{
closed = 1;
nodes = (
(192,674,ls),
(162,674,o),
(132,666,o),
(107,651,cs),
(66,627,o),
(55,594,o),
(53,587,cs),
(52,584,o),
(52,581,o),
(52,578,cs),
(52,562,o),
(64,548,o),
(82,548,cs),
(95,548,o),
(107,556,o),
(111,569,cs),
(116,583,o),
(129,594,o),
(139,600,cs),
(153,609,o),
(173,615,o),
(193,615,cs),
(194,615,ls),
(215,615,o),
(233,609,o),
(246,601,cs),
(255,595,o),
(266,585,o),
(269,572,c),
(270,570,o),
(270,568,o),
(270,565,cs),
(270,560,o),
(269,554,o),
(267,548,cs),
(264,542,o),
(259,532,o),
(247,520,cs),
(226,499,o),
(202,486,o),
(160,460,cs),
(104,425,o),
(82,401,o),
(68,382,cs),
(48,355,o),
(36,323,o),
(36,290,cs),
(36,276,ls),
(38,260,o),
(50,249,o),
(66,249,cs),
(284,249,ls),
(292,249,o),
(298,251,o),
(304,256,c),
(302,256,l),
(347,296,ls),
(353,302,o),
(357,310,o),
(357,318,cs),
(357,325,o),
(354,332,o),
(349,338,cs),
(343,344,o),
(335,348,o),
(327,348,cs),
(320,348,o),
(313,345,o),
(307,340,cs),
(271,308,l),
(97,308,l),
(100,321,o),
(106,334,o),
(115,346,cs),
(138,377,o),
(183,404,o),
(191,409,cs),
(213,422,o),
(259,448,o),
(289,478,cs),
(302,491,o),
(314,507,o),
(322,526,cs),
(327,538,o),
(330,551,o),
(330,565,cs),
(330,571,o),
(329,578,o),
(327,586,cs),
(321,613,o),
(303,636,o),
(278,651,cs),
(257,664,o),
(228,674,o),
(194,674,cs)
);
}
);
width = 390;
}
);
note = uni00B2;
unicode = 178;
},
{
glyphname = uni00B3;
layers = (
{
hints = (
{
horizontal = 1;
place = (246, 61);
place = (246, 61);
type = Stem;
},
{
horizontal = 1;
place = (452, 60);
place = (452, 60);
type = Stem;
},
{
horizontal = 1;
place = (614, 56);
place = (614, 56);
type = Stem;
},
{
place = (292, 60);
place = (292, 60);
type = Stem;
},
{
place = (272, 60);
place = (272, 60);
type = Stem;
}
);
layerId = m01;
shapes = (
{
closed = 1;
nodes = (
(197,670,ls),
(187,670,o),
(177,669,o),
(168,667,cs),
(159,665,o),
(150,662,o),
(141,659,cs),
(132,656,o),
(124,652,o),
(116,647,cs),
(108,642,o),
(101,636,o),
(95,629,cs),
(89,622,o),
(83,615,o),
(78,607,c),
(76,612,l),
(71,602,o),
(66,592,o),
(66,580,cs),
(66,564,o),
(79,550,o),
(96,550,cs),
(110,550,o),
(122,559,o),
(125,573,cs),
(126,576,o),
(127,579,o),
(129,582,cs),
(131,585,o),
(133,588,o),
(136,591,cs),
(139,594,o),
(143,597,o),
(147,600,cs),
(151,603,o),
(156,605,o),
(161,607,cs),
(166,609,o),
(172,611,o),
(178,612,cs),
(184,613,o),
(190,614,o),
(196,614,cs),
(199,614,ls),
(205,614,o),
(211,614,o),
(217,613,cs),
(223,612,o),
(229,611,o),
(234,609,cs),
(248,603,ls),
(252,601,o),
(256,598,o),
(259,595,cs),
(262,592,o),
(265,589,o),
(267,586,cs),
(269,583,o),
(270,580,o),
(271,577,cs),
(272,575,o),
(272,576,o),
(272,574,cs),
(272,571,l),
(272,568,ls),
(272,565,o),
(272,566,o),
(271,563,c),
(271,561,o),
(271,559,o),
(270,557,cs),
(267,551,ls),
(266,548,o),
(264,545,o),
(262,542,cs),
(260,539,o),
(257,536,o),
(254,533,cs),
(251,530,o),
(247,527,o),
(243,525,cs),
(238,522,o),
(232,519,o),
(226,517,cs),
(220,515,o),
(213,514,o),
(206,513,cs),
(199,512,o),
(192,512,o),
(185,512,cs),
(183,512,ls),
(165,512,o),
(152,499,o),
(152,481,cs),
(152,465,o),
(164,453,o),
(180,452,cs),
(184,452,o),
(188,452,o),
(193,451,cs),
(220,448,o),
(236,443,o),
(246,439,cs),
(266,430,o),
(277,418,o),
(282,411,cs),
(289,401,o),
(292,390,o),
(292,379,cs),
(292,363,o),
(285,352,o),
(281,347,cs),
(274,337,o),
(263,327,o),
(248,320,cs),
(230,312,o),
(206,307,o),
(182,307,cs),
(145,307,o),
(120,317,o),
(107,324,cs),
(99,329,o),
(93,334,o),
(88,340,cs),
(82,346,o),
(74,350,o),
(66,350,cs),
(59,350,o),
(52,347,o),
(46,342,cs),
(40,336,o),
(36,328,o),
(36,320,cs),
(36,313,o),
(39,306,o),
(44,300,cs),
(54,289,o),
(65,280,o),
(78,272,cs),
(105,256,o),
(141,246,o),
(183,246,cs),
(214,246,o),
(246,251,o),
(274,264,cs),
(300,276,o),
(319,293,o),
(331,311,cs),
(343,328,o),
(352,351,o),
(352,378,cs),
(352,401,o),
(345,425,o),
(330,445,cs),
(320,459,o),
(305,473,o),
(286,484,c),
(290,487,ls),
(296,492,o),
(302,498,o),
(307,504,cs),
(312,510,o),
(316,517,o),
(320,524,cs),
(323,529,o),
(325,533,o),
(326,537,cs),
(330,551,ls),
(331,554,o),
(332,562,o),
(332,565,cs),
(332,574,l),
(331,583,ls),
(331,585,o),
(330,590,o),
(329,592,cs),
(326,600,o),
(322,608,o),
(317,615,cs),
(312,622,o),
(306,629,o),
(299,635,cs),
(292,641,o),
(285,646,o),
(277,651,cs),
(269,655,o),
(261,659,o),
(253,662,cs),
(245,665,o),
(236,667,o),
(227,668,cs),
(218,669,o),
(209,670,o),
(200,670,cs)
);
}
);
width = 390;
}
);
note = uni00B3;
unicode = 179;
},
{
glyphname = acute;
layers = (
{
hints = (
{
horizontal = 1;
place = (476, 156);
place = (476, 156);
type = Stem;
},
{
place = (-16, 137);
place = (-16, 137);
type = Stem;
}
);
layerId = m01;
shapes = (
{
closed = 1;
nodes = (
(35,484,ls),
(64,509,o),
(96,544,o),
(118,589,cs),
(120,593,o),
(121,598,o),
(121,602,cs),
(121,618,o),
(110,632,o),
(91,632,cs),
(80,632,o),
(69,626,o),
(64,615,cs),
(46,580,o),
(20,551,o),
(-5,530,cs),
(-12,524,o),
(-16,515,o),
(-16,506,cs),
(-16,500,o),
(-14,493,o),
(-9,487,cs),
(-3,480,o),
(6,476,o),
(15,476,cs),
(21,476,o),
(28,478,o),
(34,483,cs)
);
}
);
width = 162;
}
);
note = acute;
unicode = 180;
},
{
glyphname = uni00B5;
layers = (
{
hints = (
{
horizontal = 1;
place = (-250, 60);
place = (-250, 60);
type = Stem;
},
{
horizontal = 1;
place = (-30, 57);
place = (-30, 57);
type = Stem;
},
{
horizontal = 1;
place = (414, 60);
place = (414, 60);
type = Stem;
},
{
place = (40, 60);
place = (40, 60);
type = Stem;
},
{
place = (327, 61);
place = (327, 61);
type = Stem;
},
{
horizontal = 1;
place = (-29, 60);
place = (-29, 60);
type = Stem;
}
);
layerId = m01;
shapes = (
{
closed = 1;
nodes = (
(357,474,l),
(288,474,ls),
(271,474,o),
(258,461,o),
(258,444,cs),
(258,427,o),
(271,414,o),
(288,414,cs),
(327,414,l),
(327,77,l),
(324,75,o),
(252,27,o),
(209,27,cs),
(136,27,o),
(103,58,o),
(100,131,c),
(100,444,ls),
(100,461,o),
(87,474,o),
(70,474,cs),
(25,474,ls),
(8,474,o),
(-5,461,o),
(-5,444,cs),
(-5,427,o),
(8,414,o),
(25,414,cs),
(40,414,l),
(40,145,l),
(40,142,l),
(40,-190,l),
(25,-190,ls),
(8,-190,o),
(-5,-203,o),
(-5,-220,cs),
(-5,-237,o),
(8,-250,o),
(25,-250,cs),
(115,-250,ls),
(132,-250,o),
(145,-237,o),
(145,-220,cs),
(145,-203,o),
(132,-190,o),
(115,-190,cs),
(100,-190,l),
(100,-1,l),
(127,-20,o),
(163,-30,o),
(209,-30,cs),
(262,-30,o),
(302,-10,o),
(331,13,c),
(334,5,o),
(339,-3,o),
(347,-11,cs),
(365,-29,o),
(385,-28,o),
(388,-29,c),
(406,-29,ls),
(423,-29,o),
(436,-16,o),
(436,1,cs),
(436,18,o),
(423,31,o),
(406,31,cs),
(390,31,l),
(389,32,o),
(390,30,o),
(388,42,c),
(388,446,ls),
(388,463,o),
(375,476,o),
(358,476,c)
);
}
);
width = 477;
}
);
note = uni00B5;
unicode = 181;
},
{
glyphname = paragraph;
layers = (
{
hints = (
{
horizontal = 1;
place = (-114, 60);
place = (-114, 60);
type = Stem;
},
{
horizontal = 1;
place = (322, 61);
place = (322, 61);
type = Stem;
},
{
horizontal = 1;
place = (530, 60);
place = (530, 60);
type = Stem;
},
{
place = (1, 60);
place = (1, 60);
type = Stem;
},
{
place = (168, 60);
place = (168, 60);
type = Stem;
},
{
place = (251, 60);
place = (251, 60);
type = Stem;
}
);
layerId = m01;
shapes = (
{
closed = 1;
nodes = (
(289,593,l),
(288,590,l),
(124,590,ls),
(50,590,o),
(1,536,o),
(1,455,cs),
(1,369,o),
(58,324,o),
(125,322,cs),
(168,322,l),
(168,-54,l),
(157,-54,ls),
(140,-54,o),
(127,-67,o),
(127,-84,cs),
(127,-101,o),
(140,-114,o),
(157,-114,cs),
(198,-114,ls),
(215,-114,o),
(228,-101,o),
(228,-84,cs),
(228,350,l),
(228,352,l),
(228,532,l),
(251,532,l),
(251,-82,ls),
(251,-99,o),
(264,-112,o),
(281,-112,cs),
(321,-112,ls),
(338,-112,o),
(351,-99,o),
(351,-82,cs),
(351,-65,o),
(338,-52,o),
(321,-52,cs),
(311,-52,l),
(311,532,l),
(320,532,ls),
(338,531,o),
(352,545,o),
(352,563,cs),
(352,579,o),
(339,592,o),
(323,593,cs)
);
},
{
closed = 1;
nodes = (
(168,530,l),
(168,383,l),
(125,383,ls),
(91,384,o),
(61,401,o),
(61,455,cs),
(61,499,o),
(81,530,o),
(124,530,cs)
);
}
);
width = 419;
}
);
note = paragraph;
unicode = 182;
},
{
glyphname = periodcentered;
layers = (
{
hints = (
{
horizontal = 1;
place = (-30, 134);
place = (-30, 134);
type = Stem;
},
{
place = (17, 134);
place = (17, 134);
type = Stem;
}
);
layerId = m01;
shapes = (
{
closed = 1;
nodes = (
(47,104,o),
(17,74,o),
(17,37,cs),
(17,0,o),
(47,-30,o),
(84,-30,cs),
(121,-30,o),
(151,0,o),
(151,37,cs),
(151,74,o),
(121,104,o),
(84,104,cs)
);
}
);
width = 130;
}
);
note = periodcentered;
unicode = 183;
},
{
glyphname = cedilla;
layers = (
{
hints = (
{
horizontal = 1;
place = (-159, 61);
place = (-159, 61);
type = Stem;
},
{
horizontal = 1;
place = (-30, 21);
target = up;
type = BottomGhost;
},
{
place = (97, 114);
place = (97, 114);
type = Stem;
}
);
layerId = m01;
shapes = (
{
closed = 1;
nodes = (
(97,-35,ls),
(93,-41,o),
(91,-47,o),
(91,-53,cs),
(91,-59,o),
(93,-65,o),
(97,-70,cs),
(103,-78,o),
(112,-83,o),
(121,-83,cs),
(124,-83,o),
(128,-82,o),
(131,-81,cs),
(133,-80,o),
(135,-80,o),
(137,-80,cs),
(139,-80,ls),
(140,-80,o),
(145,-81,o),
(148,-84,cs),
(149,-85,o),
(149,-86,o),
(149,-87,c),
(155,-86,l),
(155,-87,o),
(154,-89,o),
(153,-90,cs),
(150,-93,o),
(145,-95,o),
(143,-96,cs),
(139,-97,o),
(134,-98,o),
(129,-98,cs),
(119,-98,ls),
(110,-97,o),
(101,-95,o),
(93,-91,cs),
(89,-89,o),
(85,-88,o),
(80,-88,cs),
(65,-88,o),
(50,-100,o),
(50,-118,cs),
(50,-130,o),
(57,-141,o),
(68,-146,cs),
(81,-152,o),
(95,-156,o),
(110,-158,cs),
(116,-159,o),
(121,-159,o),
(126,-159,cs),
(136,-159,o),
(146,-158,o),
(156,-155,cs),
(168,-152,o),
(182,-146,o),
(193,-134,cs),
(199,-127,o),
(211,-111,o),
(211,-88,cs),
(211,-87,ls),
(211,-68,o),
(203,-52,o),
(190,-40,cs),
(186,-36,o),
(181,-33,o),
(176,-30,c),
(185,-17,ls),
(189,-11,o),
(191,-5,o),
(191,1,cs),
(191,11,o),
(186,20,o),
(178,26,cs),
(172,30,o),
(166,32,o),
(160,32,cs),
(150,32,o),
(141,27,o),
(135,19,cs)
);
}
);
width = 333;
}
);
note = cedilla;
unicode = 184;
},
{
glyphname = uni00B9;
layers = (
{
hints = (
{
horizontal = 1;
place = (246, 60);
place = (246, 60);
type = Stem;
},
{
place = (90, 61);
place = (90, 61);
type = Stem;
}
);
layerId = m01;
shapes = (
{
closed = 1;
nodes = (
(29,629,ls),
(15,626,o),
(6,614,o),
(6,600,cs),
(6,580,o),
(25,566,o),
(43,571,cs),
(90,582,l),
(90,307,l),
(65,307,ls),
(48,307,o),
(35,294,o),
(35,277,cs),
(35,260,o),
(48,247,o),
(65,247,c),
(66,246,l),
(176,246,ls),
(193,246,o),
(206,259,o),
(206,276,cs),
(206,293,o),
(193,306,o),
(176,306,cs),
(151,306,l),
(151,618,ls),
(151,628,o),
(147,636,o),
(139,642,cs),
(133,647,o),
(126,649,o),
(120,649,cs),
(118,649,o),
(115,649,o),
(113,648,c)
);
}
);
width = 215;
}
);
note = uni00B9;
unicode = 185;
},
{
glyphname = ordmasculine;
layers = (
{
hints = (
{
horizontal = 1;
place = (251, 60);
place = (251, 60);
type = Stem;
},
{
horizontal = 1;
place = (582, 60);
place = (582, 60);
type = Stem;
},
{
place = (-17, 58);
place = (-17, 58);
type = Stem;
},
{
place = (221, 60);
place = (221, 60);
type = Stem;
}
);
layerId = m01;
shapes = (
{
closed = 1;
nodes = (
(125,642,ls),
(97,641,o),
(73,631,o),
(55,619,cs),
(34,605,o),
(18,586,o),
(7,566,cs),
(-14,529,o),
(-17,483,o),
(-17,440,cs),
(-16,399,o),
(-8,356,o),
(16,318,cs),
(28,299,o),
(45,282,o),
(66,270,cs),
(89,256,o),
(113,251,o),
(133,251,cs),
(137,251,ls),
(158,252,o),
(183,258,o),
(206,273,cs),
(226,286,o),
(242,304,o),
(253,323,cs),
(275,361,o),
(281,404,o),
(281,444,cs),
(281,487,o),
(274,532,o),
(249,572,cs),
(237,592,o),
(220,610,o),
(199,623,cs),
(175,637,o),
(150,642,o),
(129,642,cs)
);
},
{
closed = 1;
nodes = (
(129,582,ls),
(140,582,o),
(154,579,o),
(167,571,cs),
(179,564,o),
(190,553,o),
(198,540,cs),
(215,513,o),
(221,480,o),
(221,443,cs),
(221,410,o),
(215,378,o),
(200,353,cs),
(193,340,o),
(183,329,o),
(172,322,cs),
(159,314,o),
(146,311,o),
(135,311,cs),
(133,311,ls),
(122,311,o),
(109,314,o),
(96,321,cs),
(84,328,o),
(74,338,o),
(66,350,cs),
(50,375,o),
(41,407,o),
(41,452,cs),
(41,483,o),
(46,513,o),
(59,537,cs),
(66,550,o),
(76,561,o),
(88,569,cs),
(101,578,o),
(115,582,o),
(127,582,cs)
);
}
);
width = 280;
}
);
note = ordmasculine;
unicode = 186;
},
{
glyphname = guillemotright;
layers = (
{
hints = (
{
horizontal = 1;
place = (42, 182);
place = (42, 182);
type = Stem;
},
{
place = (23, 355);
place = (23, 355);
type = Stem;
}
);
layerId = m01;
shapes = (
{
closed = 1;
nodes = (
(282,133,l),
(284,132,l),
(282,131,ls),
(260,120,o),
(239,108,o),
(219,97,cs),
(210,92,o),
(204,82,o),
(204,71,cs),
(204,66,o),
(205,62,o),
(208,57,cs),
(213,48,o),
(223,42,o),
(234,42,cs),
(239,42,o),
(243,43,o),
(248,46,cs),
(307,78,ls),
(326,88,o),
(344,98,o),
(361,105,cs),
(372,110,o),
(378,120,o),
(378,132,cs),
(378,144,o),
(371,154,o),
(360,159,cs),
(343,166,o),
(325,176,o),
(306,186,cs),
(287,196,o),
(267,208,o),
(247,220,cs),
(243,223,o),
(238,224,o),
(233,224,cs),
(218,224,o),
(203,213,o),
(203,195,cs),
(203,184,o),
(209,174,o),
(218,169,cs),
(238,158,o),
(259,146,o),
(281,135,c)
);
},
{
closed = 1;
nodes = (
(99,131,l),
(79,121,o),
(59,110,o),
(39,99,cs),
(30,94,o),
(24,84,o),
(24,73,cs),
(24,68,o),
(25,64,o),
(28,59,cs),
(33,50,o),
(43,44,o),
(54,44,cs),
(59,44,o),
(63,45,o),
(68,48,cs),
(88,59,o),
(108,69,o),
(128,79,cs),
(146,88,o),
(164,96,o),
(182,104,cs),
(193,109,o),
(199,119,o),
(199,131,cs),
(199,143,o),
(192,153,o),
(181,158,cs),
(163,166,o),
(145,174,o),
(127,183,cs),
(107,193,o),
(87,204,o),
(67,215,c),
(63,218,o),
(58,219,o),
(53,219,cs),
(38,219,o),
(23,208,o),
(23,190,cs),
(23,179,o),
(29,169,o),
(38,164,cs),
(58,153,o),
(78,142,o),
(99,132,c)
);
}
);
width = 417;
}
);
note = guillemotright;
unicode = 187;
},
{
glyphname = onequarter;
layers = (
{
hints = (
{
horizontal = 1;
place = (-29, 21);
target = up;
type = BottomGhost;
},
{
horizontal = 1;
place = (100, 60);
place = (100, 60);
type = Stem;
},
{
horizontal = 1;
place = (246, 60);
place = (246, 60);
type = Stem;
},
{
place = (90, 61);
place = (90, 61);
type = Stem;
},
{
place = (588, 60);
place = (588, 60);
type = Stem;
}
);
layerId = m01;
shapes = (
{
closed = 1;
nodes = (
(29,654,ls),
(15,651,o),
(6,639,o),
(6,625,cs),
(6,605,o),
(25,591,o),
(43,596,cs),
(90,607,l),
(90,307,l),
(65,307,ls),
(48,307,o),
(35,294,o),
(35,277,cs),
(35,260,o),
(48,247,o),
(65,247,c),
(66,246,l),
(176,246,ls),
(193,246,o),
(206,259,o),
(206,276,cs),
(206,293,o),
(193,306,o),
(176,306,cs),
(151,306,l),
(151,643,ls),
(151,653,o),
(147,661,o),
(139,667,cs),
(133,672,o),
(126,674,o),
(120,674,cs),
(118,674,o),
(115,674,o),
(113,673,c)
);
},
{
closed = 1;
nodes = (
(166,1,ls),
(165,-2,o),
(165,-5,o),
(165,-8,cs),
(165,-24,o),
(177,-38,o),
(195,-38,cs),
(208,-38,o),
(220,-30,o),
(224,-17,cs),
(426,627,ls),
(427,630,o),
(427,633,o),
(427,636,cs),
(427,652,o),
(415,666,o),
(397,666,cs),
(384,666,o),
(372,658,o),
(368,645,cs)
);
},
{
closed = 1;
nodes = (
(369,146,ls),
(366,140,o),
(364,135,o),
(364,129,cs),
(364,125,o),
(365,120,o),
(367,116,cs),
(372,106,o),
(381,100,o),
(393,100,cs),
(530,100,ls),
(547,100,o),
(560,113,o),
(560,130,cs),
(560,147,o),
(547,160,o),
(530,160,cs),
(451,160,l),
(598,437,ls),
(601,442,o),
(603,448,o),
(603,453,cs),
(603,463,o),
(598,473,o),
(589,479,cs),
(584,482,o),
(578,484,o),
(573,484,cs),
(563,484,o),
(553,479,o),
(547,470,c)
);
},
{
closed = 1;
nodes = (
(588,1,ls),
(588,-16,o),
(601,-29,o),
(618,-29,cs),
(635,-29,o),
(648,-16,o),
(648,1,cs),
(648,365,ls),
(648,382,o),
(635,395,o),
(618,395,cs),
(601,395,o),
(588,382,o),
(588,365,cs)
);
}
);
width = 686;
}
);
note = onequarter;
unicode = 188;
},
{
glyphname = onehalf;
layers = (
{
hints = (
{
horizontal = 1;
place = (-29, 59);
place = (-29, 59);
type = Stem;
},
{
horizontal = 1;
place = (246, 60);
place = (246, 60);
type = Stem;
},
{
horizontal = 1;
place = (337, 59);
place = (337, 59);
type = Stem;
},
{
place = (90, 61);
place = (90, 61);
type = Stem;
},
{
place = (366, 61);
place = (366, 61);
type = Stem;
},
{
place = (600, 60);
place = (600, 60);
type = Stem;
}
);
layerId = m01;
shapes = (
{
closed = 1;
nodes = (
(29,654,ls),
(15,651,o),
(6,639,o),
(6,625,cs),
(6,605,o),
(25,591,o),
(43,596,cs),
(90,607,l),
(90,307,l),
(65,307,ls),
(48,307,o),
(35,294,o),
(35,277,cs),
(35,260,o),
(48,247,o),
(65,247,c),
(66,246,l),
(176,246,ls),
(193,246,o),
(206,259,o),
(206,276,cs),
(206,293,o),
(193,306,o),
(176,306,cs),
(151,306,l),
(151,643,ls),
(151,653,o),
(147,661,o),
(139,667,cs),
(133,672,o),
(126,674,o),
(120,674,cs),
(118,674,o),
(115,674,o),
(113,673,c)
);
},
{
closed = 1;
nodes = (
(169,1,ls),
(168,-2,o),
(168,-5,o),
(168,-8,cs),
(168,-24,o),
(180,-38,o),
(198,-38,cs),
(211,-38,o),
(223,-30,o),
(227,-17,cs),
(429,627,ls),
(430,630,o),
(430,633,o),
(430,636,cs),
(430,652,o),
(418,666,o),
(400,666,cs),
(387,666,o),
(375,658,o),
(371,645,cs)
);
},
{
closed = 1;
nodes = (
(522,396,ls),
(492,396,o),
(462,388,o),
(437,373,cs),
(396,349,o),
(385,316,o),
(383,309,cs),
(382,306,o),
(382,303,o),
(382,300,cs),
(382,284,o),
(394,270,o),
(412,270,cs),
(425,270,o),
(437,278,o),
(441,291,cs),
(446,305,o),
(459,316,o),
(469,322,cs),
(483,331,o),
(503,337,o),
(523,337,cs),
(524,337,ls),
(545,337,o),
(563,331,o),
(576,323,cs),
(585,317,o),
(596,307,o),
(599,294,c),
(600,292,o),
(600,290,o),
(600,287,cs),
(600,282,o),
(599,276,o),
(597,270,cs),
(594,264,o),
(589,254,o),
(577,242,cs),
(556,221,o),
(532,208,o),
(490,182,cs),
(434,147,o),
(412,123,o),
(398,104,cs),
(378,77,o),
(366,45,o),
(366,12,cs),
(366,-2,ls),
(368,-18,o),
(380,-29,o),
(396,-29,cs),
(614,-29,ls),
(622,-29,o),
(628,-27,o),
(634,-22,c),
(632,-22,l),
(677,18,ls),
(683,24,o),
(687,32,o),
(687,40,cs),
(687,47,o),
(684,54,o),
(679,60,cs),
(673,66,o),
(665,70,o),
(657,70,cs),
(650,70,o),
(643,67,o),
(637,62,cs),
(601,30,l),
(427,30,l),
(430,43,o),
(436,56,o),
(445,68,cs),
(468,99,o),
(513,126,o),
(521,131,cs),
(543,144,o),
(589,170,o),
(619,200,cs),
(632,213,o),
(644,229,o),
(652,248,cs),
(657,260,o),
(660,273,o),
(660,287,cs),
(660,293,o),
(659,300,o),
(657,308,cs),
(651,335,o),
(633,358,o),
(608,373,cs),
(587,386,o),
(558,396,o),
(524,396,cs)
);
}
);
width = 718;
}
);
note = onehalf;
unicode = 189;
},
{
glyphname = threequarters;
layers = (
{
hints = (
{
horizontal = 1;
place = (-29, 21);
target = up;
type = BottomGhost;
},
{
horizontal = 1;
place = (100, 60);
place = (100, 60);
type = Stem;
},
{
horizontal = 1;
place = (246, 60);
place = (246, 60);
type = Stem;
},
{
place = (90, 61);
place = (90, 61);
type = Stem;
},
{
place = (588, 60);
place = (588, 60);
type = Stem;
}
);
layerId = m01;
shapes = (
{
closed = 1;
nodes = (
(29,654,ls),
(15,651,o),
(6,639,o),
(6,625,cs),
(6,605,o),
(25,591,o),
(43,596,cs),
(90,607,l),
(90,307,l),
(65,307,ls),
(48,307,o),
(35,294,o),
(35,277,cs),
(35,260,o),
(48,247,o),
(65,247,c),
(66,246,l),
(176,246,ls),
(193,246,o),
(206,259,o),
(206,276,cs),
(206,293,o),
(193,306,o),
(176,306,cs),
(151,306,l),
(151,643,ls),
(151,653,o),
(147,661,o),
(139,667,cs),
(133,672,o),
(126,674,o),
(120,674,cs),
(118,674,o),
(115,674,o),
(113,673,c)
);
},
{
closed = 1;
nodes = (
(166,1,ls),
(165,-2,o),
(165,-5,o),
(165,-8,cs),
(165,-24,o),
(177,-38,o),
(195,-38,cs),
(208,-38,o),
(220,-30,o),
(224,-17,cs),
(426,627,ls),
(427,630,o),
(427,633,o),
(427,636,cs),
(427,652,o),
(415,666,o),
(397,666,cs),
(384,666,o),
(372,658,o),
(368,645,cs)
);
},
{
closed = 1;
nodes = (
(369,146,ls),
(366,140,o),
(364,135,o),
(364,129,cs),
(364,125,o),
(365,120,o),
(367,116,cs),
(372,106,o),
(381,100,o),
(393,100,cs),
(530,100,ls),
(547,100,o),
(560,113,o),
(560,130,cs),
(560,147,o),
(547,160,o),
(530,160,cs),
(451,160,l),
(598,437,ls),
(601,442,o),
(603,448,o),
(603,453,cs),
(603,463,o),
(598,473,o),
(589,479,cs),
(584,482,o),
(578,484,o),
(573,484,cs),
(563,484,o),
(553,479,o),
(547,470,c)
);
},
{
closed = 1;
nodes = (
(588,1,ls),
(588,-16,o),
(601,-29,o),
(618,-29,cs),
(635,-29,o),
(648,-16,o),
(648,1,cs),
(648,365,ls),
(648,382,o),
(635,395,o),
(618,395,cs),
(601,395,o),
(588,382,o),
(588,365,cs)
);
}
);
width = 718;
}
);
note = threequarters;
unicode = 190;
},
{
glyphname = questiondown;
layers = (
{
hints = (
{
horizontal = 1;
place = (-30, 59);
place = (-30, 59);
type = Stem;
},
{
horizontal = 1;
place = (541, 134);
place = (541, 134);
type = Stem;
},
{
place = (20, 58);
place = (20, 58);
type = Stem;
},
{
place = (130, 134);
place = (130, 134);
type = Stem;
},
{
place = (170, 60);
place = (170, 60);
type = Stem;
}
);
layerId = m01;
shapes = (
{
closed = 1;
nodes = (
(160,675,o),
(130,645,o),
(130,608,cs),
(130,571,o),
(160,541,o),
(197,541,cs),
(234,541,o),
(264,571,o),
(264,608,cs),
(264,645,o),
(234,675,o),
(197,675,cs)
);
},
{
closed = 1;
nodes = (
(170,438,ls),
(169,409,o),
(161,381,o),
(147,355,cs),
(128,319,o),
(88,275,o),
(67,245,cs),
(52,225,o),
(38,202,o),
(29,176,cs),
(23,158,o),
(20,139,o),
(20,120,cs),
(20,110,o),
(21,100,o),
(23,90,cs),
(30,53,o),
(52,20,o),
(83,-2,cs),
(110,-21,o),
(142,-30,o),
(174,-30,cs),
(188,-30,ls),
(216,-28,o),
(243,-19,o),
(266,-4,cs),
(275,2,o),
(280,12,o),
(280,22,cs),
(280,27,o),
(278,33,o),
(275,38,cs),
(269,47,o),
(259,52,o),
(249,52,cs),
(244,52,o),
(238,50,o),
(233,47,cs),
(218,37,o),
(200,31,o),
(182,29,cs),
(172,29,ls),
(155,29,o),
(134,33,o),
(116,46,cs),
(106,53,o),
(86,71,o),
(80,101,cs),
(79,107,o),
(78,113,o),
(78,119,cs),
(78,131,o),
(80,144,o),
(84,156,cs),
(90,174,o),
(100,192,o),
(113,210,cs),
(139,246,o),
(174,281,o),
(198,328,cs),
(215,361,o),
(226,399,o),
(227,437,c),
(230,436,l),
(230,490,ls),
(230,507,o),
(217,520,o),
(200,520,cs),
(183,520,o),
(170,507,o),
(170,490,cs)
);
}
);
width = 351;
}
);
note = questiondown;
unicode = 191;
},
{
glyphname = Agrave;
layers = (
{
hints = (
{
horizontal = 1;
place = (-31, 21);
target = up;
type = BottomGhost;
},
{
horizontal = 1;
place = (196, 60);
place = (196, 60);
type = Stem;
},
{
horizontal = 1;
place = (670, -20);
target = down;
type = TopGhost;
},
{
place = (17, 610);
place = (17, 610);
type = Stem;
}
);
layerId = m01;
shapes = (
{
closed = 1;
nodes = (
(356,824,ls),
(331,845,o),
(305,874,o),
(287,909,cs),
(282,920,o),
(271,926,o),
(260,926,cs),
(256,926,o),
(251,925,o),
(247,923,cs),
(236,918,o),
(230,907,o),
(230,896,cs),
(230,892,o),
(231,887,o),
(233,883,cs),
(255,838,o),
(287,803,o),
(316,778,cs),
(322,773,o),
(329,771,o),
(335,771,cs),
(344,771,o),
(353,775,o),
(359,782,cs),
(364,788,o),
(366,795,o),
(366,801,cs),
(366,810,o),
(362,819,o),
(355,825,cs)
);
},
{
closed = 1;
nodes = (
(569,-13,ls),
(574,-24,o),
(585,-31,o),
(597,-31,cs),
(601,-31,o),
(605,-30,o),
(609,-28,cs),
(620,-23,o),
(627,-12,o),
(627,0,cs),
(627,4,o),
(626,8,o),
(624,12,cs),
(350,652,ls),
(345,663,o),
(334,670,o),
(322,670,cs),
(318,670,o),
(314,669,o),
(310,667,cs),
(299,662,o),
(292,651,o),
(292,639,cs),
(292,635,o),
(293,631,o),
(295,627,cs)
);
},
{
closed = 1;
nodes = (
(20,12,ls),
(18,8,o),
(17,4,o),
(17,-1,cs),
(17,-16,o),
(29,-31,o),
(47,-31,cs),
(59,-31,o),
(70,-24,o),
(75,-13,cs),
(297,505,ls),
(299,509,o),
(300,513,o),
(300,518,cs),
(300,533,o),
(288,548,o),
(270,548,cs),
(258,548,o),
(247,541,o),
(242,530,cs)
);
},
{
closed = 1;
nodes = (
(241,256,ls),
(224,256,o),
(211,243,o),
(211,226,cs),
(211,209,o),
(224,196,o),
(241,196,cs),
(401,196,ls),
(418,196,o),
(431,209,o),
(431,226,cs),
(431,243,o),
(418,256,o),
(401,256,cs)
);
}
);
width = 654;
}
);
note = Agrave;
unicode = 192;
},
{
glyphname = Aacute;
layers = (
{
hints = (
{
horizontal = 1;
place = (-31, 21);
target = up;
type = BottomGhost;
},
{
horizontal = 1;
place = (196, 60);
place = (196, 60);
type = Stem;
},
{
horizontal = 1;
place = (670, -20);
target = down;
type = TopGhost;
},
{
place = (17, 610);
place = (17, 610);
type = Stem;
}
);
layerId = m01;
shapes = (
{
closed = 1;
nodes = (
(338,778,ls),
(367,803,o),
(399,838,o),
(421,883,cs),
(423,887,o),
(424,892,o),
(424,896,cs),
(424,912,o),
(413,926,o),
(394,926,cs),
(383,926,o),
(372,920,o),
(367,909,cs),
(349,874,o),
(323,845,o),
(298,824,cs),
(291,818,o),
(287,809,o),
(287,800,cs),
(287,794,o),
(289,787,o),
(294,781,cs),
(300,774,o),
(309,770,o),
(318,770,cs),
(324,770,o),
(331,772,o),
(337,777,cs)
);
},
{
closed = 1;
nodes = (
(569,-13,ls),
(574,-24,o),
(585,-31,o),
(597,-31,cs),
(601,-31,o),
(605,-30,o),
(609,-28,cs),
(620,-23,o),
(627,-12,o),
(627,0,cs),
(627,4,o),
(626,8,o),
(624,12,cs),
(350,652,ls),
(345,663,o),
(334,670,o),
(322,670,cs),
(318,670,o),
(314,669,o),
(310,667,cs),
(299,662,o),
(292,651,o),
(292,639,cs),
(292,635,o),
(293,631,o),
(295,627,cs)
);
},
{
closed = 1;
nodes = (
(20,12,ls),
(18,8,o),
(17,4,o),
(17,-1,cs),
(17,-16,o),
(29,-31,o),
(47,-31,cs),
(59,-31,o),
(70,-24,o),
(75,-13,cs),
(297,505,ls),
(299,509,o),
(300,513,o),
(300,518,cs),
(300,533,o),
(288,548,o),
(270,548,cs),
(258,548,o),
(247,541,o),
(242,530,cs)
);
},
{
closed = 1;
nodes = (
(241,256,ls),
(224,256,o),
(211,243,o),
(211,226,cs),
(211,209,o),
(224,196,o),
(241,196,cs),
(401,196,ls),
(418,196,o),
(431,209,o),
(431,226,cs),
(431,243,o),
(418,256,o),
(401,256,cs)
);
}
);
width = 654;
}
);
note = Aacute;
unicode = 193;
},
{
glyphname = Acircumflex;
layers = (
{
hints = (
{
horizontal = 1;
place = (-31, 21);
target = up;
type = BottomGhost;
},
{
horizontal = 1;
place = (196, 60);
place = (196, 60);
type = Stem;
},
{
horizontal = 1;
place = (670, -20);
target = down;
type = TopGhost;
},
{
place = (17, 610);
place = (17, 610);
type = Stem;
}
);
layerId = m01;
shapes = (
{
closed = 1;
nodes = (
(301,914,l),
(228,819,ls),
(224,813,o),
(222,807,o),
(222,800,cs),
(222,792,o),
(226,783,o),
(233,777,cs),
(239,773,o),
(245,771,o),
(252,771,cs),
(260,771,o),
(269,775,o),
(275,782,cs),
(324,846,l),
(372,782,ls),
(378,774,o),
(387,770,o),
(396,770,cs),
(403,770,o),
(409,772,o),
(414,776,cs),
(422,782,o),
(426,791,o),
(426,800,cs),
(426,807,o),
(424,813,o),
(420,818,cs),
(348,913,ls),
(342,921,o),
(334,925,o),
(324,925,cs),
(314,925,o),
(306,921,o),
(300,913,cs)
);
},
{
closed = 1;
nodes = (
(569,-13,ls),
(574,-24,o),
(585,-31,o),
(597,-31,cs),
(601,-31,o),
(605,-30,o),
(609,-28,cs),
(620,-23,o),
(627,-12,o),
(627,0,cs),
(627,4,o),
(626,8,o),
(624,12,cs),
(350,652,ls),
(345,663,o),
(334,670,o),
(322,670,cs),
(318,670,o),
(314,669,o),
(310,667,cs),
(299,662,o),
(292,651,o),
(292,639,cs),
(292,635,o),
(293,631,o),
(295,627,cs)
);
},
{
closed = 1;
nodes = (
(20,12,ls),
(18,8,o),
(17,4,o),
(17,-1,cs),
(17,-16,o),
(29,-31,o),
(47,-31,cs),
(59,-31,o),
(70,-24,o),
(75,-13,cs),
(297,505,ls),
(299,509,o),
(300,513,o),
(300,518,cs),
(300,533,o),
(288,548,o),
(270,548,cs),
(258,548,o),
(247,541,o),
(242,530,cs)
);
},
{
closed = 1;
nodes = (
(241,256,ls),
(224,256,o),
(211,243,o),
(211,226,cs),
(211,209,o),
(224,196,o),
(241,196,cs),
(401,196,ls),
(418,196,o),
(431,209,o),
(431,226,cs),
(431,243,o),
(418,256,o),
(401,256,cs)
);
}
);
width = 654;
}
);
note = Acircumflex;
unicode = 194;
},
{
glyphname = Atilde;
layers = (
{
hints = (
{
horizontal = 1;
place = (-31, 21);
target = up;
type = BottomGhost;
},
{
horizontal = 1;
place = (196, 60);
place = (196, 60);
type = Stem;
},
{
horizontal = 1;
place = (670, -20);
target = down;
type = TopGhost;
},
{
horizontal = 1;
place = (767, 63);
place = (767, 63);
type = Stem;
},
{
place = (407, 61);
place = (407, 61);
type = Stem;
},
{
horizontal = 1;
place = (830, 63);
place = (830, 63);
type = Stem;
},
{
place = (188, 62);
place = (188, 62);
type = Stem;
}
);
layerId = m01;
shapes = (
{
closed = 1;
nodes = (
(468,848,l),
(468,851,o),
(467,860,o),
(466,863,cs),
(463,877,o),
(450,887,o),
(436,887,cs),
(418,887,o),
(404,870,o),
(407,852,cs),
(408,849,o),
(408,852,o),
(408,849,cs),
(408,846,o),
(408,846,o),
(407,844,c),
(407,844,o),
(410,850,o),
(407,842,cs),
(406,839,o),
(404,836,o),
(400,834,cs),
(397,832,o),
(393,830,o),
(388,830,cs),
(387,830,ls),
(383,830,o),
(378,831,o),
(373,833,cs),
(359,839,o),
(356,844,o),
(332,864,cs),
(317,876,o),
(307,882,o),
(300,885,cs),
(286,891,o),
(283,892,o),
(271,893,cs),
(263,893,l),
(257,893,ls),
(222,890,o),
(204,867,o),
(201,862,cs),
(192,849,o),
(188,834,o),
(188,819,cs),
(188,812,o),
(189,805,o),
(192,796,cs),
(196,783,o),
(208,776,o),
(220,776,cs),
(240,776,o),
(250,790,o),
(250,805,cs),
(250,809,o),
(250,812,o),
(249,815,c),
(249,818,ls),
(249,819,o),
(249,822,o),
(251,825,cs),
(254,829,o),
(260,830,o),
(263,830,cs),
(265,830,l),
(268,830,ls),
(272,830,o),
(274,829,o),
(278,827,cs),
(284,825,o),
(290,821,o),
(297,815,cs),
(308,806,o),
(329,785,o),
(354,775,cs),
(365,770,o),
(378,767,o),
(391,767,cs),
(395,767,ls),
(412,768,o),
(426,774,o),
(437,781,cs),
(448,788,o),
(460,800,o),
(467,816,cs),
(469,820,o),
(470,822,o),
(470,824,c),
(473,833,o),
(473,833,o),
(474,847,c)
);
},
{
closed = 1;
nodes = (
(569,-13,ls),
(574,-24,o),
(585,-31,o),
(597,-31,cs),
(601,-31,o),
(605,-30,o),
(609,-28,cs),
(620,-23,o),
(627,-12,o),
(627,0,cs),
(627,4,o),
(626,8,o),
(624,12,cs),
(350,652,ls),
(345,663,o),
(334,670,o),
(322,670,cs),
(318,670,o),
(314,669,o),
(310,667,cs),
(299,662,o),
(292,651,o),
(292,639,cs),
(292,635,o),
(293,631,o),
(295,627,cs)
);
},
{
closed = 1;
nodes = (
(20,12,ls),
(18,8,o),
(17,4,o),
(17,-1,cs),
(17,-16,o),
(29,-31,o),
(47,-31,cs),
(59,-31,o),
(70,-24,o),
(75,-13,cs),
(297,505,ls),
(299,509,o),
(300,513,o),
(300,518,cs),
(300,533,o),
(288,548,o),
(270,548,cs),
(258,548,o),
(247,541,o),
(242,530,cs)
);
},
{
closed = 1;
nodes = (
(241,256,ls),
(224,256,o),
(211,243,o),
(211,226,cs),
(211,209,o),
(224,196,o),
(241,196,cs),
(401,196,ls),
(418,196,o),
(431,209,o),
(431,226,cs),
(431,243,o),
(418,256,o),
(401,256,cs)
);
}
);
width = 654;
}
);
note = Atilde;
unicode = 195;
},
{
glyphname = Adieresis;
layers = (
{
hints = (
{
horizontal = 1;
place = (-31, 21);
target = up;
type = BottomGhost;
},
{
horizontal = 1;
place = (196, 60);
place = (196, 60);
type = Stem;
},
{
horizontal = 1;
place = (670, -20);
target = down;
type = TopGhost;
},
{
horizontal = 1;
place = (792, 76);
place = (792, 76);
type = Stem;
},
{
place = (237, 76);
place = (237, 76);
type = Stem;
},
{
place = (345, 76);
place = (345, 76);
type = Stem;
}
);
layerId = m01;
shapes = (
{
closed = 1;
nodes = (
(252,868,o),
(237,849,o),
(237,830,cs),
(237,807,o),
(256,792,o),
(275,792,cs),
(298,792,o),
(313,811,o),
(313,830,cs),
(313,853,o),
(294,868,o),
(275,868,cs)
);
},
{
closed = 1;
nodes = (
(360,868,o),
(345,849,o),
(345,830,cs),
(345,807,o),
(364,792,o),
(383,792,cs),
(406,792,o),
(421,811,o),
(421,830,cs),
(421,853,o),
(402,868,o),
(383,868,cs)
);
},
{
closed = 1;
nodes = (
(569,-13,ls),
(574,-24,o),
(585,-31,o),
(597,-31,cs),
(601,-31,o),
(605,-30,o),
(609,-28,cs),
(620,-23,o),
(627,-12,o),
(627,0,cs),
(627,4,o),
(626,8,o),
(624,12,cs),
(350,652,ls),
(345,663,o),
(334,670,o),
(322,670,cs),
(318,670,o),
(314,669,o),
(310,667,cs),
(299,662,o),
(292,651,o),
(292,639,cs),
(292,635,o),
(293,631,o),
(295,627,cs)
);
},
{
closed = 1;
nodes = (
(20,12,ls),
(18,8,o),
(17,4,o),
(17,-1,cs),
(17,-16,o),
(29,-31,o),
(47,-31,cs),
(59,-31,o),
(70,-24,o),
(75,-13,cs),
(297,505,ls),
(299,509,o),
(300,513,o),
(300,518,cs),
(300,533,o),
(288,548,o),
(270,548,cs),
(258,548,o),
(247,541,o),
(242,530,cs)
);
},
{
closed = 1;
nodes = (
(241,256,ls),
(224,256,o),
(211,243,o),
(211,226,cs),
(211,209,o),
(224,196,o),
(241,196,cs),
(401,196,ls),
(418,196,o),
(431,209,o),
(431,226,cs),
(431,243,o),
(418,256,o),
(401,256,cs)
);
}
);
width = 654;
}
);
note = Adieresis;
unicode = 196;
},
{
glyphname = Aring;
layers = (
{
hints = (
{
horizontal = 1;
place = (-31, 21);
target = up;
type = BottomGhost;
},
{
horizontal = 1;
place = (196, 60);
place = (196, 60);
type = Stem;
},
{
horizontal = 1;
place = (670, -20);
target = down;
type = TopGhost;
},
{
horizontal = 1;
place = (856, 60);
place = (856, 60);
type = Stem;
},
{
place = (323, 72);
place = (323, 72);
type = Stem;
},
{
place = (251, 72);
place = (251, 72);
type = Stem;
},
{
horizontal = 1;
place = (772, 60);
place = (772, 60);
type = Stem;
}
);
layerId = m01;
shapes = (
{
closed = 1;
nodes = (
(283,916,o),
(251,884,o),
(251,844,cs),
(251,804,o),
(283,772,o),
(323,772,cs),
(363,772,o),
(395,804,o),
(395,844,cs),
(395,884,o),
(363,916,o),
(323,916,cs)
);
},
{
closed = 1;
nodes = (
(330,856,o),
(335,851,o),
(335,844,cs),
(335,837,o),
(330,832,o),
(323,832,cs),
(316,832,o),
(311,837,o),
(311,844,cs),
(311,851,o),
(316,856,o),
(323,856,cs)
);
},
{
closed = 1;
nodes = (
(569,-13,ls),
(574,-24,o),
(585,-31,o),
(597,-31,cs),
(601,-31,o),
(605,-30,o),
(609,-28,cs),
(620,-23,o),
(627,-12,o),
(627,0,cs),
(627,4,o),
(626,8,o),
(624,12,cs),
(350,652,ls),
(345,663,o),
(334,670,o),
(322,670,cs),
(318,670,o),
(314,669,o),
(310,667,cs),
(299,662,o),
(292,651,o),
(292,639,cs),
(292,635,o),
(293,631,o),
(295,627,cs)
);
},
{
closed = 1;
nodes = (
(20,12,ls),
(18,8,o),
(17,4,o),
(17,-1,cs),
(17,-16,o),
(29,-31,o),
(47,-31,cs),
(59,-31,o),
(70,-24,o),
(75,-13,cs),
(297,505,ls),
(299,509,o),
(300,513,o),
(300,518,cs),
(300,533,o),
(288,548,o),
(270,548,cs),
(258,548,o),
(247,541,o),
(242,530,cs)
);
},
{
closed = 1;
nodes = (
(241,256,ls),
(224,256,o),
(211,243,o),
(211,226,cs),
(211,209,o),
(224,196,o),
(241,196,cs),
(401,196,ls),
(418,196,o),
(431,209,o),
(431,226,cs),
(431,243,o),
(418,256,o),
(401,256,cs)
);
}
);
width = 654;
}
);
note = Aring;
unicode = 197;
},
{
glyphname = AE;
layers = (
{
hints = (
{
horizontal = 1;
place = (-29, 60);
place = (-29, 60);
type = Stem;
},
{
horizontal = 1;
place = (196, 60);
place = (196, 60);
type = Stem;
},
{
horizontal = 1;
place = (315, 60);
place = (315, 60);
type = Stem;
},
{
horizontal = 1;
place = (611, 60);
place = (611, 60);
type = Stem;
},
{
place = (565, 60);
place = (565, 60);
type = Stem;
}
);
layerId = m01;
shapes = (
{
closed = 1;
nodes = (
(565,1,ls),
(565,-16,o),
(578,-29,o),
(595,-29,cs),
(612,-29,o),
(625,-16,o),
(625,1,cs),
(625,641,ls),
(625,658,o),
(612,671,o),
(595,671,cs),
(578,671,o),
(565,658,o),
(565,641,cs)
);
},
{
closed = 1;
nodes = (
(681,671,ls),
(664,671,o),
(651,658,o),
(651,641,cs),
(651,624,o),
(664,611,o),
(681,611,cs),
(998,611,ls),
(1015,611,o),
(1028,624,o),
(1028,641,cs),
(1028,658,o),
(1015,671,o),
(998,671,cs)
);
},
{
closed = 1;
nodes = (
(24,20,ls),
(19,14,o),
(17,7,o),
(17,1,cs),
(17,-8,o),
(21,-17,o),
(28,-23,cs),
(34,-28,o),
(41,-30,o),
(47,-30,cs),
(56,-30,o),
(65,-26,o),
(71,-19,cs),
(538,533,ls),
(543,539,o),
(545,546,o),
(545,552,cs),
(545,561,o),
(541,570,o),
(534,576,cs),
(528,581,o),
(521,583,o),
(515,583,cs),
(506,583,o),
(497,579,o),
(491,572,cs)
);
},
{
closed = 1;
nodes = (
(681,375,ls),
(664,375,o),
(651,362,o),
(651,345,cs),
(651,328,o),
(664,315,o),
(681,315,cs),
(939,315,ls),
(956,315,o),
(969,328,o),
(969,345,cs),
(969,362,o),
(956,375,o),
(939,375,cs)
);
},
{
closed = 1;
nodes = (
(352,256,ls),
(335,256,o),
(322,243,o),
(322,226,cs),
(322,209,o),
(335,196,o),
(352,196,cs),
(508,196,ls),
(525,196,o),
(538,209,o),
(538,226,cs),
(538,243,o),
(525,256,o),
(508,256,cs)
);
},
{
closed = 1;
nodes = (
(679,31,ls),
(662,31,o),
(649,18,o),
(649,1,cs),
(649,-16,o),
(662,-29,o),
(679,-29,cs),
(999,-29,ls),
(1016,-29,o),
(1029,-16,o),
(1029,1,cs),
(1029,18,o),
(1016,31,o),
(999,31,cs)
);
}
);
width = 1080;
}
);
note = AE;
unicode = 198;
},
{
glyphname = Ccedilla;
layers = (
{
hints = (
{
horizontal = 1;
place = (-242, 61);
place = (-242, 61);
type = Stem;
},
{
horizontal = 1;
place = (-30, 60);
place = (-30, 60);
type = Stem;
},
{
horizontal = 1;
place = (609, 61);
place = (609, 61);
type = Stem;
},
{
place = (36, 60);
place = (36, 60);
type = Stem;
}
);
layerId = m01;
shapes = (
{
closed = 1;
nodes = (
(357,-28,l),
(360,-30,l),
(435,-30,o),
(519,-1,o),
(582,62,cs),
(588,68,o),
(591,76,o),
(591,84,cs),
(591,91,o),
(588,99,o),
(582,105,cs),
(576,111,o),
(568,114,o),
(561,114,cs),
(553,114,o),
(545,111,o),
(539,105,cs),
(488,54,o),
(420,30,o),
(359,30,cs),
(355,30,ls),
(309,31,o),
(263,45,o),
(224,70,cs),
(185,95,o),
(152,132,o),
(130,174,cs),
(109,214,o),
(98,260,o),
(96,306,cs),
(96,316,ls),
(96,358,o),
(104,400,o),
(120,439,cs),
(138,484,o),
(171,536,o),
(224,571,cs),
(257,592,o),
(302,609,o),
(354,609,cs),
(406,609,o),
(451,592,o),
(484,571,cs),
(489,568,o),
(495,566,o),
(500,566,cs),
(510,566,o),
(520,571,o),
(526,580,cs),
(529,585,o),
(531,591,o),
(531,596,cs),
(531,606,o),
(526,616,o),
(517,622,cs),
(469,653,o),
(412,670,o),
(354,670,cs),
(296,670,o),
(239,653,o),
(191,622,cs),
(132,584,o),
(89,527,o),
(64,464,cs),
(45,417,o),
(36,367,o),
(36,317,cs),
(36,304,ls),
(38,250,o),
(51,196,o),
(76,147,cs),
(102,96,o),
(142,52,o),
(191,21,cs),
(239,-10,o),
(296,-27,o),
(353,-28,cs)
);
},
{
closed = 1;
nodes = (
(232,-118,ls),
(228,-124,o),
(226,-130,o),
(226,-136,cs),
(226,-142,o),
(228,-148,o),
(232,-153,cs),
(238,-161,o),
(247,-166,o),
(256,-166,cs),
(259,-166,o),
(263,-165,o),
(266,-164,cs),
(268,-163,o),
(270,-163,o),
(272,-163,cs),
(274,-163,ls),
(275,-163,o),
(280,-164,o),
(283,-167,cs),
(284,-168,o),
(284,-169,o),
(284,-170,c),
(290,-169,l),
(290,-170,o),
(289,-172,o),
(288,-173,cs),
(285,-176,o),
(280,-178,o),
(278,-179,cs),
(274,-180,o),
(269,-181,o),
(264,-181,cs),
(254,-181,ls),
(245,-180,o),
(236,-178,o),
(228,-174,cs),
(224,-172,o),
(220,-171,o),
(215,-171,cs),
(200,-171,o),
(185,-183,o),
(185,-201,cs),
(185,-213,o),
(192,-224,o),
(203,-229,cs),
(216,-235,o),
(230,-239,o),
(245,-241,cs),
(251,-242,o),
(256,-242,o),
(261,-242,cs),
(271,-242,o),
(281,-241,o),
(291,-238,cs),
(303,-235,o),
(317,-229,o),
(328,-217,cs),
(334,-210,o),
(346,-194,o),
(346,-171,cs),
(346,-170,ls),
(346,-151,o),
(338,-135,o),
(325,-123,cs),
(321,-119,o),
(316,-116,o),
(311,-113,c),
(320,-100,ls),
(324,-94,o),
(326,-88,o),
(326,-82,cs),
(326,-72,o),
(321,-63,o),
(313,-57,cs),
(307,-53,o),
(301,-51,o),
(295,-51,cs),
(285,-51,o),
(276,-56,o),
(270,-64,cs)
);
}
);
width = 644;
}
);
note = Ccedilla;
unicode = 199;
},
{
glyphname = Egrave;
layers = (
{
hints = (
{
horizontal = 1;
place = (-30, 60);
place = (-30, 60);
type = Stem;
},
{
horizontal = 1;
place = (314, 60);
place = (314, 60);
type = Stem;
},
{
horizontal = 1;
place = (610, 60);
place = (610, 60);
type = Stem;
},
{
place = (85, 60);
place = (85, 60);
type = Stem;
}
);
layerId = m01;
shapes = (
{
closed = 1;
nodes = (
(356,824,ls),
(331,845,o),
(305,874,o),
(287,909,cs),
(282,920,o),
(271,926,o),
(260,926,cs),
(256,926,o),
(251,925,o),
(247,923,cs),
(236,918,o),
(230,907,o),
(230,896,cs),
(230,892,o),
(231,887,o),
(233,883,cs),
(255,838,o),
(287,803,o),
(316,778,cs),
(322,773,o),
(329,771,o),
(335,771,cs),
(344,771,o),
(353,775,o),
(359,782,cs),
(364,788,o),
(366,795,o),
(366,801,cs),
(366,810,o),
(362,819,o),
(355,825,cs)
);
},
{
closed = 1;
nodes = (
(85,0,ls),
(85,-17,o),
(98,-30,o),
(115,-30,cs),
(132,-30,o),
(145,-17,o),
(145,0,cs),
(145,640,ls),
(145,657,o),
(132,670,o),
(115,670,cs),
(98,670,o),
(85,657,o),
(85,640,cs)
);
},
{
closed = 1;
nodes = (
(201,670,ls),
(184,670,o),
(171,657,o),
(171,640,cs),
(171,623,o),
(184,610,o),
(201,610,cs),
(518,610,ls),
(535,610,o),
(548,623,o),
(548,640,cs),
(548,657,o),
(535,670,o),
(518,670,cs)
);
},
{
closed = 1;
nodes = (
(201,374,ls),
(184,374,o),
(171,361,o),
(171,344,cs),
(171,327,o),
(184,314,o),
(201,314,cs),
(459,314,ls),
(476,314,o),
(489,327,o),
(489,344,cs),
(489,361,o),
(476,374,o),
(459,374,cs)
);
},
{
closed = 1;
nodes = (
(199,30,ls),
(182,30,o),
(169,17,o),
(169,0,cs),
(169,-17,o),
(182,-30,o),
(199,-30,cs),
(519,-30,ls),
(536,-30,o),
(549,-17,o),
(549,0,cs),
(549,17,o),
(536,30,o),
(519,30,cs)
);
}
);
width = 611;
}
);
note = Egrave;
unicode = 200;
},
{
glyphname = Eacute;
layers = (
{
hints = (
{
horizontal = 1;
place = (-30, 60);
place = (-30, 60);
type = Stem;
},
{
horizontal = 1;
place = (314, 60);
place = (314, 60);
type = Stem;
},
{
horizontal = 1;
place = (610, 60);
place = (610, 60);
type = Stem;
},
{
place = (85, 60);
place = (85, 60);
type = Stem;
}
);
layerId = m01;
shapes = (
{
closed = 1;
nodes = (
(337,778,ls),
(366,803,o),
(398,838,o),
(420,883,cs),
(422,887,o),
(423,892,o),
(423,896,cs),
(423,912,o),
(412,926,o),
(393,926,cs),
(382,926,o),
(371,920,o),
(366,909,cs),
(348,874,o),
(322,845,o),
(297,824,cs),
(290,818,o),
(286,809,o),
(286,800,cs),
(286,794,o),
(288,787,o),
(293,781,cs),
(299,774,o),
(308,770,o),
(317,770,cs),
(323,770,o),
(330,772,o),
(336,777,cs)
);
},
{
closed = 1;
nodes = (
(85,0,ls),
(85,-17,o),
(98,-30,o),
(115,-30,cs),
(132,-30,o),
(145,-17,o),
(145,0,cs),
(145,640,ls),
(145,657,o),
(132,670,o),
(115,670,cs),
(98,670,o),
(85,657,o),
(85,640,cs)
);
},
{
closed = 1;
nodes = (
(201,670,ls),
(184,670,o),
(171,657,o),
(171,640,cs),
(171,623,o),
(184,610,o),
(201,610,cs),
(518,610,ls),
(535,610,o),
(548,623,o),
(548,640,cs),
(548,657,o),
(535,670,o),
(518,670,cs)
);
},
{
closed = 1;
nodes = (
(201,374,ls),
(184,374,o),
(171,361,o),
(171,344,cs),
(171,327,o),
(184,314,o),
(201,314,cs),
(459,314,ls),
(476,314,o),
(489,327,o),
(489,344,cs),
(489,361,o),
(476,374,o),
(459,374,cs)
);
},
{
closed = 1;
nodes = (
(199,30,ls),
(182,30,o),
(169,17,o),
(169,0,cs),
(169,-17,o),
(182,-30,o),
(199,-30,cs),
(519,-30,ls),
(536,-30,o),
(549,-17,o),
(549,0,cs),
(549,17,o),
(536,30,o),
(519,30,cs)
);
}
);
width = 611;
}
);
note = Eacute;
unicode = 201;
},
{
glyphname = Ecircumflex;
layers = (
{
hints = (
{
horizontal = 1;
place = (-30, 60);
place = (-30, 60);
type = Stem;
},
{
horizontal = 1;
place = (314, 60);
place = (314, 60);
type = Stem;
},
{
horizontal = 1;
place = (610, 60);
place = (610, 60);
type = Stem;
},
{
place = (85, 60);
place = (85, 60);
type = Stem;
}
);
layerId = m01;
shapes = (
{
closed = 1;
nodes = (
(301,914,l),
(228,819,ls),
(224,813,o),
(222,807,o),
(222,800,cs),
(222,792,o),
(226,783,o),
(233,777,cs),
(239,773,o),
(245,771,o),
(252,771,cs),
(260,771,o),
(269,775,o),
(275,782,cs),
(324,846,l),
(372,782,ls),
(378,774,o),
(387,770,o),
(396,770,cs),
(403,770,o),
(409,772,o),
(414,776,cs),
(422,782,o),
(426,791,o),
(426,800,cs),
(426,807,o),
(424,813,o),
(420,818,cs),
(348,913,ls),
(342,921,o),
(334,925,o),
(324,925,cs),
(314,925,o),
(306,921,o),
(300,913,cs)
);
},
{
closed = 1;
nodes = (
(85,0,ls),
(85,-17,o),
(98,-30,o),
(115,-30,cs),
(132,-30,o),
(145,-17,o),
(145,0,cs),
(145,640,ls),
(145,657,o),
(132,670,o),
(115,670,cs),
(98,670,o),
(85,657,o),
(85,640,cs)
);
},
{
closed = 1;
nodes = (
(201,670,ls),
(184,670,o),
(171,657,o),
(171,640,cs),
(171,623,o),
(184,610,o),
(201,610,cs),
(518,610,ls),
(535,610,o),
(548,623,o),
(548,640,cs),
(548,657,o),
(535,670,o),
(518,670,cs)
);
},
{
closed = 1;
nodes = (
(201,374,ls),
(184,374,o),
(171,361,o),
(171,344,cs),
(171,327,o),
(184,314,o),
(201,314,cs),
(459,314,ls),
(476,314,o),
(489,327,o),
(489,344,cs),
(489,361,o),
(476,374,o),
(459,374,cs)
);
},
{
closed = 1;
nodes = (
(199,30,ls),
(182,30,o),
(169,17,o),
(169,0,cs),
(169,-17,o),
(182,-30,o),
(199,-30,cs),
(519,-30,ls),
(536,-30,o),
(549,-17,o),
(549,0,cs),
(549,17,o),
(536,30,o),
(519,30,cs)
);
}
);
width = 611;
}
);
note = Ecircumflex;
unicode = 202;
},
{
glyphname = Edieresis;
layers = (
{
hints = (
{
horizontal = 1;
place = (746, 76);
place = (746, 76);
type = Stem;
},
{
place = (88, 76);
place = (88, 76);
type = Stem;
},
{
place = (471, 76);
place = (471, 76);
type = Stem;
},
{
horizontal = 1;
place = (-30, 60);
place = (-30, 60);
type = Stem;
},
{
horizontal = 1;
place = (314, 60);
place = (314, 60);
type = Stem;
},
{
horizontal = 1;
place = (610, 60);
place = (610, 60);
type = Stem;
},
{
place = (85, 60);
place = (85, 60);
type = Stem;
}
);
layerId = m01;
shapes = (
{
closed = 1;
nodes = (
(103,822,o),
(88,803,o),
(88,784,cs),
(88,761,o),
(107,746,o),
(126,746,cs),
(149,746,o),
(164,765,o),
(164,784,cs),
(164,807,o),
(145,822,o),
(126,822,cs)
);
},
{
closed = 1;
nodes = (
(486,822,o),
(471,803,o),
(471,784,cs),
(471,761,o),
(490,746,o),
(509,746,cs),
(532,746,o),
(547,765,o),
(547,784,cs),
(547,807,o),
(528,822,o),
(509,822,cs)
);
},
{
closed = 1;
nodes = (
(85,0,ls),
(85,-17,o),
(98,-30,o),
(115,-30,cs),
(132,-30,o),
(145,-17,o),
(145,0,cs),
(145,640,ls),
(145,657,o),
(132,670,o),
(115,670,cs),
(98,670,o),
(85,657,o),
(85,640,cs)
);
},
{
closed = 1;
nodes = (
(201,670,ls),
(184,670,o),
(171,657,o),
(171,640,cs),
(171,623,o),
(184,610,o),
(201,610,cs),
(518,610,ls),
(535,610,o),
(548,623,o),
(548,640,cs),
(548,657,o),
(535,670,o),
(518,670,cs)
);
},
{
closed = 1;
nodes = (
(201,374,ls),
(184,374,o),
(171,361,o),
(171,344,cs),
(171,327,o),
(184,314,o),
(201,314,cs),
(459,314,ls),
(476,314,o),
(489,327,o),
(489,344,cs),
(489,361,o),
(476,374,o),
(459,374,cs)
);
},
{
closed = 1;
nodes = (
(199,30,ls),
(182,30,o),
(169,17,o),
(169,0,cs),
(169,-17,o),
(182,-30,o),
(199,-30,cs),
(519,-30,ls),
(536,-30,o),
(549,-17,o),
(549,0,cs),
(549,17,o),
(536,30,o),
(519,30,cs)
);
}
);
width = 611;
}
);
note = Edieresis;
unicode = 203;
},
{
glyphname = Igrave;
layers = (
{
hints = (
{
horizontal = 1;
place = (-30, 21);
target = up;
type = BottomGhost;
},
{
horizontal = 1;
place = (670, -20);
target = down;
type = TopGhost;
},
{
place = (85, 60);
place = (85, 60);
type = Stem;
}
);
layerId = m01;
shapes = (
{
closed = 1;
nodes = (
(167,824,ls),
(142,845,o),
(116,874,o),
(98,909,cs),
(93,920,o),
(82,926,o),
(71,926,cs),
(67,926,o),
(62,925,o),
(58,923,cs),
(47,918,o),
(41,907,o),
(41,896,cs),
(41,892,o),
(42,887,o),
(44,883,cs),
(66,838,o),
(98,803,o),
(127,778,cs),
(133,773,o),
(140,771,o),
(146,771,cs),
(155,771,o),
(164,775,o),
(170,782,cs),
(175,788,o),
(177,795,o),
(177,801,cs),
(177,810,o),
(173,819,o),
(166,825,cs)
);
},
{
closed = 1;
nodes = (
(85,0,ls),
(85,-17,o),
(98,-30,o),
(115,-30,cs),
(132,-30,o),
(145,-17,o),
(145,0,cs),
(145,640,ls),
(145,657,o),
(132,670,o),
(115,670,cs),
(98,670,o),
(85,657,o),
(85,640,cs)
);
}
);
width = 230;
}
);
note = Igrave;
unicode = 204;
},
{
glyphname = Iacute;
layers = (
{
hints = (
{
horizontal = 1;
place = (-30, 21);
target = up;
type = BottomGhost;
},
{
horizontal = 1;
place = (670, -20);
target = down;
type = TopGhost;
},
{
place = (85, 60);
place = (85, 60);
type = Stem;
}
);
layerId = m01;
shapes = (
{
closed = 1;
nodes = (
(117,778,ls),
(146,803,o),
(178,838,o),
(200,883,cs),
(202,887,o),
(203,892,o),
(203,896,cs),
(203,912,o),
(192,926,o),
(173,926,cs),
(162,926,o),
(151,920,o),
(146,909,cs),
(128,874,o),
(102,845,o),
(77,824,cs),
(70,818,o),
(66,809,o),
(66,800,cs),
(66,794,o),
(68,787,o),
(73,781,cs),
(79,774,o),
(88,770,o),
(97,770,cs),
(103,770,o),
(110,772,o),
(116,777,cs)
);
},
{
closed = 1;
nodes = (
(85,0,ls),
(85,-17,o),
(98,-30,o),
(115,-30,cs),
(132,-30,o),
(145,-17,o),
(145,0,cs),
(145,640,ls),
(145,657,o),
(132,670,o),
(115,670,cs),
(98,670,o),
(85,657,o),
(85,640,cs)
);
}
);
width = 230;
}
);
note = Iacute;
unicode = 205;
},
{
glyphname = Icircumflex;
layers = (
{
hints = (
{
horizontal = 1;
place = (-30, 21);
target = up;
type = BottomGhost;
},
{
horizontal = 1;
place = (670, -20);
target = down;
type = TopGhost;
},
{
place = (85, 60);
place = (85, 60);
type = Stem;
}
);
layerId = m01;
shapes = (
{
closed = 1;
nodes = (
(93,914,l),
(20,819,ls),
(16,813,o),
(14,807,o),
(14,800,cs),
(14,792,o),
(18,783,o),
(25,777,cs),
(31,773,o),
(37,771,o),
(44,771,cs),
(52,771,o),
(61,775,o),
(67,782,cs),
(116,846,l),
(164,782,ls),
(170,774,o),
(179,770,o),
(188,770,cs),
(195,770,o),
(201,772,o),
(206,776,cs),
(214,782,o),
(218,791,o),
(218,800,cs),
(218,807,o),
(216,813,o),
(212,818,cs),
(140,913,ls),
(134,921,o),
(126,925,o),
(116,925,cs),
(106,925,o),
(98,921,o),
(92,913,cs)
);
},
{
closed = 1;
nodes = (
(85,0,ls),
(85,-17,o),
(98,-30,o),
(115,-30,cs),
(132,-30,o),
(145,-17,o),
(145,0,cs),
(145,640,ls),
(145,657,o),
(132,670,o),
(115,670,cs),
(98,670,o),
(85,657,o),
(85,640,cs)
);
}
);
width = 230;
}
);
note = Icircumflex;
unicode = 206;
},
{
glyphname = Idieresis;
layers = (
{
hints = (
{
horizontal = 1;
place = (-30, 21);
target = up;
type = BottomGhost;
},
{
horizontal = 1;
place = (670, -20);
target = down;
type = TopGhost;
},
{
horizontal = 1;
place = (792, 76);
place = (792, 76);
type = Stem;
},
{
place = (20, 76);
place = (20, 76);
type = Stem;
},
{
place = (128, 76);
place = (128, 76);
type = Stem;
},
{
place = (85, 60);
place = (85, 60);
type = Stem;
}
);
layerId = m01;
shapes = (
{
closed = 1;
nodes = (
(35,868,o),
(20,849,o),
(20,830,cs),
(20,807,o),
(39,792,o),
(58,792,cs),
(81,792,o),
(96,811,o),
(96,830,cs),
(96,853,o),
(77,868,o),
(58,868,cs)
);
},
{
closed = 1;
nodes = (
(143,868,o),
(128,849,o),
(128,830,cs),
(128,807,o),
(147,792,o),
(166,792,cs),
(189,792,o),
(204,811,o),
(204,830,cs),
(204,853,o),
(185,868,o),
(166,868,cs)
);
},
{
closed = 1;
nodes = (
(85,0,ls),
(85,-17,o),
(98,-30,o),
(115,-30,cs),
(132,-30,o),
(145,-17,o),
(145,0,cs),
(145,640,ls),
(145,657,o),
(132,670,o),
(115,670,cs),
(98,670,o),
(85,657,o),
(85,640,cs)
);
}
);
width = 230;
}
);
note = Idieresis;
unicode = 207;
},
{
glyphname = Eth;
layers = (
{
hints = (
{
horizontal = 1;
place = (-30, 60);
place = (-30, 60);
type = Stem;
},
{
horizontal = 1;
place = (287, 60);
place = (287, 60);
type = Stem;
},
{
horizontal = 1;
place = (610, 60);
place = (610, 60);
type = Stem;
},
{
place = (208, 60);
place = (208, 60);
type = Stem;
},
{
place = (619, 58);
place = (619, 58);
type = Stem;
}
);
layerId = m01;
shapes = (
{
closed = 1;
nodes = (
(208,2,ls),
(208,-15,o),
(221,-28,o),
(238,-28,cs),
(255,-28,o),
(268,-15,o),
(268,2,cs),
(268,642,ls),
(268,659,o),
(255,672,o),
(238,672,cs),
(221,672,o),
(208,659,o),
(208,642,cs)
);
},
{
closed = 1;
nodes = (
(365,670,l),
(330,670,ls),
(313,670,o),
(300,657,o),
(300,640,cs),
(300,623,o),
(313,610,o),
(330,610,cs),
(364,610,ls),
(377,609,o),
(389,608,o),
(402,606,cs),
(434,601,o),
(464,592,o),
(491,578,cs),
(518,564,o),
(542,544,o),
(561,520,cs),
(582,493,o),
(597,461,o),
(606,427,cs),
(615,392,o),
(619,355,o),
(619,318,cs),
(619,316,ls),
(619,278,o),
(615,241,o),
(605,206,cs),
(595,170,o),
(579,136,o),
(556,109,cs),
(526,73,o),
(488,52,o),
(455,41,cs),
(436,35,o),
(416,31,o),
(396,30,cs),
(383,30,l),
(323,30,ls),
(306,30,o),
(293,17,o),
(293,0,cs),
(293,-17,o),
(306,-30,o),
(323,-30,cs),
(368,-30,l),
(383,-30,l),
(399,-30,ls),
(424,-29,o),
(449,-24,o),
(473,-16,cs),
(516,-2,o),
(564,25,o),
(602,71,cs),
(631,106,o),
(650,148,o),
(662,191,cs),
(673,233,o),
(677,276,o),
(677,318,cs),
(677,320,ls),
(677,361,o),
(673,403,o),
(662,444,cs),
(651,485,o),
(633,525,o),
(606,559,cs),
(582,590,o),
(551,615,o),
(517,633,cs),
(483,651,o),
(446,662,o),
(409,668,cs),
(394,670,o),
(378,671,o),
(363,672,c)
);
},
{
closed = 1;
nodes = (
(34,347,ls),
(17,347,o),
(4,334,o),
(4,317,cs),
(4,300,o),
(17,287,o),
(34,287,cs),
(159,287,ls),
(176,287,o),
(189,300,o),
(189,317,cs),
(189,334,o),
(176,347,o),
(159,347,cs)
);
},
{
closed = 1;
nodes = (
(470,287,ls),
(487,287,o),
(500,300,o),
(500,317,cs),
(500,334,o),
(487,347,o),
(470,347,cs),
(345,347,ls),
(328,347,o),
(315,334,o),
(315,317,cs),
(315,300,o),
(328,287,o),
(345,287,cs)
);
}
);
width = 732;
}
);
note = Eth;
unicode = 208;
},
